<svg xmlns="http://www.w3.org/2000/svg" width="332.031" height="260" viewBox="0 0 332.031 260">
  <g id="Group_1205" data-name="Group 1205" transform="translate(-745.006 -1631)">
    <circle id="Ellipse_156" data-name="Ellipse 156" cx="52" cy="52" r="52" transform="translate(939 1787)" fill="#f674b4"/>
    <g id="file0" transform="translate(574.481 1291.387)">
      <g id="Objects" transform="translate(192.375 355.365)">
        <path id="Path_859" data-name="Path 859" d="M806.171,471.574q-4.675-4.646-9.331-9.312a.762.762,0,0,0-1.077,1.077q4.675,4.646,9.331,9.311A.762.762,0,0,0,806.171,471.574Z" transform="translate(-697.145 -454.239)" fill="#f674b4"/>
        <path id="Path_860" data-name="Path 860" d="M1149.148,421.743c-1.828,2.116-3.655,4.213-5.483,6.329-.654.75.462,1.828,1.1,1.077,1.828-2.116,3.655-4.213,5.483-6.33C1150.9,422.09,1149.783,420.993,1149.148,421.743Z" transform="translate(-978.136 -421.492)" fill="#7baeed"/>
        <path id="Path_861" data-name="Path 861" d="M1200.623,481.179c-4.54,2.059-9.062,4.136-13.6,6.195-.9.423-.115,1.732.789,1.328,4.54-2.059,9.061-4.136,13.6-6.195C1202.335,482.083,1201.547,480.775,1200.623,481.179Z" transform="translate(-1012.989 -469.634)" fill="#f674b4"/>
        <path id="Path_862" data-name="Path 862" d="M1166.4,1087.258c-12.794,1.789-11.774,20.893,2.366,20.8C1184.811,1107.939,1182.214,1085.026,1166.4,1087.258Z" transform="translate(-989.423 -959.049)" fill="#ffcb56"/>
        <path id="Path_863" data-name="Path 863" d="M810.5,1147.2l2.251,6.714,6.445-5.137Z" transform="translate(-709.228 -1007.583)" fill="#f674b4"/>
        <path id="Path_864" data-name="Path 864" d="M284.1,774.9l6.637,16.526,10.831-13.544Z" transform="translate(-284.1 -706.909)" fill="#7baeed"/>
        <path id="Path_865" data-name="Path 865" d="M1605.71,601.1l-14.91,18.758,18.45,16.488,18.277-16.488Z" transform="translate(-1339.408 -566.546)" fill="#f674b4"/>
        <path id="Path_866" data-name="Path 866" d="M1575.643,674.2h-9.523l-1.52,11.2,8.946,2.963Z" transform="translate(-1318.249 -625.582)" fill="#ffcb56"/>
        <path id="Path_867" data-name="Path 867" d="M380.133,635.355c-.423,2.963-.847,5.906-1.27,8.869-.135.962,1.327,1.385,1.481.4.423-2.963.846-5.906,1.27-8.869C381.749,634.8,380.268,634.374,380.133,635.355Z" transform="translate(-360.625 -593.759)" fill="#ffcb56"/>
        <path id="Path_868" data-name="Path 868" d="M1634.134,555.49c-.154-.962-1.635-.558-1.481.4l.635,3.809c.154.962,1.635.558,1.482-.4Z" transform="translate(-1373.2 -529.266)" fill="#7baeed"/>
        <path id="Path_869" data-name="Path 869" d="M1772.276,752.488c-2.328.212-4.656.423-6.964.635-.981.1-.981,1.616,0,1.52,2.328-.212,4.656-.423,6.964-.635C1773.238,753.931,1773.257,752.411,1772.276,752.488Z" transform="translate(-1479.751 -688.807)" fill="#7baeed"/>
        <path id="Path_870" data-name="Path 870" d="M311.989,695.585c-1.27-.846-2.54-1.693-3.809-2.52-.827-.539-1.6.77-.77,1.328,1.27.846,2.539,1.693,3.809,2.52C312.046,697.451,312.816,696.124,311.989,695.585Z" transform="translate(-302.639 -640.715)" fill="#ffcb56"/>
        <path id="Path_871" data-name="Path 871" d="M492.893,528.28a129.831,129.831,0,0,0-56.273,31.956c-.712.693.366,1.77,1.077,1.077a128.515,128.515,0,0,1,55.6-31.551A.769.769,0,0,0,492.893,528.28Z" transform="translate(-407.089 -507.712)" fill="#7baeed"/>
        <path id="Path_872" data-name="Path 872" d="M1396.224,505.134a67.523,67.523,0,0,0-28.031-14.237c-.962-.231-1.366,1.251-.4,1.481a65.844,65.844,0,0,1,27.338,13.833C1395.878,506.847,1396.975,505.769,1396.224,505.134Z" transform="translate(-1158.858 -477.525)" fill="#7baeed"/>
      </g>
      <g id="Woman" transform="translate(170.524 395.652)">
        <g id="Body" transform="translate(103.307 77.686)">
          <path id="Path_873" data-name="Path 873" d="M1336.756,1134.087a.781.781,0,0,1-.769-.75l-2.79-97.848a.772.772,0,0,1,.75-.789.8.8,0,0,1,.789.75l2.79,97.848a.772.772,0,0,1-.75.789Z" transform="translate(-1212.82 -1034.7)" fill="#000200"/>
          <path id="Path_874" data-name="Path 874" d="M708.27,1502a.772.772,0,0,1-.77-.77V1486.47a.77.77,0,0,1,1.539,0v14.756A.76.76,0,0,1,708.27,1502Z" transform="translate(-707.5 -1398.934)" fill="#000200"/>
          <path id="Path_875" data-name="Path 875" d="M859.756,1209.4H859.7l-21.72-1.808a.727.727,0,0,1-.52-.269.769.769,0,0,1-.173-.577l1.366-12.37a.752.752,0,0,1,.75-.673h20.354a.772.772,0,0,1,.77.77v14.179a.757.757,0,0,1-.25.558A.911.911,0,0,1,859.756,1209.4Zm-20.893-3.271,20.124,1.674V1195.22H840.074Z" transform="translate(-812.313 -1163.11)" fill="#000200"/>
          <path id="Path_876" data-name="Path 876" d="M1188.117,1074.247c-7.676,0-11.582-5.445-11.947-10.524a10.782,10.782,0,0,1,9.581-11.793h0c4.963-.712,9.292.981,11.87,4.6a11.851,11.851,0,0,1,1.02,12c-1.866,3.655-5.579,5.695-10.427,5.733A.145.145,0,0,0,1188.117,1074.247Zm-2.155-20.8a9.3,9.3,0,0,0-8.273,10.177c.327,4.54,3.694,9.1,10.427,9.1h.115c4.252-.038,7.484-1.77,9.081-4.886a10.27,10.27,0,0,0-.9-10.408c-1.327-1.866-4.444-4.829-10.447-3.983Zm-.1-.75Z" transform="translate(-1085.979 -1048.486)" fill="#000200"/>
        </g>
        <g id="Backpack" transform="translate(90.013 58.871)">
          <path id="Path_877" data-name="Path 877" d="M689.845,1054.359c-.539-3.848-2.328-9.331-.154-13.64,3.1-6.118,8.369-12.871,10.35-10.524,3.251,3.828,12.216,59.524,10.562,75.319s-16.988,23.8-16.988,23.8l-.558-11.081s7.445-6.964,7.849-20.528-7.926-51.733-7.926-51.733Z" transform="translate(-678.975 -1011.861)" fill="#000200"/>
          <path id="Path_878" data-name="Path 878" d="M1345.859,1103.527a32.584,32.584,0,0,1-6.272,13.371c-.1-1.52-.193-3.059-.289-4.579-.519-7.869-2.847-78.378-1.885-80.726-1.443-7.368,3.5,1.308,6,6.907,2.116,4.733,4.656,10.889,4.29,16.949C1348.11,1074.13,1347.706,1094.715,1345.859,1103.527Z" transform="translate(-1202.723 -1011.084)" fill="#000200"/>
          <path id="Path_879" data-name="Path 879" d="M639.208,1009.93a.772.772,0,0,1-.77-.77L638.4,951a8.012,8.012,0,0,1,7.83-8.061c18.835-.481,18.912-.385,19.239.019a.78.78,0,0,1,.154.673.756.756,0,0,1-.923.558c-.019,0-.038-.019-.058-.019-.519-.039-3.444-.1-18.373.308A6.492,6.492,0,0,0,639.92,951l.039,58.158a.744.744,0,0,1-.75.77Z" transform="translate(-638.4 -941.518)" fill="#000200"/>
          <path id="Path_880" data-name="Path 880" d="M1331.161,973.357a.772.772,0,0,1-.77-.77V944.961a6.527,6.527,0,0,0-6.522-6.522.77.77,0,1,1,0-1.539,8.051,8.051,0,0,1,8.042,8.042v27.627A.76.76,0,0,1,1331.161,973.357Z" transform="translate(-1191.373 -936.9)" fill="#000200"/>
          <path id="Path_881" data-name="Path 881" d="M656.77,1538.661a.772.772,0,0,1-.77-.77v-6.022a.77.77,0,1,1,1.539,0v6.022A.76.76,0,0,1,656.77,1538.661Z" transform="translate(-652.614 -1416.784)" fill="#000200"/>
        </g>
        <g id="Head" transform="translate(105.737 0)">
          <path id="Path_882" data-name="Path 882" d="M928.355,751.007c-.731-11.562-9.927-10.12-9.927-10.12a12.115,12.115,0,0,0-9.177-7.772c-.558-8.446-4.771-17.18-23.086-16.237s-26.261,8.773-25.626,20.989c-7.638.1-10.37,4.713-10.331,7.753-1.481-3.386-1.885-7.426-1.924-12.082-.231-20.643,9.735-27.415,47.577-27.781,31.551-.308,34.649,6.464,35.553,21.971C932.01,738.348,932.087,745.948,928.355,751.007Z" transform="translate(-823.626 -691.348)" fill="#000200"/>
          <path id="Path_883" data-name="Path 883" d="M894.421,756.771c-42.922,0-49.944-7.773-50.136-26.357-.1-8.927,1.693-14.794,5.829-19.008,6.426-6.56,18.739-9.331,42.5-9.542v0c31.667-.289,35.38,6.676,36.323,22.682.654,11.351.731,19.8-4.271,25.106C919.95,754.636,910.908,756.771,894.421,756.771Zm-1.789-53.387c-23.317.212-35.3,2.847-41.421,9.081-3.828,3.906-5.5,9.427-5.406,17.931.192,16.891,5.041,24.837,48.616,24.837,16.026,0,24.741-1.982,29.127-6.637,4.6-4.867,4.5-13.005,3.867-23.971-.827-14.16-2.77-21.528-34.784-21.239Z" transform="translate(-820.396 -688.204)" fill="#000200"/>
          <path id="Path_884" data-name="Path 884" d="M950.811,829.7a.87.87,0,0,1-.308-.058.754.754,0,0,1-.385-1c2.713-6.214,9.5-21.47,9.5-21.47a.764.764,0,0,1,.981-.4c.212.077,20.855,8.465,30.7,6.945a.763.763,0,0,1,.866.635.749.749,0,0,1-.635.866c-9.331,1.443-27.05-5.271-30.82-6.753-1.347,3.02-6.83,15.352-9.215,20.8A.743.743,0,0,1,950.811,829.7Z" transform="translate(-905.818 -772.885)" fill="#000200"/>
          <path id="Path_885" data-name="Path 885" d="M905.129,925.765a.763.763,0,0,1-.75-.635,5.1,5.1,0,0,1,1.058-4.175c1.5-1.77,4.348-2.655,8.427-2.655a.77.77,0,0,1,0,1.539c-3.578,0-6.079.731-7.272,2.116a3.449,3.449,0,0,0-.712,2.943.779.779,0,0,1-.635.885A.243.243,0,0,0,905.129,925.765Z" transform="translate(-868.87 -863.007)" fill="#000200"/>
          <path id="Path_886" data-name="Path 886" d="M1073.947,908.448a.769.769,0,1,1,0-1.539,4.3,4.3,0,0,0,3.155-1.02,1.618,1.618,0,0,0,.327-1.347c-.212-1.212-2.886-1.885-4.155-2.02a.752.752,0,0,1-.673-.75v-7a.772.772,0,0,1,.77-.77h0a.772.772,0,0,1,.77.77V901.1c1.424.25,4.463,1.039,4.81,3.194a3.038,3.038,0,0,1-.654,2.578,5.626,5.626,0,0,1-4.348,1.577Z" transform="translate(-1004.79 -843.383)" fill="#000200"/>
          <path id="Path_887" data-name="Path 887" d="M1006.625,877.873a20.006,20.006,0,0,0-3.675.712c-.943.289-.308,1.674.635,1.385a17.1,17.1,0,0,1,3.29-.6C1007.856,879.259,1007.606,877.758,1006.625,877.873Z" transform="translate(-948.164 -830.353)" fill="#000200"/>
          <path id="Path_888" data-name="Path 888" d="M1123.106,874.039c-.789-.519-1.655-.885-2.4-1.462-.77-.6-1.847.5-1.058,1.1.847.654,1.828,1.1,2.713,1.693C1123.183,875.905,1123.914,874.559,1123.106,874.039Z" transform="translate(-1042.56 -825.942)" fill="#000200"/>
          <path id="Path_889" data-name="Path 889" d="M958.29,802.237a.768.768,0,0,1-.77-.75c-.058-7.2-.25-13.313-1.039-25.03-.75-11.178-8.042-16.257-22.278-15.526-9.85.5-16.892,3.021-20.932,7.5-2.905,3.232-4.252,7.484-3.982,12.678a.773.773,0,0,1-.731.808.762.762,0,0,1-.808-.731c-.289-5.6,1.173-10.235,4.367-13.775,4.329-4.79,11.716-7.484,21.99-8,15.045-.77,23.086,4.925,23.875,16.949.789,11.716.981,18.084,1.039,25.126a.7.7,0,0,1-.731.75Z" transform="translate(-871.626 -734.631)" fill="#000200"/>
          <path id="Path_890" data-name="Path 890" d="M720.9,718.857a.631.631,0,0,1-.327-.077.767.767,0,0,1-.366-1.02l.481-1c2.944-6.079,11.89-24.549,11.332-41.517-.539-16.007-.385-27.011,6.1-33.822,6.964-7.311,20.547-9.946,53.849-10.466,27.684-.52,43.422,1.443,45.307,48.02.115,2.982.211,5.752.289,8.33.308,9.869.519,17.007,2.27,22.74a.767.767,0,0,1-1.462.462c-1.808-5.925-2.02-13.14-2.328-23.144-.077-2.578-.173-5.348-.289-8.33-1.924-47.366-18.565-47.039-43.749-46.558-32.821.5-46.134,3.021-52.772,9.985-6.079,6.368-6.195,17.1-5.675,32.725.577,17.334-8.5,36.073-11.486,42.229l-.481,1A.751.751,0,0,1,720.9,718.857Z" transform="translate(-720.133 -630.897)" fill="#000200"/>
          <path id="Path_891" data-name="Path 891" d="M855.068,877.242l-.77-.019a7.6,7.6,0,0,1,2.27-5.291c1.4-1.443,4.078-3.174,8.831-3.232a.781.781,0,0,1,.77.75.756.756,0,0,1-.75.77c-4.232.058-6.541,1.539-7.753,2.77a6.1,6.1,0,0,0-1.828,4.213Z" transform="translate(-828.487 -822.95)" fill="#000200"/>
          <path id="Path_892" data-name="Path 892" d="M1180.492,863.8a.422.422,0,0,0,.019.154,15.466,15.466,0,0,1,1.481-1.25v-.115c-.25-4.079-1.558-7.08-3.867-8.927a9.468,9.468,0,0,0-6.31-1.962,12.863,12.863,0,0,0-9.581-7.734.767.767,0,0,0-.212,1.52,11.347,11.347,0,0,1,8.58,7.291.744.744,0,0,0,.827.481,8.11,8.11,0,0,1,5.752,1.6c1.943,1.578,3.059,4.194,3.29,7.83C1180.473,863.054,1180.492,863.419,1180.492,863.8Z" transform="translate(-1076.475 -802.971)" fill="#000200"/>
          <path id="Path_893" data-name="Path 893" d="M986.049,916.5a7.1,7.1,0,0,1-3.155-.75,7.876,7.876,0,0,1-4.194-7.407.772.772,0,0,1,.769-.77h0a.772.772,0,0,1,.77.77,6.434,6.434,0,0,0,3.347,6.041,5.223,5.223,0,0,0,5.406-.346c1.693-1.27,2.328-3.578,1.809-6.5a.762.762,0,0,1,1.5-.269c.846,4.752-1.135,7.041-2.4,7.984A6.394,6.394,0,0,1,986.049,916.5Z" transform="translate(-928.955 -853.587)" fill="#000200"/>
          <path id="Path_894" data-name="Path 894" d="M1101.637,913.31a5.816,5.816,0,0,1-2.751-.673c-2.482-1.25-3.886-4.021-3.886-7.561a.77.77,0,0,1,1.539,0c0,2.944,1.116,5.214,3.059,6.195a4.5,4.5,0,0,0,4.675-.346c1.674-1.212,2.386-3.5,1.943-6.272a.77.77,0,0,1,1.52-.25c.539,3.347-.385,6.176-2.559,7.753A6.031,6.031,0,0,1,1101.637,913.31Z" transform="translate(-1022.88 -851.265)" fill="#000200"/>
          <path id="Path_895" data-name="Path 895" d="M1043.17,917.269a.741.741,0,0,1-.673-.4.767.767,0,0,1,.308-1.039c.231-.135,5.771-3.1,10.793-.712a.766.766,0,0,1-.654,1.385c-4.329-2.059-9.35.635-9.408.673A.862.862,0,0,1,1043.17,917.269Z" transform="translate(-980.401 -859.687)" fill="#000200"/>
          <path id="Path_896" data-name="Path 896" d="M1113.01,906.565l-.154,1.52a1.53,1.53,0,0,0,3.04.327l.154-1.52A1.53,1.53,0,0,0,1113.01,906.565Z" transform="translate(-1037.292 -852.466)" fill="#000200"/>
          <path id="Path_897" data-name="Path 897" d="M1005.91,909.065l-.154,1.52a1.53,1.53,0,0,0,3.04.327l.154-1.52A1.529,1.529,0,0,0,1005.91,909.065Z" transform="translate(-950.797 -854.485)" fill="#000200"/>
        </g>
        <g id="Hand_1" transform="translate(0 50.521)">
          <path id="Path_898" data-name="Path 898" d="M372.689,978.381A14.7,14.7,0,0,1,369.38,978c-7.426-1.635-9.927-14.14-12.832-28.608-.808-4.059-1.655-8.253-2.636-12.332-.173-.673-.327-1.308-.481-1.982-1.789-7.388-3.559-14.391-5.829-18.739-6.349-12.255-17.6-20.335-21.855-21.22a1.639,1.639,0,0,0-.981-.019c-.1.231-.423,1.635,3.886,6.06a6.634,6.634,0,0,1,1.212,7.542,9.94,9.94,0,0,0-1.077,5.637.759.759,0,1,1-1.5.231,11.463,11.463,0,0,1,1.212-6.522,5.137,5.137,0,0,0-.923-5.829c-3.54-3.636-4.906-6.176-4.175-7.772a1.743,1.743,0,0,1,1.655-.943h.077c4.386,0,17.045,9.023,23.837,22.125,2.347,4.5,4.156,11.6,5.964,19.085.154.654.308,1.308.481,1.962.981,4.117,1.828,8.33,2.655,12.409,2.674,13.371,5.194,25.992,11.659,27.415,12.255,2.713,17.065-11.332,22.605-27.569a186.244,186.244,0,0,1,7.33-19.1.766.766,0,0,1,1.385.654,177.917,177.917,0,0,0-7.253,18.931C388.7,964.279,383.886,978.381,372.689,978.381Z" transform="translate(-293.834 -893.5)" fill="#000200"/>
          <path id="Path_899" data-name="Path 899" d="M201.389,941.34a.772.772,0,0,1-.289-.058c-4.29-1.809-16.141-5.945-19.489-3.482a2.325,2.325,0,0,0-.808,2.251.763.763,0,0,1-1.52.135,3.694,3.694,0,0,1,1.424-3.617c2.963-2.174,10-.52,15.16,1.154-1.655-.75-3.405-1.366-4.983-1.924-3.271-1.135-5.656-1.962-6.156-3.5a2.031,2.031,0,0,1,.346-1.847c3.155-4.637,21.74,2.482,27.357,4.79a.768.768,0,0,1-.577,1.424c-13.429-5.483-23.933-7.676-25.51-5.329-.212.308-.173.443-.154.5.269.808,2.886,1.731,5.194,2.539,3.6,1.251,8.1,2.828,10.6,5.714a.753.753,0,0,1,.038.943A.812.812,0,0,1,201.389,941.34Z" transform="translate(-177.576 -922.101)" fill="#000200"/>
          <path id="Path_900" data-name="Path 900" d="M192.635,989.806c-1.193-.308-2.636-.769-4.175-1.231-5.945-1.847-12.678-3.944-14.814-1.481-.962,1.1-.866,2.809.289,5.233,0,.019.019.019.019.039a9.808,9.808,0,0,1,1.308.038.76.76,0,0,0,.038-.731c-.847-1.751-1.02-3-.519-3.578,1.481-1.712,8.523.5,13.2,1.943,1.558.481,3.02.943,4.252,1.27a.759.759,0,0,0,.923-.539A.73.73,0,0,0,192.635,989.806Z" transform="translate(-172.516 -968.181)" fill="#000200"/>
          <path id="Path_901" data-name="Path 901" d="M244.492,1120.031a42.365,42.365,0,0,1-8.273-.846c-28.7-5.752-33.841-45.576-36.3-64.7-.231-1.808-.442-3.405-.635-4.733-.366-2.424-.789-4.733-1.231-6.83-.1-.539-.212-1.058-.346-1.578-2.078-9.158-4.79-15.256-7.465-16.776-3.04-1.731-6.868-2.732-10.254-3.617-4.733-1.231-8.465-2.212-9.235-4.771a2.7,2.7,0,0,1,.269-2.674c1.385-1.481,4.983-.75,16.2,1.77a.759.759,0,0,1-.327,1.481c-7.772-1.751-13.89-3.136-14.737-2.232-.135.154-.115.577.077,1.193.519,1.732,4.232,2.713,8.157,3.732,3.463.9,7.407,1.924,10.62,3.771,4.175,2.366,6.926,12.139,8.2,17.738.135.519.269,1.1.365,1.655.462,2.116.885,4.444,1.251,6.907.192,1.347.4,2.943.635,4.771,2.424,18.777,7.465,57.87,35.091,63.411,30.032,6.041,44.249-23.49,44.384-23.8a.766.766,0,0,1,1.385.654C282.162,1094.829,270.022,1120.031,244.492,1120.031Z" transform="translate(-170.524 -989.805)" fill="#000200"/>
          <path id="Path_902" data-name="Path 902" d="M315.6,1118.527c.154.539.25,1.077.366,1.616a42.405,42.405,0,0,0,18.45-.654c5.425-1.443,10.985-4.444,14.14-8.908-.173-.673-.327-1.328-.481-1.982-3.271,5.849-11.062,9.081-17.661,10.2A39.927,39.927,0,0,1,315.6,1118.527Z" transform="translate(-287.689 -1067.218)" fill="#000200"/>
          <path id="Path_903" data-name="Path 903" d="M442.732,1488.831a.762.762,0,0,1-.731-.539c-1.462-4.771-6.5-9.581-13.121-12.505a30.689,30.689,0,0,0-25.357-.115.766.766,0,0,1-.654-1.385,32.152,32.152,0,0,1,26.626.1c7.022,3.117,12.37,8.273,13.967,13.467a.779.779,0,0,1-.5.962C442.885,1488.812,442.809,1488.831,442.732,1488.831Z" transform="translate(-357.817 -1360.259)" fill="#000200"/>
        </g>
        <g id="Hand_2" transform="translate(223.624 34.392)">
          <path id="Path_904" data-name="Path 904" d="M1360.772,901.032c-11.582,0-17.315-17.738-21.605-30.993l-.289-.885c-2.1-6.541-3.905-12.2-5.829-14.718a.768.768,0,0,1,1.212-.943c2.078,2.732,3.944,8.484,6.079,15.16l.288.885c5.618,17.392,11.62,32.744,23.2,29.493,12.39-3.482,15.295-24.452,17.873-42.96l.058-.443c.115-.693.192-1.347.289-2.02,1.058-7.638,2.174-14.872,4.059-19.585,5.5-13.775,17.334-24.029,21.643-24.356a1.67,1.67,0,0,1,1.731.77c.9,1.52-.231,4.213-3.463,8.215a4.98,4.98,0,0,0-.346,5.714,11.3,11.3,0,0,1,1.885,6.464.77.77,0,1,1-1.539-.077,10.1,10.1,0,0,0-1.674-5.6,6.552,6.552,0,0,1,.462-7.465c3.925-4.887,3.463-6.272,3.328-6.483a1.776,1.776,0,0,0-.962.115c-4.156,1.308-14.564,10.447-19.681,23.26-1.828,4.56-2.924,11.7-3.983,19.219-.1.673-.192,1.327-.289,2.02l-.058.423c-2.636,18.969-5.618,40.478-18.969,44.21A10,10,0,0,1,1360.772,901.032Z" transform="translate(-1332.894 -809.66)" fill="#000200"/>
          <path id="Path_905" data-name="Path 905" d="M1719.667,848.85a.835.835,0,0,1-.577-.25.782.782,0,0,1-.058-.943c2.213-3.117,6.522-5.117,9.985-6.714,2.232-1.02,4.752-2.193,4.925-3.021.019-.058.039-.192-.192-.481-1.809-2.174-12.044,1.039-24.876,7.792a.77.77,0,1,1-.712-1.366c5.368-2.828,23.163-11.736,26.761-7.426a2.027,2.027,0,0,1,.52,1.789c-.346,1.558-2.636,2.617-5.771,4.079-1.52.712-3.213,1.481-4.791,2.4,4.964-2.174,11.832-4.521,14.987-2.636a3.726,3.726,0,0,1,1.77,3.463.769.769,0,1,1-1.539,0,2.265,2.265,0,0,0-1.02-2.155c-3.559-2.116-14.967,3.155-19.046,5.368A.615.615,0,0,1,1719.667,848.85Z" transform="translate(-1635.631 -830.354)" fill="#000200"/>
          <path id="Path_906" data-name="Path 906" d="M1788.6,895.036a.764.764,0,0,1-.712-.5.756.756,0,0,1,.462-.981c1.154-.423,2.559-1.02,4.04-1.635,5.733-2.424,12.236-5.175,14.6-2.924,1.058,1,1.135,2.713.212,5.233a.772.772,0,0,1-.981.462.764.764,0,0,1-.462-.981c.673-1.828.731-3.078.173-3.617-1.635-1.558-8.446,1.328-12.948,3.232-1.5.635-2.924,1.231-4.1,1.674A2,2,0,0,1,1788.6,895.036Z" transform="translate(-1700.313 -873.058)" fill="#000200"/>
          <path id="Path_907" data-name="Path 907" d="M1380.148,1029.415c-21.6,0-32.186-14.987-32.3-15.16a.76.76,0,0,1,1.251-.866c.135.192,13.486,19.027,40.94,13.467,28.723-5.81,33.475-47.519,36.015-69.933.154-1.347.289-2.616.443-3.829.135-1.193.211-2.385.289-3.578.077-1.154.154-2.289.269-3.405.038-.539.115-1.116.212-1.693.712-5.675,2.5-15.66,6.426-18.431,3.021-2.136,6.83-3.54,10.2-4.79,3.809-1.4,7.407-2.732,7.753-4.5.115-.635.115-1.058-.038-1.193-.924-.827-6.888,1.154-14.448,3.655a.76.76,0,0,1-.481-1.443c10.908-3.6,14.429-4.694,15.949-3.347a2.7,2.7,0,0,1,.539,2.636c-.5,2.617-4.136,3.963-8.734,5.637-3.271,1.212-6.984,2.578-9.85,4.6-2.52,1.77-4.637,8.119-5.791,17.392-.1.558-.154,1.1-.192,1.616-.135,1.116-.192,2.212-.269,3.347-.077,1.212-.154,2.424-.308,3.655-.135,1.212-.289,2.482-.442,3.809-2.6,22.8-7.426,65.219-37.227,71.241A46.645,46.645,0,0,1,1380.148,1029.415Z" transform="translate(-1344.863 -893.775)" fill="#000200"/>
          <path id="Path_908" data-name="Path 908" d="M1624.433,1045.7a16.132,16.132,0,0,0-.192,1.655,42.188,42.188,0,0,1-18.411,1.154c-5.541-.9-11.351-3.348-14.929-7.484.115-.693.193-1.347.289-2.02,3.828,5.5,11.89,7.965,18.565,8.426A41.081,41.081,0,0,0,1624.433,1045.7Z" transform="translate(-1541.263 -994.878)" fill="#000200"/>
          <path id="Path_909" data-name="Path 909" d="M1467.252,1422.66a1.312,1.312,0,0,1-.269-.039.771.771,0,0,1-.462-.981c5.964-16.276,29.916-22.74,42.537-18.989a.761.761,0,0,1-.423,1.462c-12.082-3.578-35,2.559-40.671,18.065A.774.774,0,0,1,1467.252,1422.66Z" transform="translate(-1440.778 -1287.732)" fill="#000200"/>
        </g>
      </g>
      <g id="Question" transform="translate(317.72 339.613)">
        <path id="Path_910" data-name="Path 910" d="M963.653,344.247c-3.5-3.405-11.1-6.7-27.434-3.021a.768.768,0,0,0-.443,1.193l3.271,4.483a.74.74,0,0,0,.827.289c6.945-2.078,12.871-1.828,16.7.693a9.227,9.227,0,0,1,4.117,6.907c.885,7.542-13.467,9.581-13.6,9.6a.771.771,0,0,0-.654.789l.635,12.774a.778.778,0,0,0,.77.731h2.79a.77.77,0,0,0,.558-.231.753.753,0,0,0,.212-.558l-.289-9.138c2.886-.635,14.237-3.617,15.93-12.274C967.962,351.634,966.77,347.286,963.653,344.247Z" transform="translate(-935.628 -339.613)" fill="#000200"/>
        <path id="Path_911" data-name="Path 911" d="M992.6,556.6h-3.828a.764.764,0,0,0-.75.6l-1.077,4.81a.806.806,0,0,0,.115.6.79.79,0,0,0,.519.327l4.886.75h.115a.713.713,0,0,0,.5-.192.78.78,0,0,0,.269-.577v-5.56A.739.739,0,0,0,992.6,556.6Z" transform="translate(-977.056 -514.854)" fill="#000200"/>
      </g>
    </g>
  </g>
</svg>
