<svg xmlns="http://www.w3.org/2000/svg" xmlns:xlink="http://www.w3.org/1999/xlink" width="138.258" height="108.142" viewBox="0 0 138.258 108.142">
  <defs>
    <clipPath id="clip-path">
      <circle id="Ellipse_169" data-name="Ellipse 169" cx="43.623" cy="43.623" r="43.623" fill="none"/>
    </clipPath>
  </defs>
  <g id="Group_1204" data-name="Group 1204" transform="translate(-1085.742 -1306.972)">
    <g id="Group_1193" data-name="Group 1193" transform="translate(1135.943 1306.972)">
      <circle id="Ellipse_164" data-name="Ellipse 164" cx="43.623" cy="43.623" r="43.623" transform="translate(0.405 0.405)" fill="#fff"/>
      <path id="Ellipse_164_-_Outline" data-name="Ellipse 164 - Outline" d="M43.528-.5A43.825,43.825,0,0,1,68.145,7.02,44.156,44.156,0,0,1,84.1,26.39a43.971,43.971,0,0,1-4.059,41.755A44.156,44.156,0,0,1,60.666,84.1a43.971,43.971,0,0,1-41.755-4.059A44.156,44.156,0,0,1,2.96,60.666,43.971,43.971,0,0,1,7.02,18.911,44.156,44.156,0,0,1,26.39,2.96,43.753,43.753,0,0,1,43.528-.5Zm0,87.247A43.23,43.23,0,0,0,60.351,3.706,43.23,43.23,0,0,0,26.706,83.351,42.948,42.948,0,0,0,43.528,86.747Z" transform="translate(0.5 0.5)"/>
      <g id="Group_1170" data-name="Group 1170" transform="translate(0.405 0.405)">
        <g id="Group_1169" data-name="Group 1169" clip-path="url(#clip-path)">
          <g id="Group_1168" data-name="Group 1168" transform="translate(-7.582 9.245)">
            <g id="Group_1158" data-name="Group 1158" transform="translate(0 47.819)">
              <path id="Path_1851" data-name="Path 1851" d="M274.414,223.321l-25.627-12.186H223.1l-25.628,12.186s-14.944,5.485-13.721,21.436H288.136C289.636,228.955,274.414,223.321,274.414,223.321Z" transform="translate(-183.219 -183.371)" fill="#202020"/>
              <path id="Path_1851_-_Outline" data-name="Path 1851 - Outline" d="M222.994,210.563h25.685a.462.462,0,0,1,.2.045l25.609,12.178a25.054,25.054,0,0,1,7.559,4.881,20.82,20.82,0,0,1,4.895,6.779,20.3,20.3,0,0,1,1.549,10.247.463.463,0,0,1-.461.419H183.645a.463.463,0,0,1-.462-.428,20.421,20.421,0,0,1,6.547-17.072,24.422,24.422,0,0,1,7.456-4.826l25.609-12.178A.463.463,0,0,1,222.994,210.563Zm25.581.926H223.1l-25.533,12.142-.039.017a23.865,23.865,0,0,0-7.187,4.663,19.454,19.454,0,0,0-6.261,15.875H287.6a19.26,19.26,0,0,0-1.51-9.366,19.9,19.9,0,0,0-4.68-6.477,24.428,24.428,0,0,0-7.268-4.7l-.038-.016Z" transform="translate(-183.111 -183.262)" fill="#202020"/>
              <path id="Path_1852" data-name="Path 1852" d="M256.759,204.731h0v-27.3H230.845v27.3l-6.411,3.049s.506,12.118,19.64,12.377,21.057-11.336,21.057-11.336Z" transform="translate(-190.962 -176.967)" fill="#f5f5f3"/>
              <path id="Path_1852_-_Outline" data-name="Path 1852 - Outline" d="M244.594,220.515h0c-.209,0-.422,0-.633,0a29.9,29.9,0,0,1-11.317-2.08,15.636,15.636,0,0,1-6.03-4.374,11.662,11.662,0,0,1-2.75-6.366.463.463,0,0,1,.264-.438l6.147-2.923V177.321a.463.463,0,0,1,.463-.463h25.914a.463.463,0,0,1,.463.463v27.012l8.112,3.963a.463.463,0,0,1,.254.492,12.078,12.078,0,0,1-3.385,5.919,17.509,17.509,0,0,1-6.318,4.006A31.479,31.479,0,0,1,244.594,220.515ZM224.818,207.95a9.348,9.348,0,0,0,.344,1.535,11.841,11.841,0,0,0,2.2,4.029,14.768,14.768,0,0,0,5.683,4.083,29.05,29.05,0,0,0,10.924,1.988c.207,0,.417,0,.622,0a30.625,30.625,0,0,0,10.808-1.724,16.648,16.648,0,0,0,5.989-3.763,12.723,12.723,0,0,0,2.6-3.754,9.4,9.4,0,0,0,.5-1.382l-8.041-3.928a.463.463,0,0,1-.26-.416V177.784H231.2v26.838a.463.463,0,0,1-.264.418Z" transform="translate(-190.854 -176.858)" fill="#202020"/>
              <path id="Path_1853" data-name="Path 1853" d="M232.589,187.944s2.171,11.012,11.754,12.277c11.029,1.456,13.966-12,13.966-12s-4.873,6.107-12.581,6.116A16.864,16.864,0,0,1,232.589,187.944Z" transform="translate(-192.512 -178.965)" fill="#202020"/>
            </g>
            <g id="Group_1167" data-name="Group 1167" transform="translate(25.353)">
              <path id="Path_1854" data-name="Path 1854" d="M222.53,157.578s.366-5.956-4.343-8.689a6.993,6.993,0,0,1-2.786-9.8,6.867,6.867,0,0,1,1.65-1.9,1.921,1.921,0,0,0,.56-2.252,4.582,4.582,0,0,1,.672-4.428c.936-.982,1.771-2.139,4.772-1.728,3.619.5,2.586-3.485,2.534-6.437-.075-4.281,7.439-7.477,15.127-.222,0,0,1.25,1.791,5.286.66s12.259-3.675,18.122,1.225.1,10.082,2.114,14.04,3.844,7.632-.577,11.024-4.363,10.66-4.363,10.66Z" transform="translate(-214.411 -117.822)" fill="#202020"/>
              <g id="Group_1161" data-name="Group 1161" transform="translate(43.945 36.724)">
                <path id="Path_1855" data-name="Path 1855" d="M270.774,165.522a4.315,4.315,0,0,1,5.351-1.412c3.6,1.366,1.973,10.118-3.432,11.233a4.276,4.276,0,0,1-3.457-.9S270.565,167.976,270.774,165.522Z" transform="translate(-268.773 -163.269)" fill="#f5f5f3"/>
                <path id="Path_1855_-_Outline" data-name="Path 1855 - Outline" d="M274.1,163.16a5.883,5.883,0,0,1,2.082.408A3.22,3.22,0,0,1,278,165.434a6.316,6.316,0,0,1,.379,2.889c-.249,3.126-2.287,6.66-5.7,7.365a4.262,4.262,0,0,1-.838.074,4.54,4.54,0,0,1-3.02-1.082.463.463,0,0,1-.149-.442c.013-.064,1.326-6.465,1.53-8.863a.463.463,0,0,1,.069-.207A4.66,4.66,0,0,1,274.1,163.16Zm-2.256,11.675a3.471,3.471,0,0,0,.645-.054c2.249-.464,4.676-2.857,4.968-6.533a5.4,5.4,0,0,0-.312-2.461,2.29,2.29,0,0,0-1.292-1.353,4.965,4.965,0,0,0-1.754-.348,3.732,3.732,0,0,0-2.982,1.49c-.214,2.258-1.224,7.317-1.479,8.571A3.682,3.682,0,0,0,271.843,174.836Z" transform="translate(-268.664 -163.16)" fill="#202020"/>
                <g id="Group_1160" data-name="Group 1160" transform="translate(1.229 3.583)">
                  <g id="Group_1159" data-name="Group 1159">
                    <path id="Path_1856" data-name="Path 1856" d="M270.429,171.615a.247.247,0,0,1-.223-.355,6.329,6.329,0,0,1,3.536-3.516,3.432,3.432,0,0,1,1.926-.05.247.247,0,0,1-.156.47h0a3.007,3.007,0,0,0-1.659.063,5.726,5.726,0,0,0-3.2,3.248A.247.247,0,0,1,270.429,171.615Z" transform="translate(-270.182 -167.584)" fill="#202020"/>
                  </g>
                  <path id="Path_1857" data-name="Path 1857" d="M273.353,174.156a.247.247,0,0,1-.191-.4,2.393,2.393,0,0,0,.649-1.994,3.575,3.575,0,0,0-1.69-2.027.247.247,0,0,1,.233-.436,4.012,4.012,0,0,1,1.942,2.365,2.858,2.858,0,0,1-.752,2.407A.247.247,0,0,1,273.353,174.156Z" transform="translate(-270.525 -167.903)" fill="#202020"/>
                </g>
              </g>
              <g id="Group_1164" data-name="Group 1164" transform="translate(1.321 36.724)">
                <path id="Path_1858" data-name="Path 1858" d="M223.889,165.522a4.315,4.315,0,0,0-5.351-1.412c-3.6,1.366-1.973,10.118,3.432,11.233a4.276,4.276,0,0,0,3.457-.9S224.1,167.976,223.889,165.522Z" transform="translate(-216.15 -163.269)" fill="#f5f5f3"/>
                <path id="Path_1858_-_Outline" data-name="Path 1858 - Outline" d="M220.348,163.16h0a4.66,4.66,0,0,1,3.825,2.007.462.462,0,0,1,.069.207c.2,2.4,1.517,8.8,1.53,8.863a.463.463,0,0,1-.149.442,4.54,4.54,0,0,1-3.02,1.082,4.261,4.261,0,0,1-.838-.074c-3.412-.706-5.45-4.239-5.7-7.365a6.315,6.315,0,0,1,.379-2.889,3.221,3.221,0,0,1,1.819-1.865A5.884,5.884,0,0,1,220.348,163.16Zm2.983,2.416a3.732,3.732,0,0,0-2.982-1.49h0a4.964,4.964,0,0,0-1.754.348,2.29,2.29,0,0,0-1.292,1.353,5.4,5.4,0,0,0-.312,2.461c.293,3.676,2.719,6.069,4.965,6.532h.005a3.476,3.476,0,0,0,.643.053,3.681,3.681,0,0,0,2.205-.688C224.554,172.894,223.544,167.834,223.33,165.576Z" transform="translate(-216.042 -163.16)" fill="#202020"/>
                <g id="Group_1163" data-name="Group 1163" transform="translate(2.856 3.583)">
                  <g id="Group_1162" data-name="Group 1162">
                    <path id="Path_1859" data-name="Path 1859" d="M224.976,171.615a.247.247,0,0,1-.223-.14,5.727,5.727,0,0,0-3.2-3.248,3.007,3.007,0,0,0-1.659-.063.247.247,0,0,1-.156-.47,3.431,3.431,0,0,1,1.926.05,6.329,6.329,0,0,1,3.536,3.516.247.247,0,0,1-.223.355Z" transform="translate(-219.567 -167.584)" fill="#202020"/>
                  </g>
                  <path id="Path_1860" data-name="Path 1860" d="M222.826,174.156a.247.247,0,0,1-.191-.09,2.859,2.859,0,0,1-.752-2.407,4.012,4.012,0,0,1,1.941-2.365.247.247,0,0,1,.233.436,3.571,3.571,0,0,0-1.689,2.027,2.394,2.394,0,0,0,.649,1.995.247.247,0,0,1-.191.4Z" transform="translate(-219.998 -167.903)" fill="#202020"/>
                </g>
              </g>
              <path id="Path_1861" data-name="Path 1861" d="M262.746,151.292c0,5.276-.516,16.313-3.759,22.864-3.046,6.151-8.082,9.462-14.685,9.658s-11.522-2.348-15.464-10.331-3.754-22.094-3.754-22.094,0-18.846,18.627-18.846C263.329,132.544,262.746,151.292,262.746,151.292Z" transform="translate(-216.439 -120.619)" fill="#f5f5f3"/>
              <path id="Path_1861_-_Outline" data-name="Path 1861 - Outline" d="M243.6,131.972c6.068,0,10.858,1.768,14.238,5.254a17.2,17.2,0,0,1,3.157,4.6,22.574,22.574,0,0,1,2.1,9.368,91.375,91.375,0,0,1-.666,11,38.869,38.869,0,0,1-3.141,12.058,18.022,18.022,0,0,1-6.169,7.244,16.877,16.877,0,0,1-8.917,2.672c-.238.007-.475.011-.706.011a14.955,14.955,0,0,1-8.563-2.36c-2.563-1.708-4.73-4.4-6.624-8.239a30.7,30.7,0,0,1-2.287-6.926,63.061,63.061,0,0,1-1.114-7.274c-.436-4.433-.4-7.963-.4-8.1a20.446,20.446,0,0,1,.3-3.018,24.008,24.008,0,0,1,2.079-6.608A16.9,16.9,0,0,1,232.574,135,19.358,19.358,0,0,1,243.6,131.972Zm-.1,51.281c.222,0,.45,0,.679-.01a15.966,15.966,0,0,0,8.436-2.52,17.113,17.113,0,0,0,5.848-6.881,37.989,37.989,0,0,0,3.052-11.763,90.409,90.409,0,0,0,.659-10.9s0-.01,0-.015a20.756,20.756,0,0,0-.543-4.649,20.51,20.51,0,0,0-1.48-4.32,16.273,16.273,0,0,0-2.983-4.335c-3.2-3.3-7.763-4.967-13.567-4.967a18.454,18.454,0,0,0-10.51,2.866,15.985,15.985,0,0,0-5.374,6.3,23.388,23.388,0,0,0-2.28,9.218s0,0,0,.006c0,.035-.041,3.562.4,8.012.578,5.861,1.722,10.658,3.308,13.87,1.821,3.686,3.884,6.263,6.308,7.878A14.062,14.062,0,0,0,243.5,183.253Z" transform="translate(-216.33 -120.511)" fill="#202020"/>
              <g id="Group_1166" data-name="Group 1166" transform="translate(8.214 29.614)">
                <path id="Path_1862" data-name="Path 1862" d="M246.692,158.22v12a1.433,1.433,0,0,0,.1.531,1.4,1.4,0,0,0,1.674.777l1.446-.385" transform="translate(-228.759 -155.112)" fill="#f5f5f3"/>
                <path id="Path_1862_-_Outline" data-name="Path 1862 - Outline" d="M248,171.835a1.693,1.693,0,0,1-1.591-1.038,1.759,1.759,0,0,1-.126-.655v-12a.333.333,0,1,1,.666,0v12a1.1,1.1,0,0,0,.078.408,1.074,1.074,0,0,0,1.279.578l1.446-.385a.333.333,0,0,1,.171.644l-1.446.385A1.858,1.858,0,0,1,248,171.835Z" transform="translate(-228.681 -155.033)" fill="#202020"/>
                <circle id="Ellipse_165" data-name="Ellipse 165" cx="1.439" cy="1.439" r="1.439" transform="translate(9.041 6.549)" fill="#202020"/>
                <circle id="Ellipse_166" data-name="Ellipse 166" cx="1.439" cy="1.439" r="1.439" transform="translate(25.585 6.549)" fill="#202020"/>
                <path id="Line_31" data-name="Line 31" d="M-.045,2.509a.192.192,0,0,1-.161-.086.192.192,0,0,1,.055-.266L3.429-.206a.192.192,0,0,1,.266.055A.192.192,0,0,1,3.64.115L.061,2.477A.191.191,0,0,1-.045,2.509Z" transform="translate(9.555 9.609)" fill="#202020"/>
                <path id="Line_32" data-name="Line 32" d="M3.121,2.533a.191.191,0,0,1-.116-.039L-.161.108A.192.192,0,0,1-.2-.161.192.192,0,0,1,.071-.2L3.237,2.188a.192.192,0,0,1-.116.346Z" transform="translate(24.802 9.597)" fill="#202020"/>
                <path id="Path_1863" data-name="Path 1863" d="M240.514,177s1.683,1.29,6.109,1.29a15.478,15.478,0,0,0,6.539-1.29" transform="translate(-227.585 -158.68)" fill="#f5f5f3"/>
                <path id="Path_1863_-_Outline" data-name="Path 1863 - Outline" d="M246.545,178.547c-4.487,0-6.239-1.3-6.312-1.358a.333.333,0,0,1,.4-.53h0a5.078,5.078,0,0,0,1.346.61,14.863,14.863,0,0,0,4.562.612,15.264,15.264,0,0,0,6.387-1.253.333.333,0,1,1,.3.593A15.685,15.685,0,0,1,246.545,178.547Z" transform="translate(-227.507 -158.602)" fill="#202020"/>
                <path id="Path_1864" data-name="Path 1864" d="M245.068,181.673a.192.192,0,0,1-.007-.384,20.96,20.96,0,0,0,5.242-.806.192.192,0,0,1,.153.353,20.808,20.808,0,0,1-5.381.837Z" transform="translate(-228.414 -159.339)" fill="#202020"/>
                <path id="Path_1865" data-name="Path 1865" d="M252.278,156.227l11.4,2.945s-.518-3.2-5.182-4.36S252.278,156.227,252.278,156.227Z" transform="translate(-229.82 -154.407)" fill="#202020"/>
                <path id="Path_1866" data-name="Path 1866" d="M241.237,156.227l-11.4,2.945s.518-3.2,5.182-4.36S241.237,156.227,241.237,156.227Z" transform="translate(-225.556 -154.407)" fill="#202020"/>
                <g id="Group_1165" data-name="Group 1165" transform="translate(0 0)">
                  <path id="Ellipse_167" data-name="Ellipse 167" d="M7.139,0A7.139,7.139,0,1,1,0,7.139,7.147,7.147,0,0,1,7.139,0Zm0,13.894A6.755,6.755,0,1,0,.384,7.139,6.763,6.763,0,0,0,7.139,13.894Z" transform="translate(0 5.72) rotate(-22.625)" fill="#202020"/>
                  <path id="Ellipse_168" data-name="Ellipse 168" d="M7.139,0A7.139,7.139,0,1,1,0,7.139,7.147,7.147,0,0,1,7.139,0Zm0,13.894A6.755,6.755,0,1,0,.384,7.139,6.763,6.763,0,0,0,7.139,13.894Z" transform="matrix(0.896, -0.443, 0.443, 0.896, 19.449, 6.327)" fill="#202020"/>
                  <path id="Path_1867" data-name="Path 1867" d="M250.392,166.657a.192.192,0,0,1-.144-.065,3.8,3.8,0,0,0-3.009-1.605,3.711,3.711,0,0,0-2.467,1.583.192.192,0,0,1-.322-.21,4.036,4.036,0,0,1,2.759-1.756,4.148,4.148,0,0,1,3.328,1.734.192.192,0,0,1-.144.319Z" transform="translate(-228.327 -156.323)" fill="#202020"/>
                </g>
              </g>
              <path id="Path_1868" data-name="Path 1868" d="M224.984,159.127s4.936-14.834-.372-23.594l-2,13.974Z" transform="translate(-215.969 -121.187)" fill="#202020"/>
              <path id="Path_1869" data-name="Path 1869" d="M227.956,143.056s2.064-7.985,9.528-3.4c4.456,2.737,14.67,7.88,25.741.652,0,0-6.186-10.178-20.541-10.18C223.939,130.126,227.956,143.056,227.956,143.056Z" transform="translate(-216.916 -120.16)" fill="#202020"/>
            </g>
          </g>
        </g>
      </g>
    </g>
    <g id="Group_1194" data-name="Group 1194" transform="translate(152.742 828.943)">
      <g id="Group_1141" data-name="Group 1141" transform="translate(933 546)">
        <rect id="Rectangle_533" data-name="Rectangle 533" width="78.515" height="40.17" rx="15" fill="#c9f2a0"/>
        <text id="DONE_" data-name="DONE!" transform="translate(39.257 23.694)" fill="#2c1c43" font-size="12" font-family="Inter-Bold, Inter" font-weight="700"><tspan x="-19.089" y="0">DONE!</tspan></text>
      </g>
    </g>
  </g>
</svg>
