<svg xmlns="http://www.w3.org/2000/svg" xmlns:xlink="http://www.w3.org/1999/xlink" width="167.5" height="105.485" viewBox="0 0 167.5 105.485">
  <defs>
    <clipPath id="clip-path">
      <circle id="Ellipse_174" data-name="Ellipse 174" cx="52.257" cy="52.257" r="52.257" fill="none"/>
    </clipPath>
  </defs>
  <g id="Group_1203" data-name="Group 1203" transform="translate(-183.515 -1017)">
    <g id="Group_1191" data-name="Group 1191" transform="translate(183.515 1017)">
      <circle id="Ellipse_170" data-name="Ellipse 170" cx="52.257" cy="52.257" r="52.257" transform="translate(0.485 0.485)" fill="#fff"/>
      <path id="Ellipse_170_-_Outline" data-name="Ellipse 170 - Outline" d="M52.243-.5A52.5,52.5,0,0,1,81.732,8.508a52.9,52.9,0,0,1,19.108,23.2,52.674,52.674,0,0,1-4.863,50.019,52.9,52.9,0,0,1-23.2,19.108,52.674,52.674,0,0,1-50.019-4.863,52.9,52.9,0,0,1-19.108-23.2A52.674,52.674,0,0,1,8.508,22.753a52.9,52.9,0,0,1,23.2-19.108A52.413,52.413,0,0,1,52.243-.5Zm0,104.515A51.786,51.786,0,0,0,72.395,4.539a51.786,51.786,0,0,0-40.3,95.408A51.448,51.448,0,0,0,52.243,104.015Z" transform="translate(0.5 0.5)"/>
      <g id="Group_1186" data-name="Group 1186" transform="translate(0.485 0.485)">
        <g id="Group_1185" data-name="Group 1185" clip-path="url(#clip-path)">
          <g id="Group_1184" data-name="Group 1184" transform="translate(-5.635 9.308)">
            <g id="Group_1175" data-name="Group 1175" transform="translate(0 27.569)">
              <path id="Path_1870" data-name="Path 1870" d="M262.4,373.733H231.96a15.679,15.679,0,0,1-15.678-15.678l4.023-39.572h53.753l4.023,39.572A15.679,15.679,0,0,1,262.4,373.733Z" transform="translate(-189.865 -318.483)" fill="#202020"/>
              <g id="Group_1172" data-name="Group 1172" transform="translate(0 20.88)">
                <path id="Path_1871" data-name="Path 1871" d="M303.241,416.684c1.444-17.856-17.036-26.613-17.036-26.613l-27.733-15.13V340.594H234.511v34.347l-27.737,15.13s-18.552,8.183-17.036,26.613" transform="translate(-189.075 -340.019)" fill="#f5f5f3"/>
                <path id="Path_1871_-_Outline" data-name="Path 1871 - Outline" d="M189.147,416.714a24.359,24.359,0,0,1,2.072-12.219,28.19,28.19,0,0,1,6.049-8.458,34.843,34.843,0,0,1,9.234-6.5l27.418-14.956V340.576a.575.575,0,0,1,.575-.575h23.962a.575.575,0,0,1,.575.575v34.006l27.419,14.959a36.959,36.959,0,0,1,9.2,6.715,29.279,29.279,0,0,1,6.041,8.479,23.781,23.781,0,0,1,2.1,11.977l-1.146-.093a22.645,22.645,0,0,0-1.994-11.386,28.109,28.109,0,0,0-5.79-8.137,36.43,36.43,0,0,0-8.925-6.524l-.029-.015-27.733-15.13a.575.575,0,0,1-.3-.5V341.151H235.068v33.772a.575.575,0,0,1-.3.5l-27.737,15.13-.043.021a34.24,34.24,0,0,0-8.944,6.307,27.02,27.02,0,0,0-5.788,8.1,23.223,23.223,0,0,0-1.963,11.628Z" transform="translate(-189.057 -340.002)" fill="#202020"/>
                <path id="Path_1872" data-name="Path 1872" d="M235.883,355.918s1.983,10.756,11.41,10.951c12.375.256,12.172-10.473,12.172-10.473s-1.687,3.155-11.257,3.167C237.536,359.577,235.883,355.918,235.883,355.918Z" transform="translate(-190.447 -340.474)" fill="#202020"/>
              </g>
              <g id="Group_1173" data-name="Group 1173" transform="translate(31.81 55.227)">
                <path id="Path_1873" data-name="Path 1873" d="M226.554,417.821l-4.7-25.518a.575.575,0,0,1,.117-.465l13.051-16.225a.575.575,0,0,1,1.023.36v41.743h-1.15V377.607l-11.863,14.748,4.657,25.258Z" transform="translate(-221.84 -375.4)" fill="#202020"/>
                <path id="Path_1874" data-name="Path 1874" d="M269.473,417.822l-1.131-.208L273,392.355l-11.863-14.748v40.111h-1.15V375.975a.575.575,0,0,1,1.023-.36l13.052,16.225a.575.575,0,0,1,.117.464Z" transform="translate(-222.973 -375.4)" fill="#202020"/>
              </g>
              <g id="Group_1174" data-name="Group 1174" transform="translate(45.042 59.013)">
                <path id="Path_1875" data-name="Path 1875" d="M235.883,379.8s9.589,9,23.962,0" transform="translate(-235.49 -379.316)" fill="#f5f5f3"/>
                <path id="Path_1875_-_Outline" data-name="Path 1875 - Outline" d="M247.232,384.362a18.945,18.945,0,0,1-4.919-.644,17.073,17.073,0,0,1-6.835-3.51l.786-.839a16.26,16.26,0,0,0,6.4,3.254,18.152,18.152,0,0,0,7.315.387,24.914,24.914,0,0,0,9.546-3.709l.61.975a26.026,26.026,0,0,1-10.031,3.878A20.111,20.111,0,0,1,247.232,384.362Z" transform="translate(-235.478 -379.301)" fill="#202020"/>
                <path id="Path_1876" data-name="Path 1876" d="M235.883,385.051s9.589,9,23.962,0" transform="translate(-235.49 -379.471)" fill="#f5f5f3"/>
                <path id="Path_1876_-_Outline" data-name="Path 1876 - Outline" d="M247.232,389.61a18.94,18.94,0,0,1-4.919-.645,17.072,17.072,0,0,1-6.836-3.51l.786-.839a16.258,16.258,0,0,0,6.4,3.254,18.152,18.152,0,0,0,7.315.387,24.911,24.911,0,0,0,9.546-3.709l.61.975a26.02,26.02,0,0,1-10.031,3.878A20.111,20.111,0,0,1,247.232,389.61Z" transform="translate(-235.478 -379.457)" fill="#202020"/>
              </g>
            </g>
            <g id="Group_1183" data-name="Group 1183" transform="translate(26.14)">
              <ellipse id="Ellipse_171" data-name="Ellipse 171" cx="26.876" cy="27.569" rx="26.876" ry="27.569" transform="translate(4.299)" fill="#202020"/>
              <g id="Group_1178" data-name="Group 1178" transform="translate(52.19 35.132)">
                <path id="Path_1877" data-name="Path 1877" d="M272.016,328.788a4.778,4.778,0,0,1,5.926-1.563c3.992,1.514,2.186,11.207-3.8,12.442a4.738,4.738,0,0,1-3.829-1S271.784,331.506,272.016,328.788Z" transform="translate(-269.799 -326.293)" fill="#f5f5f3"/>
                <path id="Path_1877_-_Outline" data-name="Path 1877 - Outline" d="M275.8,326.277a6.514,6.514,0,0,1,2.307.453,3.568,3.568,0,0,1,2.015,2.066,7,7,0,0,1,.42,3.2c-.276,3.463-2.532,7.377-6.312,8.158a4.727,4.727,0,0,1-.926.082,5.029,5.029,0,0,1-3.345-1.2.513.513,0,0,1-.165-.49c.015-.071,1.469-7.161,1.7-9.818a.513.513,0,0,1,.077-.229A5.16,5.16,0,0,1,275.8,326.277Zm-2.5,12.932a3.852,3.852,0,0,0,.713-.059c2.491-.514,5.178-3.164,5.5-7.236.133-1.667-.264-3.652-1.776-4.226a5.5,5.5,0,0,0-1.943-.386,4.16,4.16,0,0,0-3.3,1.651c-.237,2.5-1.356,8.1-1.638,9.493A4.08,4.08,0,0,0,273.3,339.21Z" transform="translate(-269.783 -326.277)" fill="#202020"/>
                <g id="Group_1177" data-name="Group 1177" transform="translate(1.361 3.969)">
                  <g id="Group_1176" data-name="Group 1176">
                    <path id="Path_1878" data-name="Path 1878" d="M271.459,334.832a.274.274,0,0,1-.247-.393c.7-1.454,1.949-3.309,3.917-3.894a3.8,3.8,0,0,1,2.133-.055.274.274,0,0,1-.172.52,3.332,3.332,0,0,0-1.837.07,6.342,6.342,0,0,0-3.547,3.6A.274.274,0,0,1,271.459,334.832Z" transform="translate(-271.186 -330.368)" fill="#202020"/>
                  </g>
                  <path id="Path_1879" data-name="Path 1879" d="M274.368,337.34a.274.274,0,0,1-.211-.448,2.651,2.651,0,0,0,.719-2.209A3.959,3.959,0,0,0,273,332.437a.274.274,0,0,1,.259-.483,4.445,4.445,0,0,1,2.15,2.62,3.166,3.166,0,0,1-.833,2.666A.274.274,0,0,1,274.368,337.34Z" transform="translate(-271.235 -330.414)" fill="#202020"/>
                </g>
              </g>
              <g id="Group_1181" data-name="Group 1181" transform="translate(0 35.132)">
                <path id="Path_1880" data-name="Path 1880" d="M224.585,328.788a4.779,4.779,0,0,0-5.927-1.563c-3.991,1.514-2.185,11.207,3.8,12.442a4.738,4.738,0,0,0,3.829-1S224.816,331.506,224.585,328.788Z" transform="translate(-216.013 -326.293)" fill="#f5f5f3"/>
                <path id="Path_1880_-_Outline" data-name="Path 1880 - Outline" d="M220.767,326.277h0A5.161,5.161,0,0,1,225,328.5a.513.513,0,0,1,.077.229c.227,2.657,1.681,9.747,1.7,9.818a.513.513,0,0,1-.165.49,5.029,5.029,0,0,1-3.345,1.2,4.738,4.738,0,0,1-.926-.082c-3.779-.781-6.036-4.695-6.312-8.158a7,7,0,0,1,.42-3.2,3.567,3.567,0,0,1,2.015-2.066A6.515,6.515,0,0,1,220.767,326.277Zm3.3,2.676a4.133,4.133,0,0,0-3.3-1.65h0a5.5,5.5,0,0,0-1.943.386c-1.512.573-1.908,2.559-1.776,4.225.246,3.082,2.213,6.557,5.5,7.235h.006a3.847,3.847,0,0,0,.712.059,4.079,4.079,0,0,0,2.443-.762C225.426,337.058,224.307,331.454,224.07,328.953Z" transform="translate(-215.997 -326.277)" fill="#202020"/>
                <g id="Group_1180" data-name="Group 1180" transform="translate(3.163 3.969)">
                  <g id="Group_1179" data-name="Group 1179">
                    <path id="Path_1881" data-name="Path 1881" d="M225.248,334.832a.274.274,0,0,1-.247-.155,6.343,6.343,0,0,0-3.547-3.6,3.333,3.333,0,0,0-1.837-.07.274.274,0,0,1-.172-.52,3.8,3.8,0,0,1,2.133.055c1.968.585,3.217,2.44,3.917,3.894a.274.274,0,0,1-.247.393Z" transform="translate(-219.257 -330.368)" fill="#202020"/>
                  </g>
                  <path id="Path_1882" data-name="Path 1882" d="M222.452,337.34a.273.273,0,0,1-.212-.1,3.166,3.166,0,0,1-.833-2.666,4.445,4.445,0,0,1,2.151-2.62.274.274,0,0,1,.259.483h0a3.96,3.96,0,0,0-1.872,2.246,2.65,2.65,0,0,0,.719,2.209.274.274,0,0,1-.212.448Z" transform="translate(-219.319 -330.414)" fill="#202020"/>
                </g>
              </g>
              <path id="Path_1883" data-name="Path 1883" d="M271.026,319.566c0,6.212-.64,19.208-4.667,26.922a20.131,20.131,0,0,1-18.231,11.373c-8.2.232-14.305-2.765-19.2-12.165s-4.66-26.014-4.66-26.014,0-22.191,23.126-22.191C271.749,297.49,271.026,319.566,271.026,319.566Z" transform="translate(-216.243 -290.291)" fill="#f5f5f3"/>
              <path id="Path_1883_-_Outline" data-name="Path 1883 - Outline" d="M247.375,296.913c7.753,0,13.818,2.205,18.027,6.554a20.477,20.477,0,0,1,3.7,5.348,24.632,24.632,0,0,1,1.811,5.207,23.782,23.782,0,0,1,.653,5.535,102.167,102.167,0,0,1-.828,12.963c-.8,6-2.111,10.776-3.9,14.209A20.689,20.689,0,0,1,248.126,358.4c-.295.008-.59.013-.876.013a19.286,19.286,0,0,1-10.611-2.775c-3.181-2.01-5.872-5.185-8.225-9.7a34.9,34.9,0,0,1-2.842-8.162,70.732,70.732,0,0,1-1.384-8.57,91.571,91.571,0,0,1-.5-9.544,22.92,22.92,0,0,1,.37-3.56,27.25,27.25,0,0,1,2.584-7.791,20.237,20.237,0,0,1,7.06-7.841A24.979,24.979,0,0,1,247.375,296.913ZM247.25,357.3c.276,0,.56,0,.845-.012a19.573,19.573,0,0,0,17.751-11.073c1.732-3.317,3.006-7.973,3.786-13.838a101.015,101.015,0,0,0,.818-12.824c0-.006,0-.012,0-.019a23.056,23.056,0,0,0-.633-5.295,23.5,23.5,0,0,0-1.732-4.959,19.349,19.349,0,0,0-3.495-5.039c-3.989-4.117-9.781-6.2-17.214-6.2a23.886,23.886,0,0,0-13.068,3.379,19.13,19.13,0,0,0-6.671,7.415,26.305,26.305,0,0,0-2.827,10.837s0,.005,0,.008a90.206,90.206,0,0,0,.493,9.43c.717,6.9,2.136,12.539,4.1,16.318,2.259,4.339,4.82,7.372,7.83,9.274A18.206,18.206,0,0,0,247.25,357.3Z" transform="translate(-216.226 -290.274)" fill="#202020"/>
              <g id="Group_1182" data-name="Group 1182" transform="translate(13.69 26.577)">
                <path id="Path_1884" data-name="Path 1884" d="M246.662,330.65v4.224a1.779,1.779,0,0,0,.126.66,1.743,1.743,0,0,0,2.078.964l1.369-.364" transform="translate(-230.598 -317.852)" fill="#f5f5f3"/>
                <path id="Path_1884_-_Outline" data-name="Path 1884 - Outline" d="M248.367,336.962a2.1,2.1,0,0,1-1.975-1.288,2.189,2.189,0,0,1-.156-.814v-4.224a.414.414,0,1,1,.827,0v4.224a1.365,1.365,0,0,0,.1.507,1.334,1.334,0,0,0,1.588.717l1.369-.364a.414.414,0,0,1,.212.8l-1.369.364A2.306,2.306,0,0,1,248.367,336.962Z" transform="translate(-230.585 -317.839)" fill="#202020"/>
                <circle id="Ellipse_172" data-name="Ellipse 172" cx="1.787" cy="1.787" r="1.787" transform="translate(5.024 7.4)" fill="#202020"/>
                <circle id="Ellipse_173" data-name="Ellipse 173" cx="1.787" cy="1.787" r="1.787" transform="translate(25.563 7.4)" fill="#202020"/>
                <path id="Line_33" data-name="Line 33" d="M-.007,3.164a.238.238,0,0,1-.2-.107.239.239,0,0,1,.068-.331L4.305-.206a.239.239,0,0,1,.331.068.239.239,0,0,1-.068.331L.124,3.124A.238.238,0,0,1-.007,3.164Z" transform="translate(5.613 11.15)" fill="#202020"/>
                <path id="Line_34" data-name="Line 34" d="M3.924,3.194a.238.238,0,0,1-.143-.048L-.151.183A.239.239,0,0,1-.2-.151.239.239,0,0,1,.136-.2L4.068,2.765a.239.239,0,0,1-.144.429Z" transform="translate(24.543 11.135)" fill="#202020"/>
                <path id="Path_1885" data-name="Path 1885" d="M240.258,340.945s2.09,1.6,7.585,1.6a19.215,19.215,0,0,0,8.119-1.6" transform="translate(-230.407 -318.158)" fill="#f5f5f3"/>
                <path id="Path_1885_-_Outline" data-name="Path 1885 - Outline" d="M247.83,342.947c-5.571,0-7.747-1.617-7.836-1.686a.414.414,0,0,1,.5-.658,6.319,6.319,0,0,0,1.671.757,18.457,18.457,0,0,0,5.664.76,21.474,21.474,0,0,0,5.793-.777,13,13,0,0,0,2.137-.779.414.414,0,0,1,.377.736A19.473,19.473,0,0,1,247.83,342.947Z" transform="translate(-230.395 -318.145)" fill="#202020"/>
                <path id="Path_1886" data-name="Path 1886" d="M246.053,346.033a.239.239,0,0,1-.015-.477,16.131,16.131,0,0,0,4.5-1,.239.239,0,0,1,.19.438,16.3,16.3,0,0,1-4.662,1.039Z" transform="translate(-230.572 -318.264)" fill="#202020"/>
                <path id="Path_1887" data-name="Path 1887" d="M242.789,319.37l-12.683,3.276s.576-3.557,5.765-4.85S242.789,319.37,242.789,319.37Z" transform="translate(-230.106 -317.461)" fill="#202020"/>
                <path id="Path_1888" data-name="Path 1888" d="M251.484,319.37l12.684,3.276s-.577-3.557-5.766-4.85S251.484,319.37,251.484,319.37Z" transform="translate(-230.741 -317.461)" fill="#202020"/>
              </g>
              <path id="Path_1889" data-name="Path 1889" d="M269.971,309.221a12.677,12.677,0,0,0-.625,1.3c-1.2-3.9-3.477-8.4-7.771-10.847-6.653-4.639-17.157-4.587-17.157-4.587-12.566,2.262-16.993,9.463-18.461,15.344a12.786,12.786,0,0,0-.585-1.207s-3.943,12.542-.582,18.626a29.346,29.346,0,0,0,2.343-12.134c2.132-2.927,6.655-6.672,15.458-5.229,9.7,1.59,14.713-1.572,17.273-4.782a17.421,17.421,0,0,0,8.318,10.779,29.81,29.81,0,0,0,2.371,11.365C273.915,321.763,269.971,309.221,269.971,309.221Z" transform="translate(-216.218 -290.22)" fill="#202020"/>
            </g>
          </g>
        </g>
      </g>
    </g>
    <g id="Group_1192" data-name="Group 1192" transform="translate(-660.5 523.743)">
      <g id="Group_1141" data-name="Group 1141" transform="translate(933 546)">
        <rect id="Rectangle_533" data-name="Rectangle 533" width="78.515" height="40.17" rx="15" fill="#c9f2a0"/>
        <text id="DONE_" data-name="DONE!" transform="translate(39.257 23.694)" fill="#2c1c43" font-size="12" font-family="Inter-Bold, Inter" font-weight="700"><tspan x="-19.089" y="0">DONE!</tspan></text>
      </g>
    </g>
  </g>
</svg>
