<svg xmlns="http://www.w3.org/2000/svg" width="45.596" height="45.596" viewBox="0 0 45.596 45.596">
  <g id="Group_1195" data-name="Group 1195" transform="translate(-205.698 -174.686)" opacity="0.345">
    <path id="Path_1545" data-name="Path 1545" d="M1496.973,515.045a20.8,20.8,0,0,1-20.773-20.773c0-12.229,8.544-20.773,20.773-20.773a20.8,20.8,0,0,1,20.772,20.773C1517.745,506.314,1509.014,515.045,1496.973,515.045Zm0-39.463c-11,0-18.69,7.69-18.69,18.69a18.71,18.71,0,0,0,18.69,18.69c10.84,0,18.69-7.85,18.69-18.69A18.71,18.71,0,0,0,1496.973,475.582Z" transform="translate(-1268.476 -296.789)" fill="#fff"/>
    <path id="Path_1545_-_Outline" data-name="Path 1545 - Outline" d="M1497.5,517.6a22.824,22.824,0,0,1-22.8-22.8,24.853,24.853,0,0,1,1.667-9.146,20.96,20.96,0,0,1,11.985-11.985A24.861,24.861,0,0,1,1497.5,472a22.8,22.8,0,1,1,0,45.6Zm0-39.463a18.538,18.538,0,0,0-6.819,1.233,15.021,15.021,0,0,0-8.613,8.613,18.535,18.535,0,0,0-1.233,6.819,16.684,16.684,0,0,0,16.665,16.665,18.042,18.042,0,0,0,6.74-1.251,15.4,15.4,0,0,0,8.673-8.673,18.036,18.036,0,0,0,1.251-6.741A16.684,16.684,0,0,0,1497.5,478.133Z" transform="translate(-1269.002 -297.314)" fill="#fff" opacity="0.998"/>
    <path id="Path_1546" data-name="Path 1546" d="M1537.543,509.524c-3.684,5.367-7.849,10.92-9.906,17.168-2.216-2.643-4.3-5.393-6.514-8.037-.881-1.015-2.35.454-1.469,1.469,2.617,3.1,5.02,6.381,7.69,9.452a1.049,1.049,0,0,0,1.735-.454c1.709-6.862,6.355-12.843,10.28-18.556C1540.106,509.471,1538.291,508.429,1537.543,509.524Z" transform="translate(-1300.13 -321.504)" fill="#fff"/>
    <path id="Path_1546_-_Outline" data-name="Path 1546 - Outline" d="M1538.932,507.559h0a3.211,3.211,0,0,1,2.822,1.672,2.868,2.868,0,0,1-.2,3c-.521.758-1.06,1.529-1.58,2.274-3.448,4.93-7.012,10.029-8.406,15.63l-.005.019a3.12,3.12,0,0,1-3.006,2.276,2.932,2.932,0,0,1-2.223-1.006c-1.485-1.708-2.9-3.5-4.271-5.227-1.112-1.4-2.262-2.857-3.425-4.234a3.06,3.06,0,0,1-.474-3.3,3.108,3.108,0,0,1,2.794-1.853,2.913,2.913,0,0,1,2.218,1.039l.022.027c1.125,1.341,2.226,2.723,3.291,4.058q.517.65,1.047,1.311a78.507,78.507,0,0,1,7.534-12.427c.438-.631.892-1.284,1.328-1.919A3.03,3.03,0,0,1,1538.932,507.559Z" transform="translate(-1300.656 -322.029)" fill="#fff"/>
  </g>
</svg>
