<svg xmlns="http://www.w3.org/2000/svg" width="316.891" height="256.4" viewBox="0 0 316.891 256.4">
  <g id="file1" transform="translate(-269.4 -351.7)">
    <g id="Objects" transform="translate(269.4 380.235)">
      <path id="Path_808" data-name="Path 808" d="M385.7,1017.818c0,26.261-14.317,45.541-34.823,53.768a62.727,62.727,0,0,1-22.049,4.37c-.415.02-.85.02-1.266.02a58.16,58.16,0,0,1-58.158-58.138,61.758,61.758,0,0,1,7.87-30.868,49.056,49.056,0,0,1,4.509-6.644l2-2.373.079-.1c10.046-11.193,24.956-18.153,43.7-18.153A58.063,58.063,0,0,1,385.7,1017.818Z" transform="translate(-269.4 -868.004)" fill="#ffcb56"/>
      <path id="Path_809" data-name="Path 809" d="M1220.154,550.538l-8.879,8.859L1172.2,520.283a58.7,58.7,0,0,1,5.082-7.495l2.254-2.689.1-.1Z" transform="translate(-993.673 -507.232)" fill="#ff3857"/>
      <path id="Path_810" data-name="Path 810" d="M513.861,790.276a77.572,77.572,0,0,1-5.636-6.822c-.573-.791-1.918-.02-1.325.771a75.06,75.06,0,0,0,5.873,7.139C513.445,792.115,514.533,791.008,513.861,790.276Z" transform="translate(-459.816 -726.344)" fill="#f674b4"/>
      <path id="Path_811" data-name="Path 811" d="M612.9,655.031v4.113a.772.772,0,0,0,1.542,0v-4.113A.771.771,0,0,0,612.9,655.031Z" transform="translate(-544.974 -622.977)" fill="#f674b4"/>
      <path id="Path_812" data-name="Path 812" d="M1472.4,1172.31l8.483-2.61-2.452,8.76Z" transform="translate(-1234.51 -1036.477)" fill="#ffcf58"/>
      <path id="Path_813" data-name="Path 813" d="M1333.606,853.9l-6.506,5.042,6.506,5.438,5.853-5.438Z" transform="translate(-1117.942 -783.126)" fill="#7baeed"/>
      <path id="Path_814" data-name="Path 814" d="M1382.939,1295.8c-1.5-1.384-3.144-2.591-4.509-4.113-.672-.752-1.76.356-1.088,1.088,1.365,1.523,3.026,2.729,4.509,4.113C1382.583,1297.575,1383.67,1296.468,1382.939,1295.8Z" transform="translate(-1158.079 -1134.137)" fill="#ffcf58"/>
      <path id="Path_815" data-name="Path 815" d="M352.2,496v10.935l11.252-8.345Z" transform="translate(-335.827 -496)" fill="#7baeed"/>
    </g>
    <g id="Lens" transform="translate(404.841 351.7)">
      <g id="Markers" transform="translate(100.887 24.086)">
        <path id="Path_816" data-name="Path 816" d="M1491.585,504.27a15.4,15.4,0,0,1-15.385-15.385c0-9.057,6.328-15.385,15.385-15.385a15.4,15.4,0,0,1,15.385,15.385C1506.969,497.8,1500.5,504.27,1491.585,504.27Zm0-29.227c-8.147,0-13.842,5.7-13.842,13.842a13.858,13.858,0,0,0,13.842,13.842,13.379,13.379,0,0,0,13.842-13.842A13.858,13.858,0,0,0,1491.585,475.042Z" transform="translate(-1473.886 -473.5)" fill="#000200"/>
        <path id="Path_817" data-name="Path 817" d="M1480.549,962.746a.778.778,0,0,1-.573-.257,15.4,15.4,0,0,1-3.876-10.2c0-9.057,6.328-15.385,15.385-15.385a15.4,15.4,0,0,1,15.385,15.385,16.735,16.735,0,0,1-.732,5,.8.8,0,0,1-.455.494,71.287,71.287,0,0,1-25.134,4.964Zm10.955-24.3c-8.147,0-13.842,5.7-13.842,13.842a13.859,13.859,0,0,0,3.243,8.918,69.143,69.143,0,0,0,23.888-4.726,15.329,15.329,0,0,0,.554-4.192A13.857,13.857,0,0,0,1491.5,938.442Zm13.921,18.608Z" transform="translate(-1473.806 -845.264)" fill="#000200"/>
        <path id="Path_818" data-name="Path 818" d="M1486.687,707.294a22.1,22.1,0,0,1-19.775-12.1.778.778,0,1,1,1.384-.712,20.584,20.584,0,0,0,18.391,11.252c11.964,0,20.645-8.681,20.645-20.645a20.66,20.66,0,0,0-20.645-20.645c-12.161,0-20.645,8.483-20.645,20.645a.771.771,0,1,1-1.542,0c0-13.071,9.116-22.187,22.187-22.187a22.2,22.2,0,0,1,22.187,22.187C1508.875,697.961,1499.541,707.294,1486.687,707.294Z" transform="translate(-1464.5 -625.447)" fill="#000200"/>
        <path id="Path_819" data-name="Path 819" d="M1532.833,509.4c-2.729,3.975-5.814,8.088-7.336,12.715-1.641-1.958-3.184-3.995-4.825-5.952-.653-.751-1.74.336-1.088,1.088,1.938,2.294,3.718,4.726,5.7,7a.777.777,0,0,0,1.285-.336c1.266-5.082,4.706-9.512,7.613-13.743C1534.731,509.364,1533.386,508.593,1532.833,509.4Z" transform="translate(-1508.53 -502.028)" fill="#000200"/>
        <path id="Path_820" data-name="Path 820" d="M1531.643,995.553c-1.819,2.709-3.441,5.557-5.5,8.108-1.226-1.048-2.136-2.393-3.342-3.48-.732-.672-1.819.415-1.088,1.088,1.463,1.325,2.551,2.986,4.153,4.153a.776.776,0,0,0,.929-.119,96.2,96.2,0,0,0,6.17-8.978C1533.521,995.494,1532.2,994.722,1531.643,995.553Z" transform="translate(-1510.207 -892.032)" fill="#000200"/>
        <path id="Path_821" data-name="Path 821" d="M1568.6,696.392v19.854a.772.772,0,0,0,1.542,0V696.392A.772.772,0,0,0,1568.6,696.392Z" transform="translate(-1548.014 -651.72)" fill="#000200"/>
        <path id="Path_822" data-name="Path 822" d="M1569.216,821.813c.158-.732.3-1.483.4-2.215.138-.969-1.365-1.305-1.5-.316-.1.751-.237,1.483-.4,2.215A.768.768,0,0,0,1569.216,821.813Z" transform="translate(-1547.286 -750.426)" fill="#000200"/>
      </g>
      <g id="Text" transform="translate(41.128 39.53)">
        <path id="Path_823" data-name="Path 823" d="M1270.343,949.342h-30.572a.771.771,0,0,1,0-1.542h30.572a.771.771,0,1,1,0,1.542Z" transform="translate(-1223.833 -869.452)" fill="#000200"/>
        <path id="Path_824" data-name="Path 824" d="M1310.857,553.142h-20.586a.771.771,0,1,1,0-1.542h20.586a.76.76,0,0,1,.771.771A.772.772,0,0,1,1310.857,553.142Z" transform="translate(-1264.346 -551.6)" fill="#000200"/>
        <path id="Path_825" data-name="Path 825" d="M1211.559,777.8H1162.3q.178.771.3,1.542h48.982a.76.76,0,0,0,.771-.771A.817.817,0,0,0,1211.559,777.8Z" transform="translate(-1162.3 -733.069)" fill="#000200"/>
      </g>
      <g id="Lens_1_" transform="translate(0 0)">
        <path id="Path_826" data-name="Path 826" d="M1186.063,502.206a75.375,75.375,0,0,1-43.8-14.04,75.487,75.487,0,0,1-31.462-61.2c0-44.315,30.948-75.263,75.263-75.263a75.335,75.335,0,0,1,75.243,75.263C1261.306,470.566,1229.646,502.206,1186.063,502.206Zm0-148.964c-43.406,0-73.72,30.315-73.72,73.72a73.728,73.728,0,0,0,47.7,68.974,73.083,73.083,0,0,0,26.024,4.726c42.714,0,73.7-30.987,73.7-73.7A73.79,73.79,0,0,0,1186.063,353.242Z" transform="translate(-1079.856 -351.7)" fill="#000200"/>
        <path id="Path_827" data-name="Path 827" d="M1222.245,529.549a66.414,66.414,0,0,1-66.344-66.325,70.5,70.5,0,0,1,8.978-35.179,58.869,58.869,0,0,1,5.142-7.594l2.274-2.709s.1-.119.119-.119c12.161-13.565,29.405-20.724,49.833-20.724a66.414,66.414,0,0,1,66.325,66.344c0,28.436-14.851,51.355-39.728,61.322a71.036,71.036,0,0,1-25.134,4.983Zm0-131.127c-19.992,0-36.821,6.98-48.686,20.21l-2.333,2.768a57.79,57.79,0,0,0-5,7.4,69.137,69.137,0,0,0-8.78,34.428,64.87,64.87,0,0,0,64.8,64.782c.474,0,.949,0,1.4-.02a69.343,69.343,0,0,0,24.6-4.865c24.264-9.729,38.759-32.114,38.759-59.9A64.853,64.853,0,0,0,1222.245,398.423Z" transform="translate(-1116.038 -387.962)" fill="#000200"/>
        <path id="Path_828" data-name="Path 828" d="M966.99,1524.815a.712.712,0,0,1-.4-.119l-11.9-7.3a.77.77,0,0,1-.277-1.028l11.984-21.594a.77.77,0,0,1,1.345.751l-11.628,20.942,10.6,6.506,14.515-23.888a.777.777,0,0,1,1.325.811l-14.91,24.56a.789.789,0,0,1-.475.356Z" transform="translate(-954.318 -1268.416)" fill="#000200"/>
        <path id="Path_829" data-name="Path 829" d="M1163.51,1144.73a.713.713,0,0,1-.4-.119.788.788,0,0,1-.257-1.068l37.928-62.429a.777.777,0,0,1,1.325.811l-37.928,62.429A.822.822,0,0,1,1163.51,1144.73Z" transform="translate(-1121.531 -936.58)" fill="#000200"/>
        <path id="Path_830" data-name="Path 830" d="M1094.953,1098.633a.885.885,0,0,1-.376-.1.755.755,0,0,1-.3-1.048l34.428-62.409a.77.77,0,1,1,1.345.751l-34.428,62.409A.772.772,0,0,1,1094.953,1098.633Z" transform="translate(-1066.52 -899.62)" fill="#000200"/>
        <path id="Path_831" data-name="Path 831" d="M1115.558,1173.419a.713.713,0,0,1-.4-.119.788.788,0,0,1-.257-1.068l28.179-46.411c-5.1-2.61-10.224-5.141-15.246-7.534l-23.413,42.417a.77.77,0,1,1-1.345-.751l23.769-43.05a.767.767,0,0,1,1.008-.316c5.5,2.59,11.114,5.359,16.69,8.246a.782.782,0,0,1,.4.475.829.829,0,0,1-.079.613l-28.634,47.123A.821.821,0,0,1,1115.558,1173.419Z" transform="translate(-1073.58 -965.269)" fill="#000200"/>
        <path id="Path_832" data-name="Path 832" d="M983.645,1518.843a.816.816,0,0,1-.376-.1l-12.339-7.119a.8.8,0,0,1-.3-1.048l8.8-15.8a.77.77,0,1,1,1.345.751l-8.424,15.147,11.015,6.348,10.9-17.936a.777.777,0,0,1,1.325.811L984.3,1518.487A.79.79,0,0,1,983.645,1518.843Z" transform="translate(-967.334 -1268.415)" fill="#000200"/>
      </g>
      <g id="Pencil" transform="translate(48.737 29.425)">
        <path id="Path_833" data-name="Path 833" d="M1240.627,551.4a.85.85,0,0,1-.554-.218L1201,512.068a.776.776,0,0,1-.119-.929,58.854,58.854,0,0,1,5.141-7.594l2.274-2.709a1.053,1.053,0,0,1,.613-.336.887.887,0,0,1,.633.178l40.538,40.538a.777.777,0,0,1,.218.554.85.85,0,0,1-.218.554l-8.879,8.859A.943.943,0,0,1,1240.627,551.4Zm-38.126-40,38.126,38.126,7.791-7.771-39.391-39.372-1.8,2.155A56.315,56.315,0,0,0,1202.5,511.4Z" transform="translate(-1200.777 -500.5)" fill="#000200"/>
        <path id="Path_834" data-name="Path 834" d="M1418.179,724.979l-4.647-12.379-7.732,7.732Z" transform="translate(-1365.257 -670.658)" fill="#000200"/>
        <path id="Path_835" data-name="Path 835" d="M1415.083,722.661a1.338,1.338,0,0,1-.277-.04l-12.379-4.647a.748.748,0,0,1-.475-.554.8.8,0,0,1,.218-.712l7.732-7.732a.842.842,0,0,1,.712-.217.753.753,0,0,1,.554.474l4.647,12.379a.786.786,0,0,1-.732,1.048Zm-10.995-5.715,9.67,3.619-3.619-9.67Z" transform="translate(-1362.162 -667.569)" fill="#000200"/>
      </g>
    </g>
    <g id="Man" transform="translate(284.995 397.727)">
      <g id="Hand" transform="translate(0 66.927)">
        <path id="Path_836" data-name="Path 836" d="M495.117,1041.786c-3.975,0-9.433-1.6-16.769-6.565-8.048-5.438-10.8-5.26-22.365-4.548-6.9.435-16.354,1.009-31.561.751-49.654-.89-74.551-14.554-76.074-41.784-1.74-31.244,23.117-47.361,41.982-56.773,18.628-9.294,51.731-9.966,52.047-9.966a.773.773,0,0,1,.791.751.786.786,0,0,1-.751.791c-.336,0-33.083.672-51.395,9.808-18.47,9.215-42.812,24.976-41.132,55.31,1.463,26.261,25.865,39.451,74.551,40.321,15.167.277,24.58-.316,31.442-.751,11.41-.712,14.851-.929,23.334,4.805,13.645,9.215,20.071,6.308,22.682,3.757a.769.769,0,0,1,1.068,1.107A10.8,10.8,0,0,1,495.117,1041.786Z" transform="translate(-348.262 -922.9)" fill="#000200"/>
        <path id="Path_837" data-name="Path 837" d="M658.363,1188.994a.829.829,0,0,1-.415-.119c-5.082-3.2-28.772-3.737-51.672-4.232-18.035-.4-36.662-.811-47.123-2.531-9.136-1.5-14.06-5.952-13.17-11.924,1.008-6.822,10.065-14.02,19.794-12.715a.77.77,0,0,1,.672.771,24.623,24.623,0,0,1-8.464,17.263.771.771,0,0,1-1.008-1.167,23.584,23.584,0,0,0,7.89-15.424c-8.642-.751-16.453,5.517-17.342,11.489-.751,5.082,3.579,8.8,11.9,10.164,10.342,1.7,28.931,2.116,46.906,2.511,24.165.534,47,1.028,52.462,4.469a.773.773,0,0,1,.237,1.068A.8.8,0,0,1,658.363,1188.994Z" transform="translate(-506.801 -1110.963)" fill="#000200"/>
        <path id="Path_838" data-name="Path 838" d="M420.088,1128.275a.769.769,0,0,1-.712-.495c-3.065-7.989-18.153-18.746-31.936-16.69a.769.769,0,1,1-.218-1.523c14.712-2.2,30.3,9.017,33.6,17.659a.752.752,0,0,1-.435.989A.98.98,0,0,1,420.088,1128.275Z" transform="translate(-378.988 -1072.431)" fill="#000200"/>
        <path id="Path_839" data-name="Path 839" d="M1104.752,1351.39c-.514,1.167-1.266,1.266-1.562,1.285-3.54.4-10.7-6.941-12.4-11.094a.771.771,0,0,0-1.424.593c1.7,4.153,8.879,12.063,13.566,12.063a3.206,3.206,0,0,0,.435-.02c1.206-.138,2.749-.909,3.263-3.8A15.388,15.388,0,0,0,1104.752,1351.39Z" transform="translate(-942.769 -1258.409)" fill="#000200"/>
        <path id="Path_840" data-name="Path 840" d="M1109.03,1379.02c-3.026,0-6.743-.989-11.094-3.737a.773.773,0,1,1,.831-1.305c11.964,7.514,17.224.87,17.8.079,1.6-2.235.87-7-1.444-9.432a.769.769,0,0,1,1.107-1.068c2.848,3.006,3.619,8.543,1.582,11.39A10.61,10.61,0,0,1,1109.03,1379.02Z" transform="translate(-949.401 -1276.231)" fill="#000200"/>
        <path id="Path_841" data-name="Path 841" d="M1088.45,1443.274c-3.322,0-7.594-1.839-13.269-4.509a.766.766,0,0,1-.376-1.028.783.783,0,0,1,1.028-.376c7.791,3.658,12.735,5.7,15.76,3.362,2.947-2.294,2.61-4.687,2.591-4.786a.792.792,0,0,1,.633-.89.777.777,0,0,1,.89.633c.02.138.534,3.382-3.164,6.269A6.471,6.471,0,0,1,1088.45,1443.274Z" transform="translate(-931.075 -1333.761)" fill="#000200"/>
        <path id="Path_842" data-name="Path 842" d="M1067.45,1474.272c-3.322,0-7.594-1.839-13.269-4.509a.766.766,0,0,1-.376-1.028.783.783,0,0,1,1.028-.376c7.791,3.658,12.735,5.7,15.76,3.362,2.946-2.294,2.61-4.687,2.59-4.786a.792.792,0,0,1,.633-.89.762.762,0,0,1,.89.633c.02.138.534,3.381-3.164,6.269A6.357,6.357,0,0,1,1067.45,1474.272Z" transform="translate(-914.227 -1358.629)" fill="#000200"/>
        <path id="Path_843" data-name="Path 843" d="M598.058,1183.756h-.079a.79.79,0,0,1-.692-.85l2.452-22.227a.778.778,0,0,1,.85-.692.79.79,0,0,1,.692.85l-2.452,22.227A.787.787,0,0,1,598.058,1183.756Z" transform="translate(-548.04 -1113.1)" fill="#000200"/>
        <path id="Path_844" data-name="Path 844" d="M616.23,1161.2l-6.9.514L608.3,1177.1l5.379-6.506Z" transform="translate(-556.878 -1114.077)" fill="#000200"/>
      </g>
      <g id="Body" transform="translate(91.689 66.917)">
        <path id="Path_845" data-name="Path 845" d="M834.644,944.178a21.323,21.323,0,0,1-3.54-.316c-7.771-1.305-15.464-8.187-18.114-13.842-1.266-2.689-1.4-5.043-.4-6.783a.767.767,0,0,1,1.325.771c-.929,1.622-.257,3.8.475,5.339,2.492,5.3,9.69,11.746,16.987,12.972,3.995.672,6.743.257,8.167-1.246,1.246-1.305,1.562-3.52.949-6.585a.768.768,0,1,1,1.5-.316c.732,3.6.277,6.288-1.345,7.969C839.35,943.506,837.333,944.178,834.644,944.178Z" transform="translate(-811.928 -922.852)" fill="#000200"/>
        <path id="Path_846" data-name="Path 846" d="M992.43,1026.618a.76.76,0,0,1-.771-.771c0-42.021-6.17-58.573-23.67-67.61a.778.778,0,0,1,.712-1.384c18.133,9.354,24.5,26.241,24.5,68.974A.777.777,0,0,1,992.43,1026.618Z" transform="translate(-936.79 -950.06)" fill="#000200"/>
        <path id="Path_847" data-name="Path 847" d="M1030.658,1204.652h-.059a.775.775,0,0,1-.712-.831l1.641-22.523a.774.774,0,0,1,1.542.119l-1.641,22.524A.79.79,0,0,1,1030.658,1204.652Z" transform="translate(-986.784 -1129.617)" fill="#000200"/>
        <path id="Path_848" data-name="Path 848" d="M1037.367,1258.113a23.016,23.016,0,0,1-4.509-.455.776.776,0,0,1,.3-1.523c7.119,1.365,10.54-1.028,10.579-1.048a.746.746,0,0,1,1.068.178.759.759,0,0,1-.158,1.068C1044.525,1256.412,1042.172,1258.113,1037.367,1258.113Z" transform="translate(-988.667 -1189.268)" fill="#000200"/>
      </g>
      <g id="Head" transform="translate(78.67)">
        <path id="Path_849" data-name="Path 849" d="M1026.362,735.692a.773.773,0,0,1-.257-1.5,5.05,5.05,0,0,0,3.065-2.353,1.416,1.416,0,0,0-.1-1.226c-.593-1.088-3.381-.831-4.627-.534a.772.772,0,1,1-.356-1.5c.514-.119,5.023-1.107,6.348,1.285a2.958,2.958,0,0,1,.2,2.511,6.349,6.349,0,0,1-3.995,3.263A.5.5,0,0,1,1026.362,735.692Z" transform="translate(-968.638 -699.831)" fill="#000200"/>
        <path id="Path_850" data-name="Path 850" d="M974.394,699.089l.514,1.444a1.542,1.542,0,0,0,2.907-1.028l-.514-1.444A1.542,1.542,0,0,0,974.394,699.089Z" transform="translate(-929.167 -674.797)" fill="#000200"/>
        <path id="Path_851" data-name="Path 851" d="M962.72,658.481c-.771.554-1.444,1.246-2.254,1.72-.85.514-.218,1.918.633,1.4.929-.554,1.7-1.305,2.591-1.938C964.52,659.094,963.531,657.907,962.72,658.481Z" transform="translate(-917.751 -643.72)" fill="#000200"/>
        <path id="Path_852" data-name="Path 852" d="M953.857,792.142a.774.774,0,0,1-.1-1.542c.119-.02,11.825-1.384,16.591-6.941,3.876-4.528,3.559-10.738-1.206-24.639a.788.788,0,0,1,.475-.989.78.78,0,0,1,.989.475c4.331,12.6,5.754,20.487.929,26.142-5.161,6.031-17.085,7.416-17.6,7.475A.119.119,0,0,1,953.857,792.142Z" transform="translate(-912.15 -723.673)" fill="#000200"/>
        <path id="Path_853" data-name="Path 853" d="M944.164,920.375l-2.828,7.791c-3.362-1.246-5.062-4.944-5.636-8.266A43.257,43.257,0,0,0,944.164,920.375Z" transform="translate(-898.206 -853.566)" fill="#000200"/>
        <path id="Path_854" data-name="Path 854" d="M787.8,652.924h0c-6.269,0-11.726-13.506-16.116-24.343-1.7-4.212-3.619-8.958-4.489-9.65-4.212,1.266-7.02,3.006-8.029,4.983a3.708,3.708,0,0,0-.2,3.006,4.147,4.147,0,0,0,2.274,2.432c1.622.732,3.777.593,6.269-.4a.691.691,0,0,1,.593.02.75.75,0,0,1,.415.435c2.057,5.438,2.294,9.611.712,12.063a5.037,5.037,0,0,1-4.034,2.274c-5.537.336-8.384-3.144-13.783-16.947L747.3,615.135c-3.006-8.543-1.859-20.388,20.724-28.357,14.337-5.062,23.75-1.839,28,9.571,1.009,2.709,1.918,5.1,2.749,7.356,1.325,3.52,2.511,6.644,3.718,10.026a.775.775,0,1,1-1.463.514c-1.206-3.362-2.373-6.486-3.7-9.986-.85-2.235-1.76-4.627-2.768-7.356-3.935-10.619-12.458-13.447-26.043-8.661-11.806,4.172-24.817,12.122-19.795,26.4l4.113,11.647c5.458,13.941,7.851,16.215,12.26,15.958a3.582,3.582,0,0,0,2.848-1.562c1.226-1.9,1.028-5.418-.593-9.966-3.223,1.107-5.418.672-6.723.079a5.783,5.783,0,0,1-3.085-3.322,5.176,5.176,0,0,1,.277-4.212c1.226-2.412,4.331-4.37,9.2-5.814,1.681-.237,2.887,2.551,6.15,10.6,3.757,9.314,9.452,23.374,14.693,23.394a.76.76,0,0,1,.771.771A.888.888,0,0,1,787.8,652.924Z" transform="translate(-746.093 -584.455)" fill="#000200"/>
        <path id="Path_855" data-name="Path 855" d="M948.762,940.057a1.361,1.361,0,0,1-.257-.04.766.766,0,0,1-.475-.969l5.26-15.543a.763.763,0,1,1,1.443.494l-5.26,15.543A.768.768,0,0,1,948.762,940.057Z" transform="translate(-908.064 -856.044)" fill="#000200"/>
        <path id="Path_856" data-name="Path 856" d="M882.851,641.522c-3.342,0-5.24-6.684-7.653-15.148-.831-2.927-1.7-5.932-2.63-8.681a5.363,5.363,0,0,1,.119-4.37c1.384-2.67,5.2-3.757,9.215-4.9,3.876-1.107,7.89-2.254,8.9-4.805a.777.777,0,0,1,1.444.573c-1.285,3.243-5.675,4.509-9.907,5.715-3.54,1.009-7.178,2.057-8.266,4.133a3.877,3.877,0,0,0-.02,3.164c.949,2.788,1.819,5.814,2.65,8.76,1.879,6.585,3.995,14.02,6.17,14.02h.02c1.186-.039,3.7-1.226,6.348-2.511,5.4-2.591,12.122-5.834,16.116-3.619a.77.77,0,0,1-.751,1.345c-3.3-1.839-9.887,1.345-14.693,3.658-3.045,1.463-5.438,2.63-6.961,2.67Z" transform="translate(-847.235 -599.432)" fill="#000200"/>
        <path id="Path_857" data-name="Path 857" d="M815.508,891.368a.673.673,0,0,1-.2-.02.762.762,0,0,1-.534-.949l3.619-13.289a.77.77,0,0,1,1.483.415l-3.619,13.289A.809.809,0,0,1,815.508,891.368Z" transform="translate(-801.17 -818.785)" fill="#000200"/>
        <path id="Path_858" data-name="Path 858" d="M1002.8,790.749a15.465,15.465,0,0,0-1.6-.85c-.89-.415-1.424,1.028-.514,1.444a12.48,12.48,0,0,1,1.246.672C1002.762,792.529,1003.651,791.283,1002.8,790.749Z" transform="translate(-949.961 -749.213)" fill="#000200"/>
      </g>
    </g>
  </g>
</svg>
