<svg xmlns="http://www.w3.org/2000/svg" width="21.782" height="21.782" viewBox="0 0 21.782 21.782">
  <g id="Group_909" data-name="Group 909" transform="translate(-205.698 -174.686)">
    <path id="Path_1545" data-name="Path 1545" d="M1486.123,493.347a9.935,9.935,0,0,1-9.924-9.923,9.5,9.5,0,0,1,9.924-9.923,9.935,9.935,0,0,1,9.923,9.923A9.6,9.6,0,0,1,1486.123,493.347Zm0-18.852a8.545,8.545,0,0,0-8.928,8.929,8.938,8.938,0,0,0,8.928,8.928,8.63,8.63,0,0,0,8.928-8.928A8.938,8.938,0,0,0,1486.123,474.495Z" transform="translate(-1269.534 -297.847)" fill="#818098"/>
    <path id="Path_1545_-_Outline" data-name="Path 1545 - Outline" d="M1485.591,493.782a10.9,10.9,0,0,1-10.891-10.891,11.874,11.874,0,0,1,.8-4.369,10.013,10.013,0,0,1,5.725-5.725,11.877,11.877,0,0,1,4.369-.8,10.893,10.893,0,1,1,0,21.782Zm0-18.852a8.855,8.855,0,0,0-3.258.589,7.175,7.175,0,0,0-4.115,4.115,8.853,8.853,0,0,0-.589,3.258,7.97,7.97,0,0,0,7.961,7.961,8.62,8.62,0,0,0,3.22-.6,7.357,7.357,0,0,0,4.143-4.143,8.614,8.614,0,0,0,.6-3.22A7.97,7.97,0,0,0,1485.591,474.93Z" transform="translate(-1269.002 -297.314)" fill="#d0d0dd"/>
    <path id="Path_1546" data-name="Path 1546" d="M1528.058,509.281c-1.76,2.564-3.75,5.217-4.732,8.2-1.058-1.263-2.053-2.577-3.112-3.839-.421-.485-1.123.217-.7.7,1.25,1.48,2.4,3.048,3.673,4.515a.5.5,0,0,0,.829-.217c.816-3.278,3.036-6.135,4.911-8.865C1529.282,509.256,1528.415,508.758,1528.058,509.281Z" transform="translate(-1307.209 -328.225)" fill="#818098"/>
    <path id="Path_1546_-_Outline" data-name="Path 1546 - Outline" d="M1527.938,507.559h0a1.534,1.534,0,0,1,1.348.8,1.371,1.371,0,0,1-.094,1.434c-.249.362-.506.73-.755,1.086-1.647,2.355-3.35,4.791-4.016,7.467l0,.009a1.491,1.491,0,0,1-1.436,1.087,1.4,1.4,0,0,1-1.062-.481c-.709-.816-1.386-1.671-2.041-2.5-.531-.671-1.08-1.365-1.636-2.023a1.462,1.462,0,0,1-.227-1.576,1.485,1.485,0,0,1,1.335-.885,1.391,1.391,0,0,1,1.059.5l.011.013c.537.641,1.063,1.3,1.572,1.939l.5.626a37.513,37.513,0,0,1,3.6-5.936c.209-.3.426-.613.635-.917A1.447,1.447,0,0,1,1527.938,507.559Z" transform="translate(-1306.677 -327.693)" fill="#5f57cb"/>
  </g>
</svg>
