<svg xmlns="http://www.w3.org/2000/svg" xmlns:xlink="http://www.w3.org/1999/xlink" width="539.214" height="670.459" viewBox="0 0 539.214 670.459">
  <defs>
    <filter id="Path_1548" x="0" y="0" width="539.214" height="670.459" filterUnits="userSpaceOnUse">
      <feOffset dx="54" dy="23" input="SourceAlpha"/>
      <feGaussianBlur stdDeviation="27.5" result="blur"/>
      <feFlood flood-color="#827fa0" flood-opacity="0.435"/>
      <feComposite operator="in" in2="blur"/>
    </filter>
    <filter id="Path_1548-2" x="0" y="0" width="539.214" height="670.459" filterUnits="userSpaceOnUse">
      <feOffset dy="3" input="SourceAlpha"/>
      <feGaussianBlur stdDeviation="3" result="blur-2"/>
      <feFlood flood-color="#fa2d2d" result="color"/>
      <feComposite operator="out" in="SourceGraphic" in2="blur-2"/>
      <feComposite operator="in" in="color"/>
      <feComposite operator="in" in2="SourceGraphic"/>
    </filter>
    <clipPath id="clip-path">
      <circle id="Ellipse_163" data-name="Ellipse 163" cx="17.883" cy="17.883" r="17.883" fill="none"/>
    </clipPath>
  </defs>
  <g id="Group_1205" data-name="Group 1205" transform="translate(-762.857 -88.27)">
    <g data-type="innerShadowGroup">
      <g transform="matrix(1, 0, 0, 1, 762.86, 88.27)" filter="url(#Path_1548)">
        <g id="Path_1548-3" data-name="Path 1548" transform="translate(183.42 59.5) rotate(20)" fill="#fff">
          <path d="M 200.3662567138672 448.4601135253906 L 33.00000381469727 448.4601135253906 C 29.15056610107422 448.4601135253906 25.41862869262695 447.7071533203125 21.90787887573242 446.2222900390625 C 18.51469039916992 444.7870483398438 15.46631622314453 442.7314758300781 12.84744071960449 440.1126708984375 C 10.22862815856934 437.4938049316406 8.173066139221191 434.4454040527344 6.737815856933594 431.0522155761719 C 5.252940654754639 427.5414733886719 4.500003337860107 423.8095397949219 4.500003337860107 419.9601135253906 L 4.500003337860107 32.99997711181641 C 4.500003337860107 29.15054130554199 5.252940654754639 25.41860389709473 6.737815856933594 21.9078540802002 C 8.173066139221191 18.5146656036377 10.22862815856934 15.4662914276123 12.84744071960449 12.84741687774658 C 15.46631622314453 10.22860431671143 18.51469039916992 8.173041343688965 21.90787887573242 6.737791538238525 C 25.41862869262695 5.25291633605957 29.15056610107422 4.499979019165039 33.00000381469727 4.499979019165039 L 200.3662567138672 4.499979019165039 C 204.2156982421875 4.499979019165039 207.9476318359375 5.25291633605957 211.4583740234375 6.737791538238525 C 214.8516235351562 8.173041343688965 217.8999481201172 10.22860431671143 220.5188140869141 12.84741687774658 C 223.1376342773438 15.4662914276123 225.1932525634766 18.5146656036377 226.6284484863281 21.9078540802002 C 228.1133117675781 25.41860389709473 228.8662567138672 29.15054130554199 228.8662567138672 32.99997711181641 L 228.8662567138672 419.9601135253906 C 228.8662567138672 423.8095397949219 228.1133117675781 427.5414733886719 226.6284484863281 431.0522155761719 C 225.1932525634766 434.4454040527344 223.1376342773438 437.4938049316406 220.5188140869141 440.1126708984375 C 217.8999481201172 442.7314758300781 214.8516235351562 444.7870483398438 211.4583740234375 446.2222900390625 C 207.9476318359375 447.7071533203125 204.2156982421875 448.4601135253906 200.3662567138672 448.4601135253906 Z" stroke="none"/>
          <path d="M 33 8.999969482421875 C 19.76632690429688 8.999969482421875 9 19.76629638671875 9 32.99996948242188 L 9 419.9600524902344 C 9 433.1936950683594 19.76632690429688 443.9600524902344 33 443.9600524902344 L 200.3662567138672 443.9600524902344 C 213.5999298095703 443.9600524902344 224.3662567138672 433.1936950683594 224.3662567138672 419.9600524902344 L 224.3662567138672 32.99996948242188 C 224.3662567138672 19.76629638671875 213.5999298095703 8.999969482421875 200.3662567138672 8.999969482421875 L 33 8.999969482421875 M 33 -3.0517578125e-05 L 200.3662567138672 -3.0517578125e-05 C 218.5916595458984 -3.0517578125e-05 233.3662567138672 14.77456665039062 233.3662567138672 32.99996948242188 L 233.3662567138672 419.9600524902344 C 233.3662567138672 438.1855163574219 218.5916595458984 452.9600524902344 200.3662567138672 452.9600524902344 L 33 452.9600524902344 C 14.77459716796875 452.9600524902344 0 438.1855163574219 0 419.9600524902344 L 0 32.99996948242188 C 0 14.77456665039062 14.77459716796875 -3.0517578125e-05 33 -3.0517578125e-05 Z" stroke="none" fill="#d5d4dd"/>
        </g>
      </g>
      <g id="Path_1548-4" data-name="Path 1548" transform="translate(946.278 147.77) rotate(20)" fill="#fff">
        <path d="M 200.3662567138672 448.4601135253906 L 33.00000381469727 448.4601135253906 C 29.15056610107422 448.4601135253906 25.41862869262695 447.7071533203125 21.90787887573242 446.2222900390625 C 18.51469039916992 444.7870483398438 15.46631622314453 442.7314758300781 12.84744071960449 440.1126708984375 C 10.22862815856934 437.4938049316406 8.173066139221191 434.4454040527344 6.737815856933594 431.0522155761719 C 5.252940654754639 427.5414733886719 4.500003337860107 423.8095397949219 4.500003337860107 419.9601135253906 L 4.500003337860107 32.99997711181641 C 4.500003337860107 29.15054130554199 5.252940654754639 25.41860389709473 6.737815856933594 21.9078540802002 C 8.173066139221191 18.5146656036377 10.22862815856934 15.4662914276123 12.84744071960449 12.84741687774658 C 15.46631622314453 10.22860431671143 18.51469039916992 8.173041343688965 21.90787887573242 6.737791538238525 C 25.41862869262695 5.25291633605957 29.15056610107422 4.499979019165039 33.00000381469727 4.499979019165039 L 200.3662567138672 4.499979019165039 C 204.2156982421875 4.499979019165039 207.9476318359375 5.25291633605957 211.4583740234375 6.737791538238525 C 214.8516235351562 8.173041343688965 217.8999481201172 10.22860431671143 220.5188140869141 12.84741687774658 C 223.1376342773438 15.4662914276123 225.1932525634766 18.5146656036377 226.6284484863281 21.9078540802002 C 228.1133117675781 25.41860389709473 228.8662567138672 29.15054130554199 228.8662567138672 32.99997711181641 L 228.8662567138672 419.9601135253906 C 228.8662567138672 423.8095397949219 228.1133117675781 427.5414733886719 226.6284484863281 431.0522155761719 C 225.1932525634766 434.4454040527344 223.1376342773438 437.4938049316406 220.5188140869141 440.1126708984375 C 217.8999481201172 442.7314758300781 214.8516235351562 444.7870483398438 211.4583740234375 446.2222900390625 C 207.9476318359375 447.7071533203125 204.2156982421875 448.4601135253906 200.3662567138672 448.4601135253906 Z" stroke="none"/>
        <path d="M 33 8.999969482421875 C 19.76632690429688 8.999969482421875 9 19.76629638671875 9 32.99996948242188 L 9 419.9600524902344 C 9 433.1936950683594 19.76632690429688 443.9600524902344 33 443.9600524902344 L 200.3662567138672 443.9600524902344 C 213.5999298095703 443.9600524902344 224.3662567138672 433.1936950683594 224.3662567138672 419.9600524902344 L 224.3662567138672 32.99996948242188 C 224.3662567138672 19.76629638671875 213.5999298095703 8.999969482421875 200.3662567138672 8.999969482421875 L 33 8.999969482421875 M 33 -3.0517578125e-05 L 200.3662567138672 -3.0517578125e-05 C 218.5916595458984 -3.0517578125e-05 233.3662567138672 14.77456665039062 233.3662567138672 32.99996948242188 L 233.3662567138672 419.9600524902344 C 233.3662567138672 438.1855163574219 218.5916595458984 452.9600524902344 200.3662567138672 452.9600524902344 L 33 452.9600524902344 C 14.77459716796875 452.9600524902344 0 438.1855163574219 0 419.9600524902344 L 0 32.99996948242188 C 0 14.77456665039062 14.77459716796875 -3.0517578125e-05 33 -3.0517578125e-05 Z" stroke="none"/>
      </g>
      <g transform="matrix(1, 0, 0, 1, 762.86, 88.27)" filter="url(#Path_1548-2)">
        <g id="Path_1548-5" data-name="Path 1548" transform="translate(183.42 59.5) rotate(20)" fill="#fff">
          <path d="M 200.3662567138672 448.4601135253906 L 33.00000381469727 448.4601135253906 C 29.15056610107422 448.4601135253906 25.41862869262695 447.7071533203125 21.90787887573242 446.2222900390625 C 18.51469039916992 444.7870483398438 15.46631622314453 442.7314758300781 12.84744071960449 440.1126708984375 C 10.22862815856934 437.4938049316406 8.173066139221191 434.4454040527344 6.737815856933594 431.0522155761719 C 5.252940654754639 427.5414733886719 4.500003337860107 423.8095397949219 4.500003337860107 419.9601135253906 L 4.500003337860107 32.99997711181641 C 4.500003337860107 29.15054130554199 5.252940654754639 25.41860389709473 6.737815856933594 21.9078540802002 C 8.173066139221191 18.5146656036377 10.22862815856934 15.4662914276123 12.84744071960449 12.84741687774658 C 15.46631622314453 10.22860431671143 18.51469039916992 8.173041343688965 21.90787887573242 6.737791538238525 C 25.41862869262695 5.25291633605957 29.15056610107422 4.499979019165039 33.00000381469727 4.499979019165039 L 200.3662567138672 4.499979019165039 C 204.2156982421875 4.499979019165039 207.9476318359375 5.25291633605957 211.4583740234375 6.737791538238525 C 214.8516235351562 8.173041343688965 217.8999481201172 10.22860431671143 220.5188140869141 12.84741687774658 C 223.1376342773438 15.4662914276123 225.1932525634766 18.5146656036377 226.6284484863281 21.9078540802002 C 228.1133117675781 25.41860389709473 228.8662567138672 29.15054130554199 228.8662567138672 32.99997711181641 L 228.8662567138672 419.9601135253906 C 228.8662567138672 423.8095397949219 228.1133117675781 427.5414733886719 226.6284484863281 431.0522155761719 C 225.1932525634766 434.4454040527344 223.1376342773438 437.4938049316406 220.5188140869141 440.1126708984375 C 217.8999481201172 442.7314758300781 214.8516235351562 444.7870483398438 211.4583740234375 446.2222900390625 C 207.9476318359375 447.7071533203125 204.2156982421875 448.4601135253906 200.3662567138672 448.4601135253906 Z" stroke="none"/>
          <path d="M 33 8.999969482421875 C 19.76632690429688 8.999969482421875 9 19.76629638671875 9 32.99996948242188 L 9 419.9600524902344 C 9 433.1936950683594 19.76632690429688 443.9600524902344 33 443.9600524902344 L 200.3662567138672 443.9600524902344 C 213.5999298095703 443.9600524902344 224.3662567138672 433.1936950683594 224.3662567138672 419.9600524902344 L 224.3662567138672 32.99996948242188 C 224.3662567138672 19.76629638671875 213.5999298095703 8.999969482421875 200.3662567138672 8.999969482421875 L 33 8.999969482421875 M 33 -3.0517578125e-05 L 200.3662567138672 -3.0517578125e-05 C 218.5916595458984 -3.0517578125e-05 233.3662567138672 14.77456665039062 233.3662567138672 32.99996948242188 L 233.3662567138672 419.9600524902344 C 233.3662567138672 438.1855163574219 218.5916595458984 452.9600524902344 200.3662567138672 452.9600524902344 L 33 452.9600524902344 C 14.77459716796875 452.9600524902344 0 438.1855163574219 0 419.9600524902344 L 0 32.99996948242188 C 0 14.77456665039062 14.77459716796875 -3.0517578125e-05 33 -3.0517578125e-05 Z" stroke="none"/>
        </g>
      </g>
      <g id="Path_1548-6" data-name="Path 1548" transform="translate(946.278 147.77) rotate(20)" fill="none">
        <path d="M 200.3662567138672 448.4601135253906 L 33.00000381469727 448.4601135253906 C 29.15056610107422 448.4601135253906 25.41862869262695 447.7071533203125 21.90787887573242 446.2222900390625 C 18.51469039916992 444.7870483398438 15.46631622314453 442.7314758300781 12.84744071960449 440.1126708984375 C 10.22862815856934 437.4938049316406 8.173066139221191 434.4454040527344 6.737815856933594 431.0522155761719 C 5.252940654754639 427.5414733886719 4.500003337860107 423.8095397949219 4.500003337860107 419.9601135253906 L 4.500003337860107 32.99997711181641 C 4.500003337860107 29.15054130554199 5.252940654754639 25.41860389709473 6.737815856933594 21.9078540802002 C 8.173066139221191 18.5146656036377 10.22862815856934 15.4662914276123 12.84744071960449 12.84741687774658 C 15.46631622314453 10.22860431671143 18.51469039916992 8.173041343688965 21.90787887573242 6.737791538238525 C 25.41862869262695 5.25291633605957 29.15056610107422 4.499979019165039 33.00000381469727 4.499979019165039 L 200.3662567138672 4.499979019165039 C 204.2156982421875 4.499979019165039 207.9476318359375 5.25291633605957 211.4583740234375 6.737791538238525 C 214.8516235351562 8.173041343688965 217.8999481201172 10.22860431671143 220.5188140869141 12.84741687774658 C 223.1376342773438 15.4662914276123 225.1932525634766 18.5146656036377 226.6284484863281 21.9078540802002 C 228.1133117675781 25.41860389709473 228.8662567138672 29.15054130554199 228.8662567138672 32.99997711181641 L 228.8662567138672 419.9601135253906 C 228.8662567138672 423.8095397949219 228.1133117675781 427.5414733886719 226.6284484863281 431.0522155761719 C 225.1932525634766 434.4454040527344 223.1376342773438 437.4938049316406 220.5188140869141 440.1126708984375 C 217.8999481201172 442.7314758300781 214.8516235351562 444.7870483398438 211.4583740234375 446.2222900390625 C 207.9476318359375 447.7071533203125 204.2156982421875 448.4601135253906 200.3662567138672 448.4601135253906 Z" stroke="none"/>
        <path d="M 33 8.999969482421875 C 19.76632690429688 8.999969482421875 9 19.76629638671875 9 32.99996948242188 L 9 419.9600524902344 C 9 433.1936950683594 19.76632690429688 443.9600524902344 33 443.9600524902344 L 200.3662567138672 443.9600524902344 C 213.5999298095703 443.9600524902344 224.3662567138672 433.1936950683594 224.3662567138672 419.9600524902344 L 224.3662567138672 32.99996948242188 C 224.3662567138672 19.76629638671875 213.5999298095703 8.999969482421875 200.3662567138672 8.999969482421875 L 33 8.999969482421875 M 33 -3.0517578125e-05 L 200.3662567138672 -3.0517578125e-05 C 218.5916595458984 -3.0517578125e-05 233.3662567138672 14.77456665039062 233.3662567138672 32.99996948242188 L 233.3662567138672 419.9600524902344 C 233.3662567138672 438.1855163574219 218.5916595458984 452.9600524902344 200.3662567138672 452.9600524902344 L 33 452.9600524902344 C 14.77459716796875 452.9600524902344 0 438.1855163574219 0 419.9600524902344 L 0 32.99996948242188 C 0 14.77456665039062 14.77459716796875 -3.0517578125e-05 33 -3.0517578125e-05 Z" stroke="none" fill="#d5d4dd"/>
      </g>
    </g>
    <rect id="Rectangle_216" data-name="Rectangle 216" width="111.71" height="23.719" rx="11.86" transform="translate(999.471 186.752) rotate(20)" fill="#eeedf4"/>
    <text id="Our_startup_to_do_list_" data-name="Our startup
to do list 🚀" transform="translate(942.576 248.724) rotate(20)" fill="#523b72" font-size="19" font-family="Inter-Black, Inter" font-weight="800"><tspan x="0" y="0">Our startup</tspan><tspan x="0" y="26">to do list </tspan><tspan y="26" font-family="SegoeUIEmoji, Segoe UI Emoji" font-weight="400">🚀</tspan></text>
    <g id="Group_1189" data-name="Group 1189">
      <g id="Group_1142" data-name="Group 1142" transform="translate(295 33)">
        <rect id="Rectangle_533" data-name="Rectangle 533" width="185" height="44" rx="15" transform="translate(772 328)" fill="#c7dbf7" opacity="0.7"/>
        <text id="Write_launch_content" data-name="Write launch content" transform="translate(810 355)" fill="#2c1c43" font-size="12" font-family="Inter-Bold, Inter" font-weight="700"><tspan x="0" y="0">Write launch content</tspan></text>
        <g id="Ellipse_159" data-name="Ellipse 159" transform="translate(787 342)" fill="#fff" stroke="#b0c5e3" stroke-width="1">
          <circle cx="8" cy="8" r="8" stroke="none"/>
          <circle cx="8" cy="8" r="7.5" fill="none"/>
        </g>
      </g>
      <g id="Group_1157" data-name="Group 1157" transform="translate(1189.901 392.901)">
        <circle id="Ellipse_160" data-name="Ellipse 160" cx="17.883" cy="17.883" r="17.883" transform="translate(0.166 0.166)" fill="#fff"/>
        <path id="Ellipse_160_-_Outline" data-name="Ellipse 160 - Outline" d="M17.549-.5A17.966,17.966,0,0,1,27.641,2.583a18.1,18.1,0,0,1,6.539,7.941,18.026,18.026,0,0,1-1.664,17.117,18.1,18.1,0,0,1-7.941,6.539A18.026,18.026,0,0,1,7.458,32.516,18.1,18.1,0,0,1,.918,24.575,18.026,18.026,0,0,1,2.583,7.458,18.1,18.1,0,0,1,10.524.918,17.937,17.937,0,0,1,17.549-.5Zm0,35.767a17.722,17.722,0,0,0,6.9-34.043,17.722,17.722,0,0,0-13.793,32.65A17.606,17.606,0,0,0,17.549,35.267Z" transform="translate(0.5 0.5)"/>
        <g id="Group_1156" data-name="Group 1156" transform="translate(0.166 0.166)">
          <g id="Group_1155" data-name="Group 1155" clip-path="url(#clip-path)">
            <g id="Group_1154" data-name="Group 1154" transform="translate(-3.767 2.149)">
              <g id="Group_1144" data-name="Group 1144" transform="translate(0 18.536)">
                <path id="Path_1832" data-name="Path 1832" d="M365.761,227.436c.615-6.478-5.625-8.787-5.625-8.787l-10.506-5H339.1l-10.506,5s-6.126,2.249-5.625,8.787" transform="translate(-322.75 -202.271)" fill="#f5f5f3"/>
                <path id="Path_1832_-_Outline" data-name="Path 1832 - Outline" d="M365.569,227.072l-.378-.036a7.945,7.945,0,0,0-.6-4.011,8.159,8.159,0,0,0-1.919-2.655,10.015,10.015,0,0,0-2.98-1.925l-.016-.007-10.467-4.977H338.762l-10.467,4.977-.016.007a9.784,9.784,0,0,0-2.946,1.911,7.991,7.991,0,0,0-2.555,6.683l-.379.029a8.371,8.371,0,0,1,2.684-7,10.011,10.011,0,0,1,3.057-1.978l10.5-4.992a.19.19,0,0,1,.082-.018h10.53a.19.19,0,0,1,.082.018l10.5,4.992a10.271,10.271,0,0,1,3.1,2,8.536,8.536,0,0,1,2.007,2.779A8.319,8.319,0,0,1,365.569,227.072Z" transform="translate(-322.369 -201.889)" fill="#202020"/>
                <g id="Group_1143" data-name="Group 1143" transform="translate(13.532)">
                  <path id="Path_1833" data-name="Path 1833" d="M376.945,191.139h0V179.947H366.321v11.192l-2.628,1.25s.207,4.968,8.051,5.074,8.632-4.647,8.632-4.647Z" transform="translate(-363.503 -179.757)" fill="#f5f5f3"/>
                  <path id="Path_1833_-_Outline" data-name="Path 1833 - Outline" d="M371.62,197.273h0l-.259,0a12.256,12.256,0,0,1-4.639-.853,6.41,6.41,0,0,1-2.472-1.793,4.781,4.781,0,0,1-1.127-2.61.19.19,0,0,1,.108-.179l2.52-1.2V179.565a.19.19,0,0,1,.19-.19h10.624a.19.19,0,0,1,.19.19v11.074l3.325,1.625a.19.19,0,0,1,.1.2,4.951,4.951,0,0,1-1.388,2.427,7.178,7.178,0,0,1-2.59,1.642A12.905,12.905,0,0,1,371.62,197.273Zm-8.107-5.152a3.836,3.836,0,0,0,.141.629,4.853,4.853,0,0,0,.9,1.652,6.054,6.054,0,0,0,2.329,1.674,11.908,11.908,0,0,0,4.478.815l.254,0h0a12.53,12.53,0,0,0,4.449-.714,6.8,6.8,0,0,0,2.455-1.554,4.86,4.86,0,0,0,1.252-2.087l-3.3-1.61a.19.19,0,0,1-.107-.171v-11H366.129v11a.19.19,0,0,1-.108.171Z" transform="translate(-363.121 -179.375)" fill="#202020"/>
                  <path id="Path_1834" data-name="Path 1834" d="M368.215,215.265s1.086,4.111,6.84,3.807c5.689-.3,6.535-3.525,6.535-3.525" transform="translate(-366.524 -203.347)" fill="#f5f5f3"/>
                  <path id="Path_1834_-_Outline" data-name="Path 1834 - Outline" d="M374.093,219.18a8.416,8.416,0,0,1-2.97-.495,6,6,0,0,1-2.149-1.366,5.126,5.126,0,0,1-1.312-2.1l.367-.1-.184.048.183-.049a4.847,4.847,0,0,0,1.227,1.946,5.631,5.631,0,0,0,2.013,1.27,8.451,8.451,0,0,0,3.406.45,10.812,10.812,0,0,0,3.362-.664,6.145,6.145,0,0,0,1.921-1.161,3.659,3.659,0,0,0,1.079-1.558l.367.1a3.993,3.993,0,0,1-1.19,1.742,6.521,6.521,0,0,1-2.039,1.234,11.188,11.188,0,0,1-3.48.69Q374.389,219.18,374.093,219.18Z" transform="translate(-366.154 -203.249)" fill="#202020"/>
                </g>
                <path id="Path_1835" data-name="Path 1835" d="M371.847,190.462s.89,4.514,4.819,5.033c4.521.6,5.725-4.918,5.725-4.918a7.193,7.193,0,0,1-5.158,2.507A6.913,6.913,0,0,1,371.847,190.462Z" transform="translate(-355.417 -186.781)" fill="#202020"/>
              </g>
              <g id="Group_1153" data-name="Group 1153" transform="translate(10.935)">
                <path id="Path_1836" data-name="Path 1836" d="M378.195,129.8c-.434-1.572-1.453-3.791-5.092-5.446-6.012-2.735-7.962,2.409-7.962,2.409-2.729-1.166-4.326,1.381-4.761,2.707a4.769,4.769,0,0,0,.029,2.207l1.2,6.581.149-4.529c1.137-3.708,3.971-4.28,3.971-4.28l5.494-.436,5.9,8.981,1.236-6.361A6.322,6.322,0,0,0,378.195,129.8Z" transform="translate(-358.608 -123.555)" fill="#202020"/>
                <g id="Group_1147" data-name="Group 1147" transform="translate(17.474 13.987)">
                  <path id="Path_1837" data-name="Path 1837" d="M409.125,166.984a1.77,1.77,0,0,1,2.194-.579c1.477.561.809,4.148-1.407,4.605a1.754,1.754,0,0,1-1.417-.371S409.039,167.989,409.125,166.984Z" transform="translate(-408.304 -166.06)" fill="#f5f5f3"/>
                  <path id="Path_1837_-_Outline" data-name="Path 1837 - Outline" d="M410.15,165.678a2.412,2.412,0,0,1,.853.167,1.321,1.321,0,0,1,.746.765,2.59,2.59,0,0,1,.155,1.185,3.281,3.281,0,0,1-2.337,3.019,1.751,1.751,0,0,1-.342.03,1.862,1.862,0,0,1-1.238-.444.19.19,0,0,1-.061-.181c.005-.026.544-2.651.627-3.634a.19.19,0,0,1,.028-.085A1.911,1.911,0,0,1,410.15,165.678Zm-.925,4.786a1.426,1.426,0,0,0,.264-.022,2.864,2.864,0,0,0,2.037-2.678,2.213,2.213,0,0,0-.128-1.009.939.939,0,0,0-.53-.555,2.035,2.035,0,0,0-.719-.143,1.541,1.541,0,0,0-1.223.611c-.088.926-.5,3-.606,3.513A1.511,1.511,0,0,0,409.226,170.464Z" transform="translate(-407.922 -165.678)" fill="#202020"/>
                  <g id="Group_1146" data-name="Group 1146" transform="translate(0.504 1.469)">
                    <g id="Group_1145" data-name="Group 1145">
                      <path id="Path_1838" data-name="Path 1838" d="M409.541,171.754a.1.1,0,0,1-.091-.145,2.594,2.594,0,0,1,1.45-1.441,1.407,1.407,0,0,1,.79-.02.1.1,0,0,1-.064.192,1.235,1.235,0,0,0-.68.026,2.347,2.347,0,0,0-1.313,1.331A.1.1,0,0,1,409.541,171.754Z" transform="translate(-409.44 -170.101)" fill="#202020"/>
                    </g>
                    <path id="Path_1839" data-name="Path 1839" d="M411.807,173.787a.1.1,0,0,1-.078-.166A.981.981,0,0,0,412,172.8a1.466,1.466,0,0,0-.693-.831.1.1,0,0,1,.1-.179,1.645,1.645,0,0,1,.8.97,1.172,1.172,0,0,1-.308.987A.1.1,0,0,1,411.807,173.787Z" transform="translate(-410.648 -171.224)" fill="#202020"/>
                  </g>
                </g>
                <g id="Group_1150" data-name="Group 1150" transform="translate(0 13.987)">
                  <path id="Path_1840" data-name="Path 1840" d="M358.854,166.984a1.77,1.77,0,0,0-2.194-.579c-1.477.561-.809,4.148,1.407,4.605a1.754,1.754,0,0,0,1.417-.371S358.94,167.989,358.854,166.984Z" transform="translate(-355.682 -166.06)" fill="#f5f5f3"/>
                  <path id="Path_1840_-_Outline" data-name="Path 1840 - Outline" d="M357.064,165.678h0a1.911,1.911,0,0,1,1.568.823.19.19,0,0,1,.028.085c.084.983.622,3.607.627,3.634a.19.19,0,0,1-.061.181,1.862,1.862,0,0,1-1.238.444,1.751,1.751,0,0,1-.342-.03,3.281,3.281,0,0,1-2.337-3.019,2.59,2.59,0,0,1,.155-1.185,1.321,1.321,0,0,1,.746-.765A2.412,2.412,0,0,1,357.064,165.678Zm1.223.991a1.531,1.531,0,0,0-1.223-.611h0a2.035,2.035,0,0,0-.719.143.939.939,0,0,0-.53.555,2.212,2.212,0,0,0-.128,1.009,2.864,2.864,0,0,0,2.035,2.678h0a1.428,1.428,0,0,0,.263.022,1.511,1.511,0,0,0,.9-.282C358.789,169.668,358.375,167.594,358.288,166.668Z" transform="translate(-355.3 -165.678)" fill="#202020"/>
                  <g id="Group_1149" data-name="Group 1149" transform="translate(1.17 1.469)">
                    <g id="Group_1148" data-name="Group 1148">
                      <path id="Path_1841" data-name="Path 1841" d="M361.042,171.754a.1.1,0,0,1-.091-.057,2.336,2.336,0,0,0-1.325-1.335,1.211,1.211,0,0,0-.668-.022.1.1,0,1,1-.064-.192,1.406,1.406,0,0,1,.79.02,2.594,2.594,0,0,1,1.45,1.441.1.1,0,0,1-.091.145Z" transform="translate(-358.825 -170.101)" fill="#202020"/>
                    </g>
                    <path id="Path_1842" data-name="Path 1842" d="M361.5,173.787a.1.1,0,0,1-.078-.037,1.172,1.172,0,0,1-.308-.987,1.645,1.645,0,0,1,.8-.97.1.1,0,1,1,.1.179,1.465,1.465,0,0,0-.693.831.981.981,0,0,0,.266.818.1.1,0,0,1-.078.166Z" transform="translate(-360.341 -171.224)" fill="#202020"/>
                  </g>
                </g>
                <path id="Path_1843" data-name="Path 1843" d="M379.781,142.747c0,2.163-.212,6.688-1.541,9.373a6.625,6.625,0,0,1-6.02,3.959c-2.707.081-4.724-.963-6.339-4.235s-1.539-9.058-1.539-9.058,0-7.726,7.636-7.726C380.019,135.061,379.781,142.747,379.781,142.747Z" transform="translate(-361.338 -131.24)" fill="#f5f5f3"/>
                <path id="Path_1843_-_Outline" data-name="Path 1843 - Outline" d="M371.6,134.489a7.785,7.785,0,0,1,5.837,2.154,7.052,7.052,0,0,1,1.294,1.884,9.254,9.254,0,0,1,.862,3.841,37.456,37.456,0,0,1-.273,4.512,15.933,15.933,0,0,1-1.288,4.943,7.388,7.388,0,0,1-2.529,2.969,6.921,6.921,0,0,1-3.656,1.1c-.1,0-.195,0-.29,0a6.131,6.131,0,0,1-3.51-.968,8.314,8.314,0,0,1-2.715-3.378,12.585,12.585,0,0,1-.937-2.839,25.868,25.868,0,0,1-.457-2.982c-.179-1.817-.165-3.265-.164-3.321a8.378,8.378,0,0,1,.122-1.237,9.842,9.842,0,0,1,.852-2.709,6.928,6.928,0,0,1,2.331-2.729A7.936,7.936,0,0,1,371.6,134.489Zm-.042,21.023c.091,0,.185,0,.278,0a6.547,6.547,0,0,0,3.458-1.033,7.015,7.015,0,0,0,2.4-2.821,15.574,15.574,0,0,0,1.251-4.822,37.075,37.075,0,0,0,.27-4.467s0,0,0-.006a8.508,8.508,0,0,0-.222-1.906,8.407,8.407,0,0,0-.607-1.771,6.67,6.67,0,0,0-1.223-1.777,7.424,7.424,0,0,0-5.562-2.036,7.569,7.569,0,0,0-4.3,1.17,6.548,6.548,0,0,0-2.2,2.575,9.613,9.613,0,0,0-.941,3.791v0c0,.014-.017,1.46.163,3.285a17.279,17.279,0,0,0,1.356,5.686,7.953,7.953,0,0,0,2.586,3.23A5.764,5.764,0,0,0,371.554,155.512Z" transform="translate(-360.957 -130.858)" fill="#202020"/>
                <g id="Group_1152" data-name="Group 1152" transform="translate(4.388 11.115)">
                  <path id="Path_1844" data-name="Path 1844" d="M385.95,160.737v4.92a.588.588,0,0,0,.042.218.576.576,0,0,0,.686.318l.593-.158" transform="translate(-380.16 -159.506)" fill="#f5f5f3"/>
                  <path id="Path_1844_-_Outline" data-name="Path 1844 - Outline" d="M386.243,166.076a.7.7,0,0,1-.653-.425.722.722,0,0,1-.052-.269v-4.92a.137.137,0,1,1,.273,0v4.92a.449.449,0,0,0,.032.167.441.441,0,0,0,.525.237l.593-.158a.137.137,0,1,1,.07.264l-.593.158A.763.763,0,0,1,386.243,166.076Z" transform="translate(-379.885 -159.231)" fill="#202020"/>
                  <circle id="Ellipse_161" data-name="Ellipse 161" cx="0.59" cy="0.59" r="0.59" transform="translate(2.145 2.642)" fill="#202020"/>
                  <circle id="Ellipse_162" data-name="Ellipse 162" cx="0.59" cy="0.59" r="0.59" transform="translate(8.927 2.642)" fill="#202020"/>
                  <path id="Line_29" data-name="Line 29" d="M-.158.889A.079.079,0,0,1-.224.853.079.079,0,0,1-.2.744L1.265-.224A.079.079,0,0,1,1.375-.2a.079.079,0,0,1-.022.109L-.115.876A.078.078,0,0,1-.158.889Z" transform="translate(2.496 4.036)" fill="#202020"/>
                  <path id="Line_30" data-name="Line 30" d="M1.14.9A.078.078,0,0,1,1.092.883L-.206-.1a.079.079,0,0,1-.016-.11.079.079,0,0,1,.11-.016l1.3.978A.079.079,0,0,1,1.14.9Z" transform="translate(8.746 4.031)" fill="#202020"/>
                  <path id="Path_1845" data-name="Path 1845" d="M391.335,157.732l4.674,1.207s-.213-1.311-2.125-1.787S391.335,157.732,391.335,157.732Z" transform="translate(-383.757 -157.029)" fill="#202020"/>
                  <path id="Path_1846" data-name="Path 1846" d="M373.187,157.732l-4.674,1.207s.213-1.311,2.125-1.787S373.187,157.732,373.187,157.732Z" transform="translate(-368.513 -157.029)" fill="#202020"/>
                  <path id="Path_1847" data-name="Path 1847" d="M385.34,185.049a3.435,3.435,0,0,1-.951-.121.079.079,0,1,1,.047-.15,3.751,3.751,0,0,0,1.841,0,.079.079,0,0,1,.038.153A4.012,4.012,0,0,1,385.34,185.049Z" transform="translate(-379.08 -175.561)" fill="#202020"/>
                  <g id="Group_1151" data-name="Group 1151" transform="translate(1.648 7.034)">
                    <path id="Path_1848" data-name="Path 1848" d="M377.786,179.6a.725.725,0,0,0,.3-.417c.094-.348.135-.9-.535-.967-.985-.092-2.635,1.8-4.078.717C373.476,178.932,374.855,181.494,377.786,179.6Z" transform="translate(-373.476 -178.212)" fill="#202020"/>
                    <path id="Path_1849" data-name="Path 1849" d="M387.4,179.6a.723.723,0,0,1-.3-.417c-.094-.348-.135-.9.533-.967.981-.092,2.623,1.8,4.06.717C391.688,178.932,390.315,181.494,387.4,179.6Z" transform="translate(-382.537 -178.212)" fill="#202020"/>
                  </g>
                </g>
                <path id="Path_1850" data-name="Path 1850" d="M377.57,134.526c-.2.066-6.618-1.713-6.618-1.713l-5.634,1.713,0,.008c-4.953,1.34-2.77,6.03-2.77,6.03,2.038-1.047,3-3.436,3.386-4.981.9,1.185,2.954,2.931,7.2,2.849,4.349-.084,5.128,2.813,5.128,2.813S377.769,134.46,377.57,134.526Z" transform="translate(-359.823 -129.739)" fill="#202020"/>
              </g>
            </g>
          </g>
        </g>
      </g>
    </g>
    <g id="Group_1188" data-name="Group 1188">
      <g id="Group_1140" data-name="Group 1140" transform="translate(10.992 35.025)">
        <rect id="Rectangle_533-2" data-name="Rectangle 533" width="209" height="44" rx="15" transform="translate(772 328)" fill="#dffcd2" opacity="0.7"/>
        <text id="Finish_Social_media_design" data-name="Finish Social media design" transform="translate(810 355)" fill="#2c1c43" font-size="12" font-family="Inter-Bold, Inter" font-weight="700"><tspan x="0" y="0">Finish Social media design</tspan></text>
        <g id="Ellipse_159-2" data-name="Ellipse 159" transform="translate(787 342)" fill="#fff" stroke="#b8e2a5" stroke-width="1">
          <circle cx="8" cy="8" r="8" stroke="none"/>
          <circle cx="8" cy="8" r="7.5" fill="none"/>
        </g>
      </g>
      <g id="Group_1171" data-name="Group 1171" transform="translate(831.943 336.975)">
        <circle id="Ellipse_164" data-name="Ellipse 164" cx="17.883" cy="17.883" r="17.883" transform="translate(0.166 0.166)" fill="#fff"/>
        <path id="Ellipse_164_-_Outline" data-name="Ellipse 164 - Outline" d="M17.549-.5A17.966,17.966,0,0,1,27.641,2.583a18.1,18.1,0,0,1,6.539,7.941,18.026,18.026,0,0,1-1.664,17.117,18.1,18.1,0,0,1-7.941,6.539A18.026,18.026,0,0,1,7.458,32.516,18.1,18.1,0,0,1,.918,24.575,18.026,18.026,0,0,1,2.583,7.458,18.1,18.1,0,0,1,10.524.918,17.937,17.937,0,0,1,17.549-.5Zm0,35.767a17.722,17.722,0,0,0,6.9-34.043,17.722,17.722,0,0,0-13.793,32.65A17.606,17.606,0,0,0,17.549,35.267Z" transform="translate(0.5 0.5)"/>
        <g id="Group_1170" data-name="Group 1170" transform="translate(0.166 0.166)">
          <g id="Group_1169" data-name="Group 1169" clip-path="url(#clip-path)">
            <g id="Group_1168" data-name="Group 1168" transform="translate(-3.108 3.79)">
              <g id="Group_1158" data-name="Group 1158" transform="translate(0 19.603)">
                <path id="Path_1851" data-name="Path 1851" d="M220.878,216.131l-10.506-5h-10.53l-10.506,5s-6.126,2.249-5.625,8.788H226.5C227.118,218.44,220.878,216.131,220.878,216.131Z" transform="translate(-183.492 -199.753)" fill="#202020"/>
                <path id="Path_1851_-_Outline" data-name="Path 1851 - Outline" d="M199.461,210.563h10.53a.19.19,0,0,1,.082.018l10.5,4.992a10.271,10.271,0,0,1,3.1,2,8.535,8.535,0,0,1,2.007,2.779,8.32,8.32,0,0,1,.635,4.2.19.19,0,0,1-.189.172H183.33a.19.19,0,0,1-.189-.175,8.371,8.371,0,0,1,2.684-7,10.012,10.012,0,0,1,3.057-1.978l10.5-4.992A.19.19,0,0,1,199.461,210.563Zm10.487.38H199.5l-10.467,4.977-.016.007a9.783,9.783,0,0,0-2.946,1.911,7.975,7.975,0,0,0-2.567,6.508h42.44a7.9,7.9,0,0,0-.619-3.839,8.159,8.159,0,0,0-1.919-2.655,10.014,10.014,0,0,0-2.98-1.925l-.016-.007Z" transform="translate(-183.111 -199.371)" fill="#202020"/>
                <path id="Path_1852" data-name="Path 1852" d="M237.686,188.622h0V177.43H227.062v11.192l-2.628,1.25s.208,4.968,8.051,5.074,8.632-4.647,8.632-4.647Z" transform="translate(-210.712 -177.24)" fill="#f5f5f3"/>
                <path id="Path_1852_-_Outline" data-name="Path 1852 - Outline" d="M232.361,194.756h0l-.259,0a12.257,12.257,0,0,1-4.639-.853,6.41,6.41,0,0,1-2.472-1.793,4.781,4.781,0,0,1-1.127-2.61.19.19,0,0,1,.108-.179l2.52-1.2V177.048a.19.19,0,0,1,.19-.19H237.3a.19.19,0,0,1,.19.19v11.074l3.325,1.625a.19.19,0,0,1,.1.2,4.951,4.951,0,0,1-1.388,2.427,7.178,7.178,0,0,1-2.59,1.642A12.905,12.905,0,0,1,232.361,194.756Zm-8.107-5.151a3.832,3.832,0,0,0,.141.629,4.854,4.854,0,0,0,.9,1.652,6.054,6.054,0,0,0,2.33,1.674,11.909,11.909,0,0,0,4.478.815l.255,0a12.555,12.555,0,0,0,4.431-.707,6.825,6.825,0,0,0,2.455-1.542,5.216,5.216,0,0,0,1.067-1.539,3.853,3.853,0,0,0,.2-.566l-3.3-1.61a.19.19,0,0,1-.107-.171v-11H226.87v11a.19.19,0,0,1-.108.171Z" transform="translate(-210.33 -176.858)" fill="#202020"/>
                <path id="Path_1853" data-name="Path 1853" d="M232.589,187.944s.89,4.514,4.819,5.033c4.521.6,5.725-4.918,5.725-4.918a7.193,7.193,0,0,1-5.158,2.507A6.913,6.913,0,0,1,232.589,187.944Z" transform="translate(-216.159 -184.263)" fill="#202020"/>
              </g>
              <g id="Group_1167" data-name="Group 1167" transform="translate(10.393)">
                <path id="Path_1854" data-name="Path 1854" d="M217.739,134.12a4.07,4.07,0,0,0-1.781-3.562,2.867,2.867,0,0,1-1.142-4.016,2.816,2.816,0,0,1,.676-.778.788.788,0,0,0,.23-.923,1.878,1.878,0,0,1,.276-1.815,1.835,1.835,0,0,1,1.956-.708c1.484.2,1.06-1.429,1.039-2.639-.031-1.755,3.05-3.065,6.2-.091,0,0,.512.734,2.167.271s5.026-1.507,7.429.5.039,4.133.867,5.756,1.576,3.129-.236,4.519-1.789,4.37-1.789,4.37Z" transform="translate(-214.411 -117.822)" fill="#202020"/>
                <g id="Group_1161" data-name="Group 1161" transform="translate(18.015 15.055)">
                  <path id="Path_1855" data-name="Path 1855" d="M269.867,164.466a1.769,1.769,0,0,1,2.194-.579c1.477.56.809,4.148-1.407,4.6a1.753,1.753,0,0,1-1.417-.371S269.781,165.472,269.867,164.466Z" transform="translate(-269.046 -163.542)" fill="#f5f5f3"/>
                  <path id="Path_1855_-_Outline" data-name="Path 1855 - Outline" d="M270.892,163.16a2.412,2.412,0,0,1,.854.167,1.32,1.32,0,0,1,.746.765,2.589,2.589,0,0,1,.155,1.184,3.281,3.281,0,0,1-2.336,3.019,1.747,1.747,0,0,1-.343.03,1.861,1.861,0,0,1-1.238-.444.19.19,0,0,1-.061-.181c.005-.026.544-2.65.627-3.634a.189.189,0,0,1,.028-.085A1.91,1.91,0,0,1,270.892,163.16Zm-.925,4.786a1.425,1.425,0,0,0,.264-.022,2.864,2.864,0,0,0,2.037-2.678,2.212,2.212,0,0,0-.128-1.009.939.939,0,0,0-.53-.555,2.035,2.035,0,0,0-.719-.143,1.53,1.53,0,0,0-1.223.611c-.088.926-.5,3-.606,3.514A1.509,1.509,0,0,0,269.967,167.947Z" transform="translate(-268.664 -163.16)" fill="#202020"/>
                  <g id="Group_1160" data-name="Group 1160" transform="translate(0.504 1.469)">
                    <g id="Group_1159" data-name="Group 1159">
                      <path id="Path_1856" data-name="Path 1856" d="M270.283,169.236a.1.1,0,0,1-.091-.145,2.6,2.6,0,0,1,1.45-1.441,1.407,1.407,0,0,1,.79-.02.1.1,0,0,1-.064.193h0a1.233,1.233,0,0,0-.68.026,2.348,2.348,0,0,0-1.313,1.331A.1.1,0,0,1,270.283,169.236Z" transform="translate(-270.182 -167.584)" fill="#202020"/>
                    </g>
                    <path id="Path_1857" data-name="Path 1857" d="M272.549,171.27a.1.1,0,0,1-.078-.166.981.981,0,0,0,.266-.818,1.466,1.466,0,0,0-.693-.831.1.1,0,0,1,.1-.179,1.645,1.645,0,0,1,.8.969,1.172,1.172,0,0,1-.308.987A.1.1,0,0,1,272.549,171.27Z" transform="translate(-271.39 -168.706)" fill="#202020"/>
                  </g>
                </g>
                <g id="Group_1164" data-name="Group 1164" transform="translate(0.541 15.055)">
                  <path id="Path_1858" data-name="Path 1858" d="M219.6,164.466a1.769,1.769,0,0,0-2.194-.579c-1.477.56-.809,4.148,1.407,4.6a1.753,1.753,0,0,0,1.417-.371S219.682,165.472,219.6,164.466Z" transform="translate(-216.423 -163.542)" fill="#f5f5f3"/>
                  <path id="Path_1858_-_Outline" data-name="Path 1858 - Outline" d="M217.807,163.16h0a1.91,1.91,0,0,1,1.568.823.19.19,0,0,1,.028.085c.084.983.622,3.607.627,3.634a.19.19,0,0,1-.061.181,1.861,1.861,0,0,1-1.238.444,1.747,1.747,0,0,1-.343-.03,3.281,3.281,0,0,1-2.336-3.019,2.589,2.589,0,0,1,.155-1.184,1.32,1.32,0,0,1,.746-.765A2.412,2.412,0,0,1,217.807,163.16Zm1.223.99a1.53,1.53,0,0,0-1.223-.611h0a2.035,2.035,0,0,0-.719.143.939.939,0,0,0-.53.555,2.212,2.212,0,0,0-.128,1.009,2.864,2.864,0,0,0,2.035,2.678h0a1.427,1.427,0,0,0,.264.022,1.509,1.509,0,0,0,.9-.282C219.531,167.15,219.117,165.076,219.03,164.151Z" transform="translate(-216.042 -163.16)" fill="#202020"/>
                  <g id="Group_1163" data-name="Group 1163" transform="translate(1.171 1.469)">
                    <g id="Group_1162" data-name="Group 1162">
                      <path id="Path_1859" data-name="Path 1859" d="M221.784,169.236a.1.1,0,0,1-.091-.057,2.348,2.348,0,0,0-1.313-1.331,1.233,1.233,0,0,0-.68-.026.1.1,0,0,1-.064-.193,1.407,1.407,0,0,1,.79.02,2.6,2.6,0,0,1,1.45,1.441.1.1,0,0,1-.091.145Z" transform="translate(-219.567 -167.584)" fill="#202020"/>
                    </g>
                    <path id="Path_1860" data-name="Path 1860" d="M222.243,171.27a.1.1,0,0,1-.078-.037,1.172,1.172,0,0,1-.308-.987,1.645,1.645,0,0,1,.8-.969.1.1,0,0,1,.1.179,1.464,1.464,0,0,0-.693.831.981.981,0,0,0,.266.818.1.1,0,0,1-.078.166Z" transform="translate(-221.084 -168.706)" fill="#202020"/>
                  </g>
                </g>
                <path id="Path_1861" data-name="Path 1861" d="M240.523,140.23c0,2.163-.212,6.687-1.541,9.373a6.624,6.624,0,0,1-6.02,3.959c-2.707.081-4.724-.963-6.34-4.235s-1.539-9.057-1.539-9.057,0-7.726,7.636-7.726C240.761,132.544,240.523,140.23,240.523,140.23Z" transform="translate(-221.539 -127.656)" fill="#f5f5f3"/>
                <path id="Path_1861_-_Outline" data-name="Path 1861 - Outline" d="M232.337,131.972a7.785,7.785,0,0,1,5.837,2.154,7.053,7.053,0,0,1,1.294,1.884,9.254,9.254,0,0,1,.862,3.841,37.457,37.457,0,0,1-.273,4.511,15.934,15.934,0,0,1-1.288,4.943,7.388,7.388,0,0,1-2.529,2.969,6.919,6.919,0,0,1-3.656,1.1c-.1,0-.195,0-.29,0a6.131,6.131,0,0,1-3.51-.968,8.315,8.315,0,0,1-2.716-3.378,12.584,12.584,0,0,1-.937-2.839,25.853,25.853,0,0,1-.457-2.982c-.179-1.817-.165-3.265-.164-3.321a8.379,8.379,0,0,1,.122-1.237,9.842,9.842,0,0,1,.852-2.709,6.928,6.928,0,0,1,2.331-2.729A7.936,7.936,0,0,1,232.337,131.972Zm-.042,21.023c.091,0,.185,0,.278,0a6.545,6.545,0,0,0,3.458-1.033,7.015,7.015,0,0,0,2.4-2.821,15.574,15.574,0,0,0,1.251-4.822,37.068,37.068,0,0,0,.27-4.467s0,0,0-.006a8.509,8.509,0,0,0-.222-1.906,8.408,8.408,0,0,0-.607-1.771,6.671,6.671,0,0,0-1.223-1.777,7.424,7.424,0,0,0-5.562-2.036,7.565,7.565,0,0,0-4.308,1.175,6.553,6.553,0,0,0-2.2,2.583,9.588,9.588,0,0,0-.935,3.779s0,0,0,0-.017,1.46.163,3.285a17.277,17.277,0,0,0,1.356,5.686,7.954,7.954,0,0,0,2.586,3.23A5.765,5.765,0,0,0,232.3,152.995Z" transform="translate(-221.157 -127.274)" fill="#202020"/>
                <g id="Group_1166" data-name="Group 1166" transform="translate(3.367 12.14)">
                  <path id="Path_1862" data-name="Path 1862" d="M246.692,158.22v4.919a.587.587,0,0,0,.042.218.575.575,0,0,0,.686.318l.593-.158" transform="translate(-239.34 -156.946)" fill="#f5f5f3"/>
                  <path id="Path_1862_-_Outline" data-name="Path 1862 - Outline" d="M246.985,163.559a.694.694,0,0,1-.652-.426.721.721,0,0,1-.052-.269v-4.919a.137.137,0,1,1,.273,0v4.919a.449.449,0,0,0,.032.167.44.44,0,0,0,.524.237l.593-.158a.137.137,0,1,1,.07.264l-.593.158A.762.762,0,0,1,246.985,163.559Z" transform="translate(-239.066 -156.671)" fill="#202020"/>
                  <circle id="Ellipse_165" data-name="Ellipse 165" cx="0.59" cy="0.59" r="0.59" transform="translate(3.707 2.685)" fill="#202020"/>
                  <circle id="Ellipse_166" data-name="Ellipse 166" cx="0.59" cy="0.59" r="0.59" transform="translate(10.488 2.685)" fill="#202020"/>
                  <path id="Line_31" data-name="Line 31" d="M-.158.889A.079.079,0,0,1-.224.853.079.079,0,0,1-.2.744L1.265-.224A.079.079,0,0,1,1.375-.2a.079.079,0,0,1-.022.109L-.115.876A.078.078,0,0,1-.158.889Z" transform="translate(4.057 4.079)" fill="#202020"/>
                  <path id="Line_32" data-name="Line 32" d="M1.14.9A.078.078,0,0,1,1.092.883L-.206-.1a.079.079,0,0,1-.016-.11.079.079,0,0,1,.11-.016l1.3.978A.079.079,0,0,1,1.14.9Z" transform="translate(10.308 4.074)" fill="#202020"/>
                  <path id="Path_1863" data-name="Path 1863" d="M240.514,177a4.372,4.372,0,0,0,2.5.529A6.345,6.345,0,0,0,245.7,177" transform="translate(-235.214 -169.492)" fill="#f5f5f3"/>
                  <path id="Path_1863_-_Outline" data-name="Path 1863 - Outline" d="M242.744,177.393a4.47,4.47,0,0,1-2.587-.557.137.137,0,0,1,.166-.217h0a2.082,2.082,0,0,0,.552.25,6.093,6.093,0,0,0,1.87.251,6.258,6.258,0,0,0,2.618-.514.137.137,0,1,1,.125.243A6.43,6.43,0,0,1,242.744,177.393Z" transform="translate(-234.939 -169.217)" fill="#202020"/>
                  <path id="Path_1864" data-name="Path 1864" d="M244.954,180.962a.079.079,0,0,1,0-.158,8.593,8.593,0,0,0,2.149-.33.079.079,0,0,1,.063.145,8.53,8.53,0,0,1-2.206.343Z" transform="translate(-238.127 -171.806)" fill="#202020"/>
                  <path id="Path_1865" data-name="Path 1865" d="M252.278,155.214l4.674,1.207s-.213-1.311-2.125-1.787S252.278,155.214,252.278,155.214Z" transform="translate(-243.071 -154.468)" fill="#202020"/>
                  <path id="Path_1866" data-name="Path 1866" d="M234.51,155.214l-4.674,1.207s.213-1.311,2.125-1.787S234.51,155.214,234.51,155.214Z" transform="translate(-228.081 -154.468)" fill="#202020"/>
                  <g id="Group_1165" data-name="Group 1165">
                    <path id="Ellipse_167" data-name="Ellipse 167" d="M2.927,0A2.927,2.927,0,1,1,0,2.927,2.93,2.93,0,0,1,2.927,0Zm0,5.7A2.769,2.769,0,1,0,.158,2.927,2.772,2.772,0,0,0,2.927,5.7Z" transform="translate(0 2.345) rotate(-22.625)" fill="#202020"/>
                    <path id="Ellipse_168" data-name="Ellipse 168" d="M2.927,0A2.927,2.927,0,1,1,0,2.927,2.93,2.93,0,0,1,2.927,0Zm0,5.7A2.769,2.769,0,1,0,.158,2.927,2.772,2.772,0,0,0,2.927,5.7Z" transform="matrix(0.896, -0.443, 0.443, 0.896, 7.973, 2.594)" fill="#202020"/>
                    <path id="Path_1867" data-name="Path 1867" d="M246.867,165.441a.079.079,0,0,1-.059-.027,1.557,1.557,0,0,0-1.234-.658,1.522,1.522,0,0,0-1.012.649.079.079,0,0,1-.132-.086,1.654,1.654,0,0,1,1.131-.72,1.7,1.7,0,0,1,1.364.711.079.079,0,0,1-.059.131Z" transform="translate(-237.821 -161.204)" fill="#202020"/>
                  </g>
                </g>
                <path id="Path_1868" data-name="Path 1868" d="M223.583,145.205s2.024-6.081-.152-9.672l-.821,5.729Z" transform="translate(-219.887 -129.652)" fill="#202020"/>
                <path id="Path_1869" data-name="Path 1869" d="M227.743,135.428a2.388,2.388,0,0,1,3.906-1.394c1.827,1.122,6.014,3.23,10.553.267a9.962,9.962,0,0,0-8.421-4.173C226.1,130.127,227.743,135.428,227.743,135.428Z" transform="translate(-223.217 -126.042)" fill="#202020"/>
              </g>
            </g>
          </g>
        </g>
      </g>
    </g>
    <g id="Group_1190" data-name="Group 1190">
      <g id="Group_1141" data-name="Group 1141" transform="translate(161 218)">
        <rect id="Rectangle_533-3" data-name="Rectangle 533" width="197" height="44" rx="15" transform="translate(772 328)" fill="#ffe7e5" opacity="0.7"/>
        <text id="Contact_brand_agency" data-name="Contact brand agency" transform="translate(810 355)" fill="#2c1c43" font-size="12" font-family="Inter-Bold, Inter" font-weight="700"><tspan x="0" y="0">Contact brand agency</tspan></text>
        <g id="Ellipse_159-3" data-name="Ellipse 159" transform="translate(787 342)" fill="#fff" stroke="#f2d4d1" stroke-width="1">
          <circle cx="8" cy="8" r="8" stroke="none"/>
          <circle cx="8" cy="8" r="7.5" fill="none"/>
        </g>
      </g>
      <g id="Group_1187" data-name="Group 1187" transform="translate(977.951 522.401)">
        <circle id="Ellipse_170" data-name="Ellipse 170" cx="17.883" cy="17.883" r="17.883" transform="translate(0.166 0.166)" fill="#fff"/>
        <path id="Ellipse_170_-_Outline" data-name="Ellipse 170 - Outline" d="M17.549-.5A17.966,17.966,0,0,1,27.641,2.583a18.1,18.1,0,0,1,6.539,7.941,18.026,18.026,0,0,1-1.664,17.117,18.1,18.1,0,0,1-7.941,6.539A18.026,18.026,0,0,1,7.458,32.516,18.1,18.1,0,0,1,.918,24.575,18.026,18.026,0,0,1,2.583,7.458,18.1,18.1,0,0,1,10.524.918,17.937,17.937,0,0,1,17.549-.5Zm0,35.767a17.722,17.722,0,0,0,6.9-34.043,17.722,17.722,0,0,0-13.793,32.65A17.606,17.606,0,0,0,17.549,35.267Z" transform="translate(0.5 0.5)"/>
        <g id="Group_1186" data-name="Group 1186" transform="translate(0.166 0.166)">
          <g id="Group_1185" data-name="Group 1185" clip-path="url(#clip-path)">
            <g id="Group_1184" data-name="Group 1184" transform="translate(-1.928 3.185)">
              <g id="Group_1175" data-name="Group 1175" transform="translate(0 9.435)">
                <path id="Path_1870" data-name="Path 1870" d="M232.065,337.391H221.647a5.366,5.366,0,0,1-5.365-5.365l1.377-13.542h18.4l1.377,13.542A5.366,5.366,0,0,1,232.065,337.391Z" transform="translate(-207.242 -318.483)" fill="#202020"/>
                <g id="Group_1172" data-name="Group 1172" transform="translate(0 7.145)">
                  <path id="Path_1871" data-name="Path 1871" d="M228.522,366.633c.494-6.111-5.83-9.107-5.83-9.107l-9.491-5.178V340.594H205v11.754l-9.492,5.178s-6.349,2.8-5.83,9.107" transform="translate(-189.453 -340.397)" fill="#f5f5f3"/>
                  <path id="Path_1871_-_Outline" data-name="Path 1871 - Outline" d="M189.088,366.254a8.336,8.336,0,0,1,.709-4.181,9.647,9.647,0,0,1,2.07-2.894,11.924,11.924,0,0,1,3.16-2.224l9.383-5.118V340.2a.2.2,0,0,1,.2-.2h8.2a.2.2,0,0,1,.2.2v11.637l9.383,5.119a12.649,12.649,0,0,1,3.15,2.3,10.02,10.02,0,0,1,2.067,2.9,8.138,8.138,0,0,1,.72,4.1l-.392-.032a7.749,7.749,0,0,0-.682-3.9,9.619,9.619,0,0,0-1.982-2.785,12.468,12.468,0,0,0-3.054-2.233l-.01-.005-9.491-5.178a.2.2,0,0,1-.1-.173V340.395H204.8v11.557a.2.2,0,0,1-.1.173l-9.492,5.178-.015.007a11.717,11.717,0,0,0-3.061,2.158,9.247,9.247,0,0,0-1.981,2.774,7.948,7.948,0,0,0-.672,3.979Z" transform="translate(-189.057 -340.001)" fill="#202020"/>
                  <path id="Path_1872" data-name="Path 1872" d="M235.883,355.918s.679,3.681,3.9,3.748c4.235.088,4.165-3.584,4.165-3.584s-.577,1.08-3.852,1.084C236.449,357.17,235.883,355.918,235.883,355.918Z" transform="translate(-220.334 -350.633)" fill="#202020"/>
                </g>
                <g id="Group_1173" data-name="Group 1173" transform="translate(10.886 18.9)">
                  <path id="Path_1873" data-name="Path 1873" d="M223.454,389.917l-1.61-8.733a.2.2,0,0,1,.04-.159l4.466-5.552a.2.2,0,0,1,.35.123v14.285h-.394V376.155l-4.06,5.047,1.594,8.644Z" transform="translate(-221.84 -375.4)" fill="#202020"/>
                  <path id="Path_1874" data-name="Path 1874" d="M263.232,389.917l-.387-.071,1.594-8.644-4.06-5.047v13.727h-.393V375.6a.2.2,0,0,1,.35-.123l4.466,5.553a.2.2,0,0,1,.04.159Z" transform="translate(-247.319 -375.4)" fill="#202020"/>
                </g>
                <g id="Group_1174" data-name="Group 1174" transform="translate(15.414 20.195)">
                  <path id="Path_1875" data-name="Path 1875" d="M235.883,379.8s3.281,3.079,8.2,0" transform="translate(-235.748 -379.636)" fill="#f5f5f3"/>
                  <path id="Path_1875_-_Outline" data-name="Path 1875 - Outline" d="M239.5,381.033a6.483,6.483,0,0,1-1.683-.221,5.842,5.842,0,0,1-2.339-1.2l.269-.287a5.564,5.564,0,0,0,2.191,1.113,6.212,6.212,0,0,0,2.5.133,8.526,8.526,0,0,0,3.267-1.269l.209.334a8.906,8.906,0,0,1-3.433,1.327A6.882,6.882,0,0,1,239.5,381.033Z" transform="translate(-235.478 -379.301)" fill="#202020"/>
                  <path id="Path_1876" data-name="Path 1876" d="M235.883,385.051s3.281,3.08,8.2,0" transform="translate(-235.748 -383.142)" fill="#f5f5f3"/>
                  <path id="Path_1876_-_Outline" data-name="Path 1876 - Outline" d="M239.5,386.281a6.482,6.482,0,0,1-1.683-.221,5.842,5.842,0,0,1-2.339-1.2l.269-.287a5.564,5.564,0,0,0,2.191,1.114,6.212,6.212,0,0,0,2.5.133,8.525,8.525,0,0,0,3.267-1.269l.209.334a8.9,8.9,0,0,1-3.433,1.327A6.882,6.882,0,0,1,239.5,386.281Z" transform="translate(-235.478 -382.806)" fill="#202020"/>
                </g>
              </g>
              <g id="Group_1183" data-name="Group 1183" transform="translate(8.946)">
                <ellipse id="Ellipse_171" data-name="Ellipse 171" cx="9.198" cy="9.435" rx="9.198" ry="9.435" transform="translate(1.471)" fill="#202020"/>
                <g id="Group_1178" data-name="Group 1178" transform="translate(17.86 12.023)">
                  <path id="Path_1877" data-name="Path 1877" d="M270.9,327.484a1.635,1.635,0,0,1,2.028-.535c1.366.518.748,3.835-1.3,4.258a1.621,1.621,0,0,1-1.31-.343S270.816,328.415,270.9,327.484Z" transform="translate(-270.136 -326.631)" fill="#f5f5f3"/>
                  <path id="Path_1877_-_Outline" data-name="Path 1877 - Outline" d="M271.843,326.277a2.229,2.229,0,0,1,.789.155,1.221,1.221,0,0,1,.69.707,2.4,2.4,0,0,1,.144,1.1,3.033,3.033,0,0,1-2.16,2.792,1.617,1.617,0,0,1-.317.028,1.721,1.721,0,0,1-1.145-.41.175.175,0,0,1-.056-.168c.005-.024.5-2.451.58-3.36a.175.175,0,0,1,.026-.079A1.766,1.766,0,0,1,271.843,326.277Zm-.854,4.426a1.317,1.317,0,0,0,.244-.02,2.648,2.648,0,0,0,1.883-2.476c.045-.57-.09-1.25-.608-1.446a1.881,1.881,0,0,0-.665-.132,1.424,1.424,0,0,0-1.13.565c-.081.856-.464,2.774-.56,3.249A1.4,1.4,0,0,0,270.988,330.7Z" transform="translate(-269.783 -326.277)" fill="#202020"/>
                  <g id="Group_1177" data-name="Group 1177" transform="translate(0.466 1.358)">
                    <g id="Group_1176" data-name="Group 1176">
                      <path id="Path_1878" data-name="Path 1878" d="M271.279,331.9a.094.094,0,0,1-.084-.134,2.4,2.4,0,0,1,1.341-1.332,1.3,1.3,0,0,1,.73-.019.094.094,0,0,1-.059.178,1.141,1.141,0,0,0-.629.024,2.17,2.17,0,0,0-1.214,1.231A.094.094,0,0,1,271.279,331.9Z" transform="translate(-271.186 -330.368)" fill="#202020"/>
                    </g>
                    <path id="Path_1879" data-name="Path 1879" d="M273.375,333.776a.094.094,0,0,1-.072-.153.907.907,0,0,0,.246-.756,1.355,1.355,0,0,0-.641-.769.094.094,0,0,1,.089-.165,1.521,1.521,0,0,1,.736.9,1.083,1.083,0,0,1-.285.912A.094.094,0,0,1,273.375,333.776Z" transform="translate(-272.303 -331.406)" fill="#202020"/>
                  </g>
                </g>
                <g id="Group_1181" data-name="Group 1181" transform="translate(0 12.023)">
                  <path id="Path_1880" data-name="Path 1880" d="M219.284,327.484a1.636,1.636,0,0,0-2.028-.535c-1.366.518-.748,3.835,1.3,4.258a1.621,1.621,0,0,0,1.31-.343S219.363,328.415,219.284,327.484Z" transform="translate(-216.35 -326.631)" fill="#f5f5f3"/>
                  <path id="Path_1880_-_Outline" data-name="Path 1880 - Outline" d="M217.629,326.277h0a1.766,1.766,0,0,1,1.45.76.176.176,0,0,1,.026.079c.078.909.575,3.336.58,3.36a.175.175,0,0,1-.056.168,1.721,1.721,0,0,1-1.145.41,1.62,1.62,0,0,1-.317-.028,3.034,3.034,0,0,1-2.16-2.792,2.4,2.4,0,0,1,.144-1.1,1.221,1.221,0,0,1,.689-.707A2.23,2.23,0,0,1,217.629,326.277Zm1.13.916a1.414,1.414,0,0,0-1.13-.565h0a1.882,1.882,0,0,0-.665.132c-.517.2-.653.876-.608,1.446a2.68,2.68,0,0,0,1.882,2.476h0a1.319,1.319,0,0,0,.244.02,1.4,1.4,0,0,0,.836-.261C219.224,329.967,218.841,328.049,218.76,327.193Z" transform="translate(-215.997 -326.277)" fill="#202020"/>
                  <g id="Group_1180" data-name="Group 1180" transform="translate(1.082 1.358)">
                    <g id="Group_1179" data-name="Group 1179">
                      <path id="Path_1881" data-name="Path 1881" d="M221.307,331.9a.094.094,0,0,1-.085-.053,2.17,2.17,0,0,0-1.214-1.231,1.141,1.141,0,0,0-.629-.024.094.094,0,0,1-.059-.178,1.3,1.3,0,0,1,.73.019,2.4,2.4,0,0,1,1.341,1.332.094.094,0,0,1-.084.134Z" transform="translate(-219.257 -330.368)" fill="#202020"/>
                    </g>
                    <path id="Path_1882" data-name="Path 1882" d="M221.731,333.776a.094.094,0,0,1-.072-.034,1.083,1.083,0,0,1-.285-.912,1.521,1.521,0,0,1,.736-.9.094.094,0,0,1,.089.165h0a1.355,1.355,0,0,0-.641.769.907.907,0,0,0,.246.756.094.094,0,0,1-.072.153Z" transform="translate(-220.659 -331.406)" fill="#202020"/>
                  </g>
                </g>
                <path id="Path_1883" data-name="Path 1883" d="M240.267,305.045c0,2.126-.219,6.573-1.6,9.213a6.889,6.889,0,0,1-6.239,3.892c-2.806.079-4.9-.946-6.57-4.163s-1.595-8.9-1.595-8.9,0-7.594,7.914-7.594C240.515,297.49,240.267,305.045,240.267,305.045Z" transform="translate(-221.52 -295.026)" fill="#f5f5f3"/>
                <path id="Path_1883_-_Outline" data-name="Path 1883 - Outline" d="M231.795,296.913a8.223,8.223,0,0,1,6.169,2.243,7.008,7.008,0,0,1,1.267,1.83,8.429,8.429,0,0,1,.62,1.782,8.139,8.139,0,0,1,.223,1.894,34.964,34.964,0,0,1-.283,4.436,15.038,15.038,0,0,1-1.336,4.863,7.08,7.08,0,0,1-6.4,3.995c-.1,0-.2,0-.3,0a6.6,6.6,0,0,1-3.631-.95,8.282,8.282,0,0,1-2.815-3.321,11.942,11.942,0,0,1-.973-2.793,24.211,24.211,0,0,1-.474-2.933,31.336,31.336,0,0,1-.17-3.266,7.843,7.843,0,0,1,.126-1.218,9.325,9.325,0,0,1,.884-2.666,6.925,6.925,0,0,1,2.416-2.683A8.548,8.548,0,0,1,231.795,296.913Zm-.043,20.664c.094,0,.192,0,.289,0a6.7,6.7,0,0,0,6.075-3.789,14.672,14.672,0,0,0,1.3-4.736,34.567,34.567,0,0,0,.28-4.389s0,0,0-.006a7.888,7.888,0,0,0-.217-1.812,8.039,8.039,0,0,0-.593-1.7,6.622,6.622,0,0,0-1.2-1.725,7.861,7.861,0,0,0-5.891-2.123,8.174,8.174,0,0,0-4.472,1.156,6.547,6.547,0,0,0-2.283,2.538,9,9,0,0,0-.968,3.709v0a30.873,30.873,0,0,0,.169,3.227,16.258,16.258,0,0,0,1.4,5.584,7.916,7.916,0,0,0,2.68,3.174A6.23,6.23,0,0,0,231.751,317.577Z" transform="translate(-221.134 -294.641)" fill="#202020"/>
                <g id="Group_1182" data-name="Group 1182" transform="translate(4.685 9.095)">
                  <path id="Path_1884" data-name="Path 1884" d="M246.662,330.65V332.1a.609.609,0,0,0,.043.226.6.6,0,0,0,.711.33l.469-.125" transform="translate(-241.164 -326.27)" fill="#f5f5f3"/>
                  <path id="Path_1884_-_Outline" data-name="Path 1884 - Outline" d="M246.965,332.53a.72.72,0,0,1-.676-.441.749.749,0,0,1-.053-.278v-1.445a.142.142,0,1,1,.283,0v1.445a.467.467,0,0,0,.033.173.457.457,0,0,0,.543.245l.469-.125a.142.142,0,0,1,.073.274l-.469.125A.789.789,0,0,1,246.965,332.53Z" transform="translate(-240.88 -325.986)" fill="#202020"/>
                  <circle id="Ellipse_172" data-name="Ellipse 172" cx="0.612" cy="0.612" r="0.612" transform="translate(1.719 2.532)" fill="#202020"/>
                  <circle id="Ellipse_173" data-name="Ellipse 173" cx="0.612" cy="0.612" r="0.612" transform="translate(8.748 2.532)" fill="#202020"/>
                  <path id="Line_33" data-name="Line 33" d="M-.164.921A.082.082,0,0,1-.232.884.082.082,0,0,1-.209.771l1.521-1a.082.082,0,0,1,.113.023A.082.082,0,0,1,1.4-.1l-1.521,1A.081.081,0,0,1-.164.921Z" transform="translate(2.083 3.978)" fill="#202020"/>
                  <path id="Line_34" data-name="Line 34" d="M1.181.931A.081.081,0,0,1,1.132.915L-.213-.1A.082.082,0,0,1-.229-.213.082.082,0,0,1-.115-.229L1.23.784a.082.082,0,0,1-.049.147Z" transform="translate(8.561 3.972)" fill="#202020"/>
                  <path id="Path_1885" data-name="Path 1885" d="M240.258,340.945a4.532,4.532,0,0,0,2.6.548,6.576,6.576,0,0,0,2.778-.548" transform="translate(-236.887 -333.147)" fill="#f5f5f3"/>
                  <path id="Path_1885_-_Outline" data-name="Path 1885 - Outline" d="M242.569,341.35a4.634,4.634,0,0,1-2.682-.577.142.142,0,0,1,.172-.225,2.162,2.162,0,0,0,.572.259,6.316,6.316,0,0,0,1.938.26,7.349,7.349,0,0,0,1.983-.266,4.453,4.453,0,0,0,.731-.266.142.142,0,0,1,.129.252A6.664,6.664,0,0,1,242.569,341.35Z" transform="translate(-236.602 -332.862)" fill="#202020"/>
                  <path id="Path_1886" data-name="Path 1886" d="M245.9,345.048a.082.082,0,0,1-.005-.163,5.521,5.521,0,0,0,1.541-.342.082.082,0,1,1,.065.15,5.579,5.579,0,0,1-1.6.356Z" transform="translate(-240.599 -335.545)" fill="#202020"/>
                  <path id="Path_1887" data-name="Path 1887" d="M234.446,318.114l-4.34,1.121s.2-1.217,1.973-1.66S234.446,318.114,234.446,318.114Z" transform="translate(-230.106 -317.461)" fill="#202020"/>
                  <path id="Path_1888" data-name="Path 1888" d="M251.484,318.114l4.341,1.121s-.2-1.217-1.973-1.66S251.484,318.114,251.484,318.114Z" transform="translate(-244.385 -317.461)" fill="#202020"/>
                </g>
                <path id="Path_1889" data-name="Path 1889" d="M239.359,299.921a4.341,4.341,0,0,0-.214.444,6.245,6.245,0,0,0-2.659-3.712c-2.277-1.588-5.871-1.57-5.871-1.57-4.3.774-5.815,3.239-6.318,5.251a4.374,4.374,0,0,0-.2-.413s-1.349,4.292-.2,6.374a10.043,10.043,0,0,0,.8-4.152c.73-1,2.278-2.283,5.29-1.789,3.32.544,5.035-.538,5.911-1.636a5.962,5.962,0,0,0,2.846,3.689,10.2,10.2,0,0,0,.812,3.889C240.709,304.213,239.359,299.921,239.359,299.921Z" transform="translate(-220.964 -293.419)" fill="#202020"/>
              </g>
            </g>
          </g>
        </g>
      </g>
    </g>
  </g>
</svg>
