<svg xmlns="http://www.w3.org/2000/svg" xmlns:xlink="http://www.w3.org/1999/xlink" width="452.353" height="633.874" viewBox="0 0 452.353 633.874">
  <defs>
    <filter id="Path_1890" x="0" y="15.914" width="398.366" height="617.96" filterUnits="userSpaceOnUse">
      <feOffset dy="23" input="SourceAlpha"/>
      <feGaussianBlur stdDeviation="27.5" result="blur"/>
      <feFlood flood-color="#827fa0" flood-opacity="0.435"/>
      <feComposite operator="in" in2="blur"/>
    </filter>
    <filter id="Path_1890-2" x="0" y="15.914" width="398.366" height="617.96" filterUnits="userSpaceOnUse">
      <feOffset dy="3" input="SourceAlpha"/>
      <feGaussianBlur stdDeviation="3" result="blur-2"/>
      <feFlood flood-color="#fa2d2d" result="color"/>
      <feComposite operator="out" in="SourceGraphic" in2="blur-2"/>
      <feComposite operator="in" in="color"/>
      <feComposite operator="in" in2="SourceGraphic"/>
    </filter>
    <clipPath id="clip-path">
      <ellipse id="Ellipse_163" data-name="Ellipse 163" cx="13.749" cy="13.749" rx="13.749" ry="13.749" fill="none"/>
    </clipPath>
  </defs>
  <g id="Group_1206" data-name="Group 1206" transform="translate(-732.281 -2579.106)">
    <g id="Group_1202" data-name="Group 1202" transform="translate(-32 -87)">
      <g id="Group_1199" data-name="Group 1199" transform="translate(319 21.5)">
        <g data-type="innerShadowGroup">
          <g transform="matrix(1, 0, 0, 1, 445.28, 2644.61)" filter="url(#Path_1890)">
            <g id="Path_1890-3" data-name="Path 1890" transform="translate(82.5 75.41)" fill="#fff">
              <path d="M 200.3662567138672 448.4601135253906 L 33.00000381469727 448.4601135253906 C 29.15056610107422 448.4601135253906 25.41862869262695 447.7071533203125 21.90787887573242 446.2222900390625 C 18.51469039916992 444.7870483398438 15.46631622314453 442.7314758300781 12.84744071960449 440.1126708984375 C 10.22862815856934 437.4938049316406 8.173066139221191 434.4454040527344 6.737815856933594 431.0522155761719 C 5.252940654754639 427.5414733886719 4.500003337860107 423.8095397949219 4.500003337860107 419.9601135253906 L 4.500003337860107 32.99997711181641 C 4.500003337860107 29.15054130554199 5.252940654754639 25.41860389709473 6.737815856933594 21.9078540802002 C 8.173066139221191 18.5146656036377 10.22862815856934 15.4662914276123 12.84744071960449 12.84741687774658 C 15.46631622314453 10.22860431671143 18.51469039916992 8.173041343688965 21.90787887573242 6.737791538238525 C 25.41862869262695 5.25291633605957 29.15056610107422 4.499979019165039 33.00000381469727 4.499979019165039 L 200.3662567138672 4.499979019165039 C 204.2156982421875 4.499979019165039 207.9476318359375 5.25291633605957 211.4583740234375 6.737791538238525 C 214.8516235351562 8.173041343688965 217.8999481201172 10.22860431671143 220.5188140869141 12.84741687774658 C 223.1376342773438 15.4662914276123 225.1932525634766 18.5146656036377 226.6284484863281 21.9078540802002 C 228.1133117675781 25.41860389709473 228.8662567138672 29.15054130554199 228.8662567138672 32.99997711181641 L 228.8662567138672 419.9601135253906 C 228.8662567138672 423.8095397949219 228.1133117675781 427.5414733886719 226.6284484863281 431.0522155761719 C 225.1932525634766 434.4454040527344 223.1376342773438 437.4938049316406 220.5188140869141 440.1126708984375 C 217.8999481201172 442.7314758300781 214.8516235351562 444.7870483398438 211.4583740234375 446.2222900390625 C 207.9476318359375 447.7071533203125 204.2156982421875 448.4601135253906 200.3662567138672 448.4601135253906 Z" stroke="none"/>
              <path d="M 33 8.999969482421875 C 19.76632690429688 8.999969482421875 9 19.76629638671875 9 32.99996948242188 L 9 419.9600524902344 C 9 433.1936950683594 19.76632690429688 443.9600524902344 33 443.9600524902344 L 200.3662567138672 443.9600524902344 C 213.5999298095703 443.9600524902344 224.3662567138672 433.1936950683594 224.3662567138672 419.9600524902344 L 224.3662567138672 32.99996948242188 C 224.3662567138672 19.76629638671875 213.5999298095703 8.999969482421875 200.3662567138672 8.999969482421875 L 33 8.999969482421875 M 33 -3.0517578125e-05 L 200.3662567138672 -3.0517578125e-05 C 218.5916595458984 -3.0517578125e-05 233.3662567138672 14.77456665039062 233.3662567138672 32.99996948242188 L 233.3662567138672 419.9600524902344 C 233.3662567138672 438.1855163574219 218.5916595458984 452.9600524902344 200.3662567138672 452.9600524902344 L 33 452.9600524902344 C 14.77459716796875 452.9600524902344 0 438.1855163574219 0 419.9600524902344 L 0 32.99996948242188 C 0 14.77456665039062 14.77459716796875 -3.0517578125e-05 33 -3.0517578125e-05 Z" stroke="none" fill="#d5d4dd"/>
            </g>
          </g>
          <g id="Path_1890-4" data-name="Path 1890" transform="translate(527.781 2720.02)" fill="#fff">
            <path d="M 200.3662567138672 448.4601135253906 L 33.00000381469727 448.4601135253906 C 29.15056610107422 448.4601135253906 25.41862869262695 447.7071533203125 21.90787887573242 446.2222900390625 C 18.51469039916992 444.7870483398438 15.46631622314453 442.7314758300781 12.84744071960449 440.1126708984375 C 10.22862815856934 437.4938049316406 8.173066139221191 434.4454040527344 6.737815856933594 431.0522155761719 C 5.252940654754639 427.5414733886719 4.500003337860107 423.8095397949219 4.500003337860107 419.9601135253906 L 4.500003337860107 32.99997711181641 C 4.500003337860107 29.15054130554199 5.252940654754639 25.41860389709473 6.737815856933594 21.9078540802002 C 8.173066139221191 18.5146656036377 10.22862815856934 15.4662914276123 12.84744071960449 12.84741687774658 C 15.46631622314453 10.22860431671143 18.51469039916992 8.173041343688965 21.90787887573242 6.737791538238525 C 25.41862869262695 5.25291633605957 29.15056610107422 4.499979019165039 33.00000381469727 4.499979019165039 L 200.3662567138672 4.499979019165039 C 204.2156982421875 4.499979019165039 207.9476318359375 5.25291633605957 211.4583740234375 6.737791538238525 C 214.8516235351562 8.173041343688965 217.8999481201172 10.22860431671143 220.5188140869141 12.84741687774658 C 223.1376342773438 15.4662914276123 225.1932525634766 18.5146656036377 226.6284484863281 21.9078540802002 C 228.1133117675781 25.41860389709473 228.8662567138672 29.15054130554199 228.8662567138672 32.99997711181641 L 228.8662567138672 419.9601135253906 C 228.8662567138672 423.8095397949219 228.1133117675781 427.5414733886719 226.6284484863281 431.0522155761719 C 225.1932525634766 434.4454040527344 223.1376342773438 437.4938049316406 220.5188140869141 440.1126708984375 C 217.8999481201172 442.7314758300781 214.8516235351562 444.7870483398438 211.4583740234375 446.2222900390625 C 207.9476318359375 447.7071533203125 204.2156982421875 448.4601135253906 200.3662567138672 448.4601135253906 Z" stroke="none"/>
            <path d="M 33 8.999969482421875 C 19.76632690429688 8.999969482421875 9 19.76629638671875 9 32.99996948242188 L 9 419.9600524902344 C 9 433.1936950683594 19.76632690429688 443.9600524902344 33 443.9600524902344 L 200.3662567138672 443.9600524902344 C 213.5999298095703 443.9600524902344 224.3662567138672 433.1936950683594 224.3662567138672 419.9600524902344 L 224.3662567138672 32.99996948242188 C 224.3662567138672 19.76629638671875 213.5999298095703 8.999969482421875 200.3662567138672 8.999969482421875 L 33 8.999969482421875 M 33 -3.0517578125e-05 L 200.3662567138672 -3.0517578125e-05 C 218.5916595458984 -3.0517578125e-05 233.3662567138672 14.77456665039062 233.3662567138672 32.99996948242188 L 233.3662567138672 419.9600524902344 C 233.3662567138672 438.1855163574219 218.5916595458984 452.9600524902344 200.3662567138672 452.9600524902344 L 33 452.9600524902344 C 14.77459716796875 452.9600524902344 0 438.1855163574219 0 419.9600524902344 L 0 32.99996948242188 C 0 14.77456665039062 14.77459716796875 -3.0517578125e-05 33 -3.0517578125e-05 Z" stroke="none"/>
          </g>
          <g transform="matrix(1, 0, 0, 1, 445.28, 2644.61)" filter="url(#Path_1890-2)">
            <g id="Path_1890-5" data-name="Path 1890" transform="translate(82.5 75.41)" fill="#fff">
              <path d="M 200.3662567138672 448.4601135253906 L 33.00000381469727 448.4601135253906 C 29.15056610107422 448.4601135253906 25.41862869262695 447.7071533203125 21.90787887573242 446.2222900390625 C 18.51469039916992 444.7870483398438 15.46631622314453 442.7314758300781 12.84744071960449 440.1126708984375 C 10.22862815856934 437.4938049316406 8.173066139221191 434.4454040527344 6.737815856933594 431.0522155761719 C 5.252940654754639 427.5414733886719 4.500003337860107 423.8095397949219 4.500003337860107 419.9601135253906 L 4.500003337860107 32.99997711181641 C 4.500003337860107 29.15054130554199 5.252940654754639 25.41860389709473 6.737815856933594 21.9078540802002 C 8.173066139221191 18.5146656036377 10.22862815856934 15.4662914276123 12.84744071960449 12.84741687774658 C 15.46631622314453 10.22860431671143 18.51469039916992 8.173041343688965 21.90787887573242 6.737791538238525 C 25.41862869262695 5.25291633605957 29.15056610107422 4.499979019165039 33.00000381469727 4.499979019165039 L 200.3662567138672 4.499979019165039 C 204.2156982421875 4.499979019165039 207.9476318359375 5.25291633605957 211.4583740234375 6.737791538238525 C 214.8516235351562 8.173041343688965 217.8999481201172 10.22860431671143 220.5188140869141 12.84741687774658 C 223.1376342773438 15.4662914276123 225.1932525634766 18.5146656036377 226.6284484863281 21.9078540802002 C 228.1133117675781 25.41860389709473 228.8662567138672 29.15054130554199 228.8662567138672 32.99997711181641 L 228.8662567138672 419.9601135253906 C 228.8662567138672 423.8095397949219 228.1133117675781 427.5414733886719 226.6284484863281 431.0522155761719 C 225.1932525634766 434.4454040527344 223.1376342773438 437.4938049316406 220.5188140869141 440.1126708984375 C 217.8999481201172 442.7314758300781 214.8516235351562 444.7870483398438 211.4583740234375 446.2222900390625 C 207.9476318359375 447.7071533203125 204.2156982421875 448.4601135253906 200.3662567138672 448.4601135253906 Z" stroke="none"/>
              <path d="M 33 8.999969482421875 C 19.76632690429688 8.999969482421875 9 19.76629638671875 9 32.99996948242188 L 9 419.9600524902344 C 9 433.1936950683594 19.76632690429688 443.9600524902344 33 443.9600524902344 L 200.3662567138672 443.9600524902344 C 213.5999298095703 443.9600524902344 224.3662567138672 433.1936950683594 224.3662567138672 419.9600524902344 L 224.3662567138672 32.99996948242188 C 224.3662567138672 19.76629638671875 213.5999298095703 8.999969482421875 200.3662567138672 8.999969482421875 L 33 8.999969482421875 M 33 -3.0517578125e-05 L 200.3662567138672 -3.0517578125e-05 C 218.5916595458984 -3.0517578125e-05 233.3662567138672 14.77456665039062 233.3662567138672 32.99996948242188 L 233.3662567138672 419.9600524902344 C 233.3662567138672 438.1855163574219 218.5916595458984 452.9600524902344 200.3662567138672 452.9600524902344 L 33 452.9600524902344 C 14.77459716796875 452.9600524902344 0 438.1855163574219 0 419.9600524902344 L 0 32.99996948242188 C 0 14.77456665039062 14.77459716796875 -3.0517578125e-05 33 -3.0517578125e-05 Z" stroke="none"/>
            </g>
          </g>
          <g id="Path_1890-6" data-name="Path 1890" transform="translate(527.781 2720.02)" fill="none">
            <path d="M 200.3662567138672 448.4601135253906 L 33.00000381469727 448.4601135253906 C 29.15056610107422 448.4601135253906 25.41862869262695 447.7071533203125 21.90787887573242 446.2222900390625 C 18.51469039916992 444.7870483398438 15.46631622314453 442.7314758300781 12.84744071960449 440.1126708984375 C 10.22862815856934 437.4938049316406 8.173066139221191 434.4454040527344 6.737815856933594 431.0522155761719 C 5.252940654754639 427.5414733886719 4.500003337860107 423.8095397949219 4.500003337860107 419.9601135253906 L 4.500003337860107 32.99997711181641 C 4.500003337860107 29.15054130554199 5.252940654754639 25.41860389709473 6.737815856933594 21.9078540802002 C 8.173066139221191 18.5146656036377 10.22862815856934 15.4662914276123 12.84744071960449 12.84741687774658 C 15.46631622314453 10.22860431671143 18.51469039916992 8.173041343688965 21.90787887573242 6.737791538238525 C 25.41862869262695 5.25291633605957 29.15056610107422 4.499979019165039 33.00000381469727 4.499979019165039 L 200.3662567138672 4.499979019165039 C 204.2156982421875 4.499979019165039 207.9476318359375 5.25291633605957 211.4583740234375 6.737791538238525 C 214.8516235351562 8.173041343688965 217.8999481201172 10.22860431671143 220.5188140869141 12.84741687774658 C 223.1376342773438 15.4662914276123 225.1932525634766 18.5146656036377 226.6284484863281 21.9078540802002 C 228.1133117675781 25.41860389709473 228.8662567138672 29.15054130554199 228.8662567138672 32.99997711181641 L 228.8662567138672 419.9601135253906 C 228.8662567138672 423.8095397949219 228.1133117675781 427.5414733886719 226.6284484863281 431.0522155761719 C 225.1932525634766 434.4454040527344 223.1376342773438 437.4938049316406 220.5188140869141 440.1126708984375 C 217.8999481201172 442.7314758300781 214.8516235351562 444.7870483398438 211.4583740234375 446.2222900390625 C 207.9476318359375 447.7071533203125 204.2156982421875 448.4601135253906 200.3662567138672 448.4601135253906 Z" stroke="none"/>
            <path d="M 33 8.999969482421875 C 19.76632690429688 8.999969482421875 9 19.76629638671875 9 32.99996948242188 L 9 419.9600524902344 C 9 433.1936950683594 19.76632690429688 443.9600524902344 33 443.9600524902344 L 200.3662567138672 443.9600524902344 C 213.5999298095703 443.9600524902344 224.3662567138672 433.1936950683594 224.3662567138672 419.9600524902344 L 224.3662567138672 32.99996948242188 C 224.3662567138672 19.76629638671875 213.5999298095703 8.999969482421875 200.3662567138672 8.999969482421875 L 33 8.999969482421875 M 33 -3.0517578125e-05 L 200.3662567138672 -3.0517578125e-05 C 218.5916595458984 -3.0517578125e-05 233.3662567138672 14.77456665039062 233.3662567138672 32.99996948242188 L 233.3662567138672 419.9600524902344 C 233.3662567138672 438.1855163574219 218.5916595458984 452.9600524902344 200.3662567138672 452.9600524902344 L 33 452.9600524902344 C 14.77459716796875 452.9600524902344 0 438.1855163574219 0 419.9600524902344 L 0 32.99996948242188 C 0 14.77456665039062 14.77459716796875 -3.0517578125e-05 33 -3.0517578125e-05 Z" stroke="none" fill="#d5d4dd"/>
          </g>
        </g>
        <rect id="Rectangle_535" data-name="Rectangle 535" width="111.71" height="23.719" rx="11.86" transform="translate(588.609 2738)" fill="#eeedf4"/>
        <text id="Our_startup_to_do_list_" data-name="Our startup
to do list 🚀" transform="translate(561.493 2820)" fill="#523b72" font-size="19" font-family="Inter-Black, Inter" font-weight="800"><tspan x="0" y="0">Our startup</tspan><tspan x="0" y="26">to do list </tspan><tspan y="26" font-family="SegoeUIEmoji, Segoe UI Emoji" font-weight="400">🚀</tspan></text>
        <g id="Group_1196" data-name="Group 1196" transform="translate(561 2944.233)">
          <g id="Group_1142" data-name="Group 1142" transform="translate(0 0)">
            <rect id="Rectangle_533" data-name="Rectangle 533" width="142" height="34" rx="15" transform="translate(0 -0.459)" fill="#c7dbf7" opacity="0.7"/>
            <text id="Write_launch_content" data-name="Write launch content" transform="translate(29 20.541)" fill="#2c1c43" font-size="9" font-family="Inter-Bold, Inter" font-weight="700"><tspan x="0" y="0">Write launch content</tspan></text>
            <g id="Ellipse_159" data-name="Ellipse 159" transform="translate(12 10.541)" fill="#fff" stroke="#b0c5e3" stroke-width="1">
              <ellipse cx="6" cy="6.5" rx="6" ry="6.5" stroke="none"/>
              <ellipse cx="6" cy="6.5" rx="5.5" ry="6" fill="none"/>
            </g>
          </g>
          <g id="Group_1157" data-name="Group 1157" transform="translate(94.488 24.526)">
            <ellipse id="Ellipse_160" data-name="Ellipse 160" cx="13.749" cy="13.749" rx="13.749" ry="13.749" transform="translate(0.128 0.128)" fill="#fff"/>
            <path id="Ellipse_160_-_Outline" data-name="Ellipse 160 - Outline" d="M13.377-.5a13.812,13.812,0,0,1,7.759,2.37,13.917,13.917,0,0,1,5.027,6.105,13.858,13.858,0,0,1-1.279,13.16,13.917,13.917,0,0,1-6.105,5.027,13.859,13.859,0,0,1-13.16-1.279A13.917,13.917,0,0,1,.591,18.778,13.858,13.858,0,0,1,1.87,5.618,13.917,13.917,0,0,1,7.975.591,13.79,13.79,0,0,1,13.377-.5Zm0,27.5A13.625,13.625,0,0,0,18.679.826a13.625,13.625,0,0,0-10.6,25.1A13.536,13.536,0,0,0,13.377,27Z" transform="translate(0.5 0.5)"/>
            <g id="Group_1156" data-name="Group 1156" transform="translate(0.128 0.128)">
              <g id="Group_1155" data-name="Group 1155" clip-path="url(#clip-path)">
                <g id="Group_1154" data-name="Group 1154" transform="translate(-2.896 1.652)">
                  <g id="Group_1144" data-name="Group 1144" transform="translate(0 14.251)">
                    <path id="Path_1832" data-name="Path 1832" d="M355.861,224.25c.473-4.98-4.325-6.756-4.325-6.756l-8.077-3.841h-8.1l-8.077,3.841s-4.71,1.729-4.325,6.756" transform="translate(-322.794 -204.902)" fill="#f5f5f3"/>
                    <path id="Path_1832_-_Outline" data-name="Path 1832 - Outline" d="M355.581,223.838l-.291-.028a6.108,6.108,0,0,0-.464-3.084,6.273,6.273,0,0,0-1.475-2.041,7.7,7.7,0,0,0-2.291-1.48l-.012-.005L343,213.373h-8.029l-8.047,3.827-.012.005a7.522,7.522,0,0,0-2.265,1.47,6.143,6.143,0,0,0-1.964,5.138l-.291.022a6.436,6.436,0,0,1,2.063-5.381,7.7,7.7,0,0,1,2.35-1.521l8.071-3.838a.146.146,0,0,1,.063-.014h8.1a.146.146,0,0,1,.063.014l8.071,3.838a7.9,7.9,0,0,1,2.382,1.538,6.562,6.562,0,0,1,1.543,2.136A6.4,6.4,0,0,1,355.581,223.838Z" transform="translate(-322.369 -204.476)" fill="#202020"/>
                    <g id="Group_1143" data-name="Group 1143" transform="translate(10.404)">
                      <path id="Path_1833" data-name="Path 1833" d="M373.881,188.552h0v-8.6h-8.168v8.6l-2.02.961s.159,3.82,6.19,3.9,6.637-3.573,6.637-3.573Z" transform="translate(-363.547 -179.801)" fill="#f5f5f3"/>
                      <path id="Path_1833_-_Outline" data-name="Path 1833 - Outline" d="M369.655,193.135h-.2a9.423,9.423,0,0,1-3.567-.656,4.928,4.928,0,0,1-1.9-1.379,3.676,3.676,0,0,1-.867-2.007.146.146,0,0,1,.083-.138l1.937-.921v-8.513a.146.146,0,0,1,.146-.146h8.168a.146.146,0,0,1,.146.146v8.514l2.557,1.249a.146.146,0,0,1,.08.155,3.807,3.807,0,0,1-1.067,1.866,5.518,5.518,0,0,1-1.991,1.263A9.922,9.922,0,0,1,369.655,193.135Zm-6.233-3.961a2.952,2.952,0,0,0,.108.484,3.731,3.731,0,0,0,.694,1.27,4.654,4.654,0,0,0,1.791,1.287,9.155,9.155,0,0,0,3.443.627h.2a9.633,9.633,0,0,0,3.42-.549,5.23,5.23,0,0,0,1.887-1.195,3.737,3.737,0,0,0,.963-1.6l-2.534-1.238a.146.146,0,0,1-.082-.131v-8.459h-7.876v8.459a.146.146,0,0,1-.083.132Z" transform="translate(-363.121 -179.375)" fill="#202020"/>
                      <path id="Path_1834" data-name="Path 1834" d="M368.215,215.265s.835,3.16,5.259,2.927c4.374-.231,5.024-2.71,5.024-2.71" transform="translate(-366.915 -206.103)" fill="#f5f5f3"/>
                      <path id="Path_1834_-_Outline" data-name="Path 1834 - Outline" d="M372.606,218.241a6.47,6.47,0,0,1-2.283-.38,4.613,4.613,0,0,1-1.652-1.05,3.942,3.942,0,0,1-1.008-1.617l.282-.075-.141.037.141-.038a3.727,3.727,0,0,0,.944,1.5,4.328,4.328,0,0,0,1.548.977,6.5,6.5,0,0,0,2.619.346,8.313,8.313,0,0,0,2.585-.511,4.724,4.724,0,0,0,1.477-.893,2.813,2.813,0,0,0,.829-1.2l.282.074a3.07,3.07,0,0,1-.915,1.339,5.014,5.014,0,0,1-1.567.949,8.6,8.6,0,0,1-2.676.531Q372.834,218.241,372.606,218.241Z" transform="translate(-366.503 -205.993)" fill="#202020"/>
                    </g>
                    <path id="Path_1835" data-name="Path 1835" d="M371.847,190.462s.684,3.471,3.7,3.869c3.476.459,4.4-3.781,4.4-3.781a5.53,5.53,0,0,1-3.965,1.928A5.315,5.315,0,0,1,371.847,190.462Z" transform="translate(-359.216 -187.632)" fill="#202020"/>
                  </g>
                  <g id="Group_1153" data-name="Group 1153" transform="translate(8.407)">
                    <path id="Path_1836" data-name="Path 1836" d="M374.047,128.357c-.333-1.209-1.117-2.915-3.915-4.187-4.622-2.1-6.121,1.852-6.121,1.852-2.1-.9-3.326,1.062-3.66,2.081a3.667,3.667,0,0,0,.022,1.7l.924,5.06.115-3.482a4.49,4.49,0,0,1,3.053-3.29l4.224-.335,4.533,6.9.95-4.891A4.861,4.861,0,0,0,374.047,128.357Z" transform="translate(-358.988 -123.555)" fill="#202020"/>
                    <g id="Group_1147" data-name="Group 1147" transform="translate(13.434 10.754)">
                      <path id="Path_1837" data-name="Path 1837" d="M408.979,166.814a1.36,1.36,0,0,1,1.686-.445c1.136.431.622,3.189-1.082,3.541a1.349,1.349,0,0,1-1.09-.285S408.913,167.587,408.979,166.814Z" transform="translate(-408.348 -166.104)" fill="#f5f5f3"/>
                      <path id="Path_1837_-_Outline" data-name="Path 1837 - Outline" d="M409.635,165.678a1.855,1.855,0,0,1,.656.129,1.015,1.015,0,0,1,.573.588,1.991,1.991,0,0,1,.119.911,2.523,2.523,0,0,1-1.8,2.321,1.348,1.348,0,0,1-.263.023,1.432,1.432,0,0,1-.952-.341.146.146,0,0,1-.047-.139c0-.02.418-2.038.482-2.793a.146.146,0,0,1,.022-.065A1.469,1.469,0,0,1,409.635,165.678Zm-.711,3.68a1.1,1.1,0,0,0,.2-.017,2.2,2.2,0,0,0,1.566-2.059,1.7,1.7,0,0,0-.1-.776.722.722,0,0,0-.407-.427,1.564,1.564,0,0,0-.553-.11,1.185,1.185,0,0,0-.94.47c-.067.712-.386,2.306-.466,2.7A1.161,1.161,0,0,0,408.924,169.358Z" transform="translate(-407.922 -165.678)" fill="#202020"/>
                      <g id="Group_1146" data-name="Group 1146" transform="translate(0.387 1.129)">
                        <g id="Group_1145" data-name="Group 1145">
                          <path id="Path_1838" data-name="Path 1838" d="M409.517,171.372a.078.078,0,0,1-.07-.112,1.994,1.994,0,0,1,1.115-1.108,1.082,1.082,0,0,1,.607-.016.078.078,0,0,1-.049.148.95.95,0,0,0-.523.02,1.8,1.8,0,0,0-1.009,1.023A.078.078,0,0,1,409.517,171.372Z" transform="translate(-409.44 -170.101)" fill="#202020"/>
                        </g>
                        <path id="Path_1839" data-name="Path 1839" d="M411.678,173.323a.078.078,0,0,1-.06-.127.754.754,0,0,0,.2-.629,1.127,1.127,0,0,0-.533-.639.078.078,0,0,1,.074-.137,1.265,1.265,0,0,1,.612.746.9.9,0,0,1-.237.759A.078.078,0,0,1,411.678,173.323Z" transform="translate(-410.787 -171.353)" fill="#202020"/>
                      </g>
                    </g>
                    <g id="Group_1150" data-name="Group 1150" transform="translate(0 10.754)">
                      <path id="Path_1840" data-name="Path 1840" d="M358.165,166.814a1.36,1.36,0,0,0-1.686-.445c-1.136.431-.622,3.189,1.082,3.541a1.349,1.349,0,0,0,1.09-.285S358.23,167.587,358.165,166.814Z" transform="translate(-355.725 -166.104)" fill="#f5f5f3"/>
                      <path id="Path_1840_-_Outline" data-name="Path 1840 - Outline" d="M356.656,165.678h0a1.469,1.469,0,0,1,1.206.633.146.146,0,0,1,.022.065c.064.756.478,2.773.482,2.793a.146.146,0,0,1-.047.139,1.432,1.432,0,0,1-.952.341,1.348,1.348,0,0,1-.263-.023,2.523,2.523,0,0,1-1.8-2.321,1.991,1.991,0,0,1,.119-.911,1.015,1.015,0,0,1,.573-.588A1.854,1.854,0,0,1,356.656,165.678Zm.94.762a1.177,1.177,0,0,0-.94-.47h0a1.564,1.564,0,0,0-.552.11.722.722,0,0,0-.407.427,1.7,1.7,0,0,0-.1.776,2.2,2.2,0,0,0,1.565,2.059h0a1.1,1.1,0,0,0,.2.017,1.161,1.161,0,0,0,.7-.217C357.983,168.746,357.664,167.151,357.6,166.439Z" transform="translate(-355.3 -165.678)" fill="#202020"/>
                      <g id="Group_1149" data-name="Group 1149" transform="translate(0.9 1.129)">
                        <g id="Group_1148" data-name="Group 1148">
                          <path id="Path_1841" data-name="Path 1841" d="M360.529,171.372a.078.078,0,0,1-.07-.044,1.8,1.8,0,0,0-1.019-1.026.931.931,0,0,0-.513-.017.078.078,0,1,1-.049-.148,1.081,1.081,0,0,1,.607.016,1.994,1.994,0,0,1,1.115,1.108.078.078,0,0,1-.07.112Z" transform="translate(-358.825 -170.101)" fill="#202020"/>
                        </g>
                        <path id="Path_1842" data-name="Path 1842" d="M361.407,173.323a.078.078,0,0,1-.06-.028.9.9,0,0,1-.237-.759,1.265,1.265,0,0,1,.612-.746.078.078,0,1,1,.074.137,1.126,1.126,0,0,0-.533.639.754.754,0,0,0,.2.629.078.078,0,0,1-.06.127Z" transform="translate(-360.516 -171.353)" fill="#202020"/>
                      </g>
                    </g>
                    <path id="Path_1843" data-name="Path 1843" d="M376.211,140.97c0,1.663-.163,5.142-1.185,7.206a5.093,5.093,0,0,1-4.628,3.044c-2.081.062-3.632-.74-4.874-3.256S364.341,141,364.341,141s0-5.94,5.871-5.94C376.395,135.061,376.211,140.97,376.211,140.97Z" transform="translate(-362.032 -132.124)" fill="#f5f5f3"/>
                    <path id="Path_1843_-_Outline" data-name="Path 1843 - Outline" d="M369.786,134.489a5.985,5.985,0,0,1,4.487,1.656,5.422,5.422,0,0,1,1,1.448,7.114,7.114,0,0,1,.663,2.953,28.8,28.8,0,0,1-.21,3.469,12.25,12.25,0,0,1-.99,3.8,5.68,5.68,0,0,1-1.944,2.283,5.321,5.321,0,0,1-2.81.842c-.075,0-.15,0-.223,0a4.713,4.713,0,0,1-2.7-.744,6.392,6.392,0,0,1-2.088-2.6,9.675,9.675,0,0,1-.721-2.183,19.892,19.892,0,0,1-.351-2.293c-.138-1.4-.127-2.51-.126-2.553a6.435,6.435,0,0,1,.094-.951,7.567,7.567,0,0,1,.655-2.083,5.326,5.326,0,0,1,1.792-2.1A6.1,6.1,0,0,1,369.786,134.489Zm-.032,16.163c.07,0,.142,0,.214,0a5.034,5.034,0,0,0,2.659-.794,5.393,5.393,0,0,0,1.843-2.169,11.973,11.973,0,0,0,.962-3.707,28.507,28.507,0,0,0,.208-3.434s0,0,0,0a6.543,6.543,0,0,0-.171-1.465,6.465,6.465,0,0,0-.467-1.361,5.128,5.128,0,0,0-.94-1.366,5.708,5.708,0,0,0-4.276-1.565,5.819,5.819,0,0,0-3.307.9,5.034,5.034,0,0,0-1.694,1.98,7.39,7.39,0,0,0-.723,2.914v0c0,.011-.013,1.123.125,2.525a13.284,13.284,0,0,0,1.043,4.372,6.114,6.114,0,0,0,1.988,2.483A4.432,4.432,0,0,0,369.754,150.652Z" transform="translate(-361.607 -131.698)" fill="#202020"/>
                    <g id="Group_1152" data-name="Group 1152" transform="translate(3.373 8.546)">
                      <path id="Path_1844" data-name="Path 1844" d="M385.95,160.737v3.782a.451.451,0,0,0,.032.167.443.443,0,0,0,.528.245l.456-.121" transform="translate(-381.499 -159.79)" fill="#f5f5f3"/>
                      <path id="Path_1844_-_Outline" data-name="Path 1844 - Outline" d="M386.08,164.747a.534.534,0,0,1-.5-.327.555.555,0,0,1-.04-.206v-3.782a.1.1,0,1,1,.21,0v3.782a.345.345,0,0,0,.025.129.339.339,0,0,0,.4.182l.456-.121a.1.1,0,1,1,.054.2l-.456.121A.586.586,0,0,1,386.08,164.747Z" transform="translate(-381.192 -159.484)" fill="#202020"/>
                      <ellipse id="Ellipse_161" data-name="Ellipse 161" cx="0.454" cy="0.454" rx="0.454" ry="0.454" transform="translate(1.649 2.031)" fill="#202020"/>
                      <ellipse id="Ellipse_162" data-name="Ellipse 162" cx="0.454" cy="0.454" rx="0.454" ry="0.454" transform="translate(6.863 2.031)" fill="#202020"/>
                      <path id="Line_29" data-name="Line 29" d="M-.177.628A.061.061,0,0,1-.227.6.061.061,0,0,1-.21.517L.918-.227A.061.061,0,0,1,1-.21a.061.061,0,0,1-.017.084L-.143.618A.06.06,0,0,1-.177.628Z" transform="translate(1.973 3.158)" fill="#202020"/>
                      <path id="Line_30" data-name="Line 30" d="M.821.636A.06.06,0,0,1,.785.624l-1-.752A.061.061,0,0,1-.225-.213.061.061,0,0,1-.14-.225l1,.752A.061.061,0,0,1,.821.636Z" transform="translate(6.779 3.154)" fill="#202020"/>
                      <path id="Path_1845" data-name="Path 1845" d="M391.335,157.569l3.593.928s-.163-1.008-1.633-1.374S391.335,157.569,391.335,157.569Z" transform="translate(-385.509 -157.029)" fill="#202020"/>
                      <path id="Path_1846" data-name="Path 1846" d="M372.106,157.569l-3.593.928s.163-1.008,1.633-1.374S372.106,157.569,372.106,157.569Z" transform="translate(-368.513 -157.029)" fill="#202020"/>
                      <path id="Path_1847" data-name="Path 1847" d="M385.107,184.985a2.641,2.641,0,0,1-.731-.093.061.061,0,1,1,.036-.116,2.883,2.883,0,0,0,1.415,0,.061.061,0,0,1,.029.118A3.084,3.084,0,0,1,385.107,184.985Z" transform="translate(-380.295 -177.691)" fill="#202020"/>
                      <g id="Group_1151" data-name="Group 1151" transform="translate(1.267 5.408)">
                        <path id="Path_1848" data-name="Path 1848" d="M376.79,179.279a.557.557,0,0,0,.233-.321c.073-.268.1-.7-.412-.744-.757-.071-2.026,1.386-3.135.551C373.476,178.766,374.536,180.735,376.79,179.279Z" transform="translate(-373.476 -178.212)" fill="#202020"/>
                        <path id="Path_1849" data-name="Path 1849" d="M387.315,179.279a.556.556,0,0,1-.232-.321c-.073-.268-.1-.7.41-.744.754-.071,2.017,1.386,3.122.551C390.614,178.766,389.558,180.735,387.315,179.279Z" transform="translate(-383.579 -178.212)" fill="#202020"/>
                      </g>
                    </g>
                    <path id="Path_1850" data-name="Path 1850" d="M373.987,134.13c-.153.051-5.088-1.317-5.088-1.317l-4.332,1.317,0,.006c-3.808,1.03-2.13,4.636-2.13,4.636a5.864,5.864,0,0,0,2.6-3.829c.693.911,2.271,2.253,5.536,2.19,3.344-.065,3.942,2.163,3.942,2.163S374.14,134.079,373.987,134.13Z" transform="translate(-360.343 -130.449)" fill="#202020"/>
                  </g>
                </g>
              </g>
            </g>
          </g>
        </g>
        <g id="Group_1197" data-name="Group 1197" transform="translate(561.379 2877)">
          <g id="Group_1140" data-name="Group 1140" transform="translate(0 20.027)">
            <rect id="Rectangle_533-2" data-name="Rectangle 533" width="160.681" height="33.828" rx="15" transform="translate(0 0)" fill="#dffcd2" opacity="0.7"/>
            <text id="Finish_Social_media_design" data-name="Finish Social media design" transform="translate(29.215 20.532)" fill="#2c1c43" font-size="9" font-family="Inter-Bold, Inter" font-weight="700"><tspan x="0" y="0">Finish Social media design</tspan></text>
            <g id="Ellipse_159-2" data-name="Ellipse 159" transform="translate(11.532 10.763)" fill="#fff" stroke="#b8e2a5" stroke-width="1">
              <ellipse cx="6.15" cy="6.15" rx="6.15" ry="6.15" stroke="none"/>
              <ellipse cx="6.15" cy="6.15" rx="5.65" ry="5.65" fill="none"/>
            </g>
          </g>
          <g id="Group_1171" data-name="Group 1171" transform="translate(37.634 0)">
            <ellipse id="Ellipse_164" data-name="Ellipse 164" cx="13.749" cy="13.749" rx="13.749" ry="13.749" transform="translate(0.128 0.128)" fill="#fff"/>
            <path id="Ellipse_164_-_Outline" data-name="Ellipse 164 - Outline" d="M13.377-.5a13.812,13.812,0,0,1,7.759,2.37,13.917,13.917,0,0,1,5.027,6.105,13.858,13.858,0,0,1-1.279,13.16,13.917,13.917,0,0,1-6.105,5.027,13.859,13.859,0,0,1-13.16-1.279A13.917,13.917,0,0,1,.591,18.778,13.858,13.858,0,0,1,1.87,5.618,13.917,13.917,0,0,1,7.975.591,13.79,13.79,0,0,1,13.377-.5Zm0,27.5A13.625,13.625,0,0,0,18.679.826a13.625,13.625,0,0,0-10.6,25.1A13.536,13.536,0,0,0,13.377,27Z" transform="translate(0.5 0.5)"/>
            <g id="Group_1170" data-name="Group 1170" transform="translate(0.128 0.128)">
              <g id="Group_1169" data-name="Group 1169" clip-path="url(#clip-path)">
                <g id="Group_1168" data-name="Group 1168" transform="translate(-2.39 2.914)">
                  <g id="Group_1158" data-name="Group 1158" transform="translate(0 15.071)">
                    <path id="Path_1851" data-name="Path 1851" d="M212.279,214.976l-8.077-3.841h-8.1l-8.077,3.841s-4.71,1.729-4.325,6.756h32.9C217.076,216.751,212.279,214.976,212.279,214.976Z" transform="translate(-183.536 -202.384)" fill="#202020"/>
                    <path id="Path_1851_-_Outline" data-name="Path 1851 - Outline" d="M195.681,210.563h8.1a.146.146,0,0,1,.063.014l8.071,3.838a7.9,7.9,0,0,1,2.382,1.538,6.562,6.562,0,0,1,1.543,2.137,6.4,6.4,0,0,1,.488,3.23.146.146,0,0,1-.145.132h-32.9a.146.146,0,0,1-.146-.135,6.436,6.436,0,0,1,2.063-5.381,7.7,7.7,0,0,1,2.35-1.521l8.071-3.838A.146.146,0,0,1,195.681,210.563Zm8.062.292h-8.029l-8.047,3.827-.012.005a7.522,7.522,0,0,0-2.265,1.47,6.131,6.131,0,0,0-1.973,5h32.628a6.071,6.071,0,0,0-.476-2.952,6.273,6.273,0,0,0-1.475-2.041,7.7,7.7,0,0,0-2.291-1.48l-.012-.005Z" transform="translate(-183.111 -201.959)" fill="#202020"/>
                    <path id="Path_1852" data-name="Path 1852" d="M234.622,186.035h0v-8.6h-8.168v8.6l-2.021.961s.16,3.819,6.19,3.9,6.637-3.573,6.637-3.573Z" transform="translate(-213.885 -177.284)" fill="#f5f5f3"/>
                    <path id="Path_1852_-_Outline" data-name="Path 1852 - Outline" d="M230.4,190.618h-.2a9.424,9.424,0,0,1-3.567-.656,4.928,4.928,0,0,1-1.9-1.379,3.676,3.676,0,0,1-.867-2.007.146.146,0,0,1,.083-.138l1.937-.921V177a.146.146,0,0,1,.146-.146H234.2a.146.146,0,0,1,.146.146v8.513l2.557,1.249a.146.146,0,0,1,.08.155,3.807,3.807,0,0,1-1.067,1.866,5.518,5.518,0,0,1-1.991,1.263A9.922,9.922,0,0,1,230.4,190.618Zm-6.233-3.96a2.947,2.947,0,0,0,.108.484,3.732,3.732,0,0,0,.694,1.27,4.655,4.655,0,0,0,1.791,1.287,9.156,9.156,0,0,0,3.443.627h.2a9.652,9.652,0,0,0,3.406-.543,5.247,5.247,0,0,0,1.887-1.186,4.01,4.01,0,0,0,.82-1.183,2.963,2.963,0,0,0,.156-.435l-2.534-1.238a.146.146,0,0,1-.082-.131V177.15h-7.876v8.459a.146.146,0,0,1-.083.132Z" transform="translate(-213.459 -176.858)" fill="#202020"/>
                    <path id="Path_1853" data-name="Path 1853" d="M232.589,187.944s.684,3.471,3.7,3.869c3.476.459,4.4-3.781,4.4-3.781a5.53,5.53,0,0,1-3.965,1.928A5.315,5.315,0,0,1,232.589,187.944Z" transform="translate(-219.958 -185.114)" fill="#202020"/>
                  </g>
                  <g id="Group_1167" data-name="Group 1167" transform="translate(7.991)">
                    <path id="Path_1854" data-name="Path 1854" d="M216.97,130.352a3.129,3.129,0,0,0-1.369-2.739,2.2,2.2,0,0,1-.878-3.087,2.164,2.164,0,0,1,.52-.6.605.605,0,0,0,.177-.71,1.444,1.444,0,0,1,.212-1.4,1.41,1.41,0,0,1,1.5-.545c1.141.156.815-1.1.8-2.029-.024-1.349,2.345-2.357,4.768-.07,0,0,.394.564,1.666.208s3.864-1.158,5.712.386.03,3.178.666,4.425,1.212,2.405-.182,3.475-1.375,3.36-1.375,3.36Z" transform="translate(-214.411 -117.822)" fill="#202020"/>
                    <g id="Group_1161" data-name="Group 1161" transform="translate(13.85 11.574)">
                      <path id="Path_1855" data-name="Path 1855" d="M269.721,164.3a1.36,1.36,0,0,1,1.686-.445c1.136.431.622,3.189-1.082,3.54a1.348,1.348,0,0,1-1.09-.285S269.655,165.069,269.721,164.3Z" transform="translate(-269.09 -163.586)" fill="#f5f5f3"/>
                      <path id="Path_1855_-_Outline" data-name="Path 1855 - Outline" d="M270.377,163.16a1.854,1.854,0,0,1,.656.129,1.015,1.015,0,0,1,.573.588,1.991,1.991,0,0,1,.12.91,2.523,2.523,0,0,1-1.8,2.321,1.344,1.344,0,0,1-.264.023,1.431,1.431,0,0,1-.952-.341.146.146,0,0,1-.047-.139c0-.02.418-2.038.482-2.793a.145.145,0,0,1,.022-.065A1.469,1.469,0,0,1,270.377,163.16Zm-.711,3.68a1.094,1.094,0,0,0,.2-.017,2.2,2.2,0,0,0,1.566-2.059,1.7,1.7,0,0,0-.1-.776.722.722,0,0,0-.407-.427,1.565,1.565,0,0,0-.553-.11,1.176,1.176,0,0,0-.94.47c-.067.712-.386,2.306-.466,2.7A1.16,1.16,0,0,0,269.666,166.84Z" transform="translate(-268.664 -163.16)" fill="#202020"/>
                      <g id="Group_1160" data-name="Group 1160" transform="translate(0.387 1.129)">
                        <g id="Group_1159" data-name="Group 1159">
                          <path id="Path_1856" data-name="Path 1856" d="M270.259,168.854a.078.078,0,0,1-.07-.112,2,2,0,0,1,1.115-1.108,1.081,1.081,0,0,1,.607-.016.078.078,0,0,1-.049.148h0a.948.948,0,0,0-.523.02,1.8,1.8,0,0,0-1.009,1.024A.078.078,0,0,1,270.259,168.854Z" transform="translate(-270.182 -167.584)" fill="#202020"/>
                        </g>
                        <path id="Path_1857" data-name="Path 1857" d="M272.42,170.806a.078.078,0,0,1-.06-.127.754.754,0,0,0,.2-.629,1.127,1.127,0,0,0-.533-.639.078.078,0,0,1,.074-.137,1.265,1.265,0,0,1,.612.745.9.9,0,0,1-.237.759A.078.078,0,0,1,272.42,170.806Z" transform="translate(-271.529 -168.835)" fill="#202020"/>
                      </g>
                    </g>
                    <g id="Group_1164" data-name="Group 1164" transform="translate(0.416 11.574)">
                      <path id="Path_1858" data-name="Path 1858" d="M218.907,164.3a1.36,1.36,0,0,0-1.686-.445c-1.136.431-.622,3.189,1.082,3.54a1.348,1.348,0,0,0,1.09-.285S218.972,165.069,218.907,164.3Z" transform="translate(-216.467 -163.586)" fill="#f5f5f3"/>
                      <path id="Path_1858_-_Outline" data-name="Path 1858 - Outline" d="M217.4,163.16h0a1.469,1.469,0,0,1,1.205.632.146.146,0,0,1,.022.065c.064.756.478,2.773.482,2.793a.146.146,0,0,1-.047.139,1.431,1.431,0,0,1-.952.341,1.344,1.344,0,0,1-.264-.023,2.523,2.523,0,0,1-1.8-2.321,1.99,1.99,0,0,1,.119-.91,1.015,1.015,0,0,1,.573-.588A1.854,1.854,0,0,1,217.4,163.16Zm.94.761a1.176,1.176,0,0,0-.94-.47h0a1.565,1.565,0,0,0-.553.11.722.722,0,0,0-.407.427,1.7,1.7,0,0,0-.1.776,2.2,2.2,0,0,0,1.565,2.059h0a1.1,1.1,0,0,0,.2.017,1.16,1.16,0,0,0,.7-.217C218.725,166.228,218.406,164.633,218.339,163.922Z" transform="translate(-216.042 -163.16)" fill="#202020"/>
                      <g id="Group_1163" data-name="Group 1163" transform="translate(0.9 1.129)">
                        <g id="Group_1162" data-name="Group 1162">
                          <path id="Path_1859" data-name="Path 1859" d="M221.272,168.854a.078.078,0,0,1-.07-.044,1.8,1.8,0,0,0-1.009-1.024.948.948,0,0,0-.523-.02.078.078,0,0,1-.049-.148,1.081,1.081,0,0,1,.607.016,2,2,0,0,1,1.115,1.108.078.078,0,0,1-.07.112Z" transform="translate(-219.567 -167.584)" fill="#202020"/>
                        </g>
                        <path id="Path_1860" data-name="Path 1860" d="M222.149,170.806a.078.078,0,0,1-.06-.028.9.9,0,0,1-.237-.759,1.264,1.264,0,0,1,.612-.745.078.078,0,1,1,.074.137,1.126,1.126,0,0,0-.532.639.754.754,0,0,0,.2.629.078.078,0,0,1-.06.127Z" transform="translate(-221.258 -168.835)" fill="#202020"/>
                      </g>
                    </g>
                    <path id="Path_1861" data-name="Path 1861" d="M236.953,138.453c0,1.663-.163,5.141-1.185,7.206a5.093,5.093,0,0,1-4.628,3.044c-2.081.062-3.632-.74-4.874-3.256s-1.183-6.963-1.183-6.963,0-5.94,5.871-5.94C237.136,132.544,236.953,138.453,236.953,138.453Z" transform="translate(-222.358 -128.786)" fill="#f5f5f3"/>
                    <path id="Path_1861_-_Outline" data-name="Path 1861 - Outline" d="M230.528,131.972a5.985,5.985,0,0,1,4.487,1.656,5.422,5.422,0,0,1,1,1.448,7.115,7.115,0,0,1,.663,2.953,28.8,28.8,0,0,1-.21,3.468,12.25,12.25,0,0,1-.99,3.8,5.68,5.68,0,0,1-1.944,2.283,5.319,5.319,0,0,1-2.811.842c-.075,0-.15,0-.223,0a4.714,4.714,0,0,1-2.7-.744,6.393,6.393,0,0,1-2.088-2.6,9.676,9.676,0,0,1-.721-2.183,19.872,19.872,0,0,1-.351-2.293c-.138-1.4-.127-2.51-.126-2.553a6.443,6.443,0,0,1,.094-.951,7.567,7.567,0,0,1,.655-2.083,5.326,5.326,0,0,1,1.792-2.1A6.1,6.1,0,0,1,230.528,131.972Zm-.032,16.162c.07,0,.142,0,.214,0a5.032,5.032,0,0,0,2.659-.794,5.393,5.393,0,0,0,1.843-2.169,11.973,11.973,0,0,0,.962-3.707,28.5,28.5,0,0,0,.208-3.434s0,0,0,0a6.542,6.542,0,0,0-.171-1.465,6.464,6.464,0,0,0-.467-1.361,5.129,5.129,0,0,0-.94-1.366,5.708,5.708,0,0,0-4.276-1.565,5.816,5.816,0,0,0-3.312.9,5.038,5.038,0,0,0-1.694,1.986,7.371,7.371,0,0,0-.719,2.905s0,0,0,0-.013,1.123.125,2.525a13.282,13.282,0,0,0,1.043,4.372,6.115,6.115,0,0,0,1.988,2.483A4.432,4.432,0,0,0,230.5,148.135Z" transform="translate(-221.932 -128.36)" fill="#202020"/>
                    <g id="Group_1166" data-name="Group 1166" transform="translate(2.589 9.333)">
                      <path id="Path_1862" data-name="Path 1862" d="M246.692,158.22V162a.451.451,0,0,0,.032.167.442.442,0,0,0,.528.245l.456-.121" transform="translate(-241.04 -157.24)" fill="#f5f5f3"/>
                      <path id="Path_1862_-_Outline" data-name="Path 1862 - Outline" d="M246.822,162.229a.534.534,0,0,1-.5-.327.554.554,0,0,1-.04-.206v-3.782a.1.1,0,1,1,.21,0V161.7a.345.345,0,0,0,.025.129.339.339,0,0,0,.4.182l.456-.121a.1.1,0,0,1,.054.2l-.456.121A.585.585,0,0,1,246.822,162.229Z" transform="translate(-240.734 -156.934)" fill="#202020"/>
                      <ellipse id="Ellipse_165" data-name="Ellipse 165" cx="0.454" cy="0.454" rx="0.454" ry="0.454" transform="translate(2.85 2.064)" fill="#202020"/>
                      <ellipse id="Ellipse_166" data-name="Ellipse 166" cx="0.454" cy="0.454" rx="0.454" ry="0.454" transform="translate(8.064 2.064)" fill="#202020"/>
                      <path id="Line_31" data-name="Line 31" d="M-.177.628A.061.061,0,0,1-.227.6.061.061,0,0,1-.21.517L.918-.227A.061.061,0,0,1,1-.21a.061.061,0,0,1-.017.084L-.143.618A.06.06,0,0,1-.177.628Z" transform="translate(3.174 3.191)" fill="#202020"/>
                      <path id="Line_32" data-name="Line 32" d="M.821.636A.06.06,0,0,1,.785.624l-1-.752A.061.061,0,0,1-.225-.213.061.061,0,0,1-.14-.225l1,.752A.061.061,0,0,1,.821.636Z" transform="translate(7.98 3.187)" fill="#202020"/>
                      <path id="Path_1863" data-name="Path 1863" d="M240.514,177a3.361,3.361,0,0,0,1.925.406A4.878,4.878,0,0,0,244.5,177" transform="translate(-236.439 -171.228)" fill="#f5f5f3"/>
                      <path id="Path_1863_-_Outline" data-name="Path 1863 - Outline" d="M242.133,177.208a3.437,3.437,0,0,1-1.989-.428.1.1,0,0,1,.127-.167h0a1.6,1.6,0,0,0,.424.192,4.684,4.684,0,0,0,1.438.193,4.811,4.811,0,0,0,2.013-.395.1.1,0,1,1,.1.187A4.943,4.943,0,0,1,242.133,177.208Z" transform="translate(-236.133 -170.922)" fill="#202020"/>
                      <path id="Path_1864" data-name="Path 1864" d="M244.936,180.848a.061.061,0,0,1,0-.121,6.608,6.608,0,0,0,1.652-.254.061.061,0,1,1,.048.111,6.558,6.558,0,0,1-1.7.264Z" transform="translate(-239.687 -173.808)" fill="#202020"/>
                      <path id="Path_1865" data-name="Path 1865" d="M252.278,155.051l3.593.928s-.163-1.008-1.633-1.374S252.278,155.051,252.278,155.051Z" transform="translate(-245.2 -154.478)" fill="#202020"/>
                      <path id="Path_1866" data-name="Path 1866" d="M233.429,155.051l-3.593.928s.163-1.008,1.633-1.374S233.429,155.051,233.429,155.051Z" transform="translate(-228.487 -154.478)" fill="#202020"/>
                      <g id="Group_1165" data-name="Group 1165" transform="translate(0 0)">
                        <path id="Ellipse_167" data-name="Ellipse 167" d="M2.25,0A2.25,2.25,0,1,1,0,2.25,2.253,2.253,0,0,1,2.25,0Zm0,4.379A2.129,2.129,0,1,0,.121,2.25,2.131,2.131,0,0,0,2.25,4.379Z" transform="translate(0 1.803) rotate(-22.625)" fill="#202020"/>
                        <path id="Ellipse_168" data-name="Ellipse 168" d="M2.25,0A2.25,2.25,0,1,1,0,2.25,2.253,2.253,0,0,1,2.25,0Zm0,4.379A2.129,2.129,0,1,0,.121,2.25,2.131,2.131,0,0,0,2.25,4.379Z" transform="matrix(0.896, -0.443, 0.443, 0.896, 6.13, 1.994)" fill="#202020"/>
                        <path id="Path_1867" data-name="Path 1867" d="M246.3,165.245a.06.06,0,0,1-.045-.021,1.2,1.2,0,0,0-.948-.506,1.17,1.17,0,0,0-.778.5.061.061,0,0,1-.1-.066,1.272,1.272,0,0,1,.87-.554,1.307,1.307,0,0,1,1.049.547.061.061,0,0,1-.045.1Z" transform="translate(-239.346 -161.988)" fill="#202020"/>
                      </g>
                    </g>
                    <path id="Path_1868" data-name="Path 1868" d="M223.358,142.969s1.556-4.675-.117-7.436l-.631,4.4Z" transform="translate(-220.516 -131.012)" fill="#202020"/>
                    <path id="Path_1869" data-name="Path 1869" d="M227.709,134.2a1.836,1.836,0,0,1,3-1.071,7.278,7.278,0,0,0,8.113.206,7.659,7.659,0,0,0-6.474-3.208C226.443,130.128,227.709,134.2,227.709,134.2Z" transform="translate(-224.229 -126.986)" fill="#202020"/>
                  </g>
                </g>
              </g>
            </g>
          </g>
        </g>
        <g id="Group_1198" data-name="Group 1198" transform="translate(561.379 2986.512)">
          <g id="Group_1141" data-name="Group 1141" transform="translate(0 18.143)">
            <rect id="Rectangle_533-3" data-name="Rectangle 533" width="151.456" height="33.828" rx="15" transform="translate(0 0)" fill="#ffe7e5" opacity="0.7"/>
            <text id="Contact_brand_agency" data-name="Contact brand agency" transform="translate(29.215 20.532)" fill="#2c1c43" font-size="9" font-family="Inter-Bold, Inter" font-weight="700"><tspan x="0" y="0">Contact brand agency</tspan></text>
            <g id="Ellipse_159-3" data-name="Ellipse 159" transform="translate(11.532 10.763)" fill="#fff" stroke="#f2d4d1" stroke-width="1">
              <ellipse cx="6.15" cy="6.15" rx="6.15" ry="6.15" stroke="none"/>
              <ellipse cx="6.15" cy="6.15" rx="5.65" ry="5.65" fill="none"/>
            </g>
          </g>
          <g id="Group_1187" data-name="Group 1187" transform="translate(34.559 0)">
            <ellipse id="Ellipse_170" data-name="Ellipse 170" cx="13.749" cy="13.749" rx="13.749" ry="13.749" transform="translate(0.128 0.128)" fill="#fff"/>
            <path id="Ellipse_170_-_Outline" data-name="Ellipse 170 - Outline" d="M13.377-.5a13.812,13.812,0,0,1,7.759,2.37,13.917,13.917,0,0,1,5.027,6.105,13.858,13.858,0,0,1-1.279,13.16,13.917,13.917,0,0,1-6.105,5.027,13.859,13.859,0,0,1-13.16-1.279A13.917,13.917,0,0,1,.591,18.778,13.858,13.858,0,0,1,1.87,5.618,13.917,13.917,0,0,1,7.975.591,13.79,13.79,0,0,1,13.377-.5Zm0,27.5A13.625,13.625,0,0,0,18.679.826a13.625,13.625,0,0,0-10.6,25.1A13.536,13.536,0,0,0,13.377,27Z" transform="translate(0.5 0.5)"/>
            <g id="Group_1186" data-name="Group 1186" transform="translate(0.128 0.128)">
              <g id="Group_1185" data-name="Group 1185" clip-path="url(#clip-path)">
                <g id="Group_1184" data-name="Group 1184" transform="translate(-1.483 2.449)">
                  <g id="Group_1175" data-name="Group 1175" transform="translate(0 7.253)">
                    <path id="Path_1870" data-name="Path 1870" d="M228.416,333.019h-8.009a4.125,4.125,0,0,1-4.125-4.125l1.058-10.411h14.142l1.058,10.411A4.125,4.125,0,0,1,228.416,333.019Z" transform="translate(-209.332 -318.483)" fill="#202020"/>
                    <g id="Group_1172" data-name="Group 1172" transform="translate(0 5.493)">
                      <path id="Path_1871" data-name="Path 1871" d="M219.535,360.613c.38-4.7-4.482-7-4.482-7l-7.3-3.981v-9.037h-6.3v9.037l-7.3,3.981s-4.881,2.153-4.482,7" transform="translate(-189.498 -340.443)" fill="#f5f5f3"/>
                      <path id="Path_1871_-_Outline" data-name="Path 1871 - Outline" d="M189.081,360.185a6.409,6.409,0,0,1,.545-3.215,7.417,7.417,0,0,1,1.591-2.225,9.168,9.168,0,0,1,2.429-1.71l7.214-3.935v-8.947a.151.151,0,0,1,.151-.151h6.3a.151.151,0,0,1,.151.151V349.1l7.214,3.936A9.724,9.724,0,0,1,217.1,354.8a7.7,7.7,0,0,1,1.589,2.231,6.257,6.257,0,0,1,.553,3.151l-.3-.024a5.958,5.958,0,0,0-.525-3,7.4,7.4,0,0,0-1.523-2.141,9.586,9.586,0,0,0-2.348-1.716l-.008,0-7.3-3.981a.151.151,0,0,1-.079-.133V340.3h-6v8.886a.151.151,0,0,1-.079.133l-7.3,3.981-.011.006a9.008,9.008,0,0,0-2.353,1.659A7.109,7.109,0,0,0,189.9,357.1a6.11,6.11,0,0,0-.517,3.059Z" transform="translate(-189.057 -340.001)" fill="#202020"/>
                      <path id="Path_1872" data-name="Path 1872" d="M235.883,355.918s.522,2.83,3,2.881c3.256.067,3.2-2.755,3.2-2.755s-.444.83-2.962.833C236.318,356.881,235.883,355.918,235.883,355.918Z" transform="translate(-223.929 -351.855)" fill="#202020"/>
                    </g>
                    <g id="Group_1173" data-name="Group 1173" transform="translate(8.369 14.53)">
                      <path id="Path_1873" data-name="Path 1873" d="M223.081,386.561l-1.238-6.714a.151.151,0,0,1,.031-.122l3.434-4.269a.151.151,0,0,1,.269.095v10.982h-.3V375.98l-3.121,3.88,1.225,6.645Z" transform="translate(-221.84 -375.4)" fill="#202020"/>
                      <path id="Path_1874" data-name="Path 1874" d="M262.481,386.561l-.3-.055,1.225-6.645-3.121-3.88v10.553h-.3V375.551a.151.151,0,0,1,.269-.095l3.434,4.269a.151.151,0,0,1,.031.122Z" transform="translate(-250.247 -375.4)" fill="#202020"/>
                    </g>
                    <g id="Group_1174" data-name="Group 1174" transform="translate(11.851 15.526)">
                      <path id="Path_1875" data-name="Path 1875" d="M235.883,379.8s2.523,2.367,6.3,0" transform="translate(-235.779 -379.675)" fill="#f5f5f3"/>
                      <path id="Path_1875_-_Outline" data-name="Path 1875 - Outline" d="M238.57,380.632a4.985,4.985,0,0,1-1.294-.17,4.492,4.492,0,0,1-1.8-.924l.207-.221a4.278,4.278,0,0,0,1.685.856,4.776,4.776,0,0,0,1.925.1,6.555,6.555,0,0,0,2.511-.976l.161.256a6.847,6.847,0,0,1-2.639,1.02A5.291,5.291,0,0,1,238.57,380.632Z" transform="translate(-235.478 -379.301)" fill="#202020"/>
                      <path id="Path_1876" data-name="Path 1876" d="M235.883,385.051s2.523,2.368,6.3,0" transform="translate(-235.779 -383.583)" fill="#f5f5f3"/>
                      <path id="Path_1876_-_Outline" data-name="Path 1876 - Outline" d="M238.57,385.88a4.984,4.984,0,0,1-1.294-.17,4.491,4.491,0,0,1-1.8-.924l.207-.221a4.278,4.278,0,0,0,1.685.856,4.775,4.775,0,0,0,1.925.1,6.554,6.554,0,0,0,2.511-.976l.161.256a6.846,6.846,0,0,1-2.639,1.02A5.29,5.29,0,0,1,238.57,385.88Z" transform="translate(-235.478 -383.209)" fill="#202020"/>
                    </g>
                  </g>
                  <g id="Group_1183" data-name="Group 1183" transform="translate(6.878)">
                    <ellipse id="Ellipse_171" data-name="Ellipse 171" cx="7.071" cy="7.253" rx="7.071" ry="7.253" transform="translate(1.131)" fill="#202020"/>
                    <g id="Group_1178" data-name="Group 1178" transform="translate(13.731 9.243)">
                      <path id="Path_1877" data-name="Path 1877" d="M270.76,327.328a1.257,1.257,0,0,1,1.559-.411c1.05.4.575,2.949-1,3.274a1.246,1.246,0,0,1-1.007-.263S270.7,328.043,270.76,327.328Z" transform="translate(-270.177 -326.671)" fill="#f5f5f3"/>
                      <path id="Path_1877_-_Outline" data-name="Path 1877 - Outline" d="M271.367,326.277a1.714,1.714,0,0,1,.607.119.939.939,0,0,1,.53.544,1.841,1.841,0,0,1,.11.842,2.332,2.332,0,0,1-1.661,2.146,1.243,1.243,0,0,1-.244.021,1.323,1.323,0,0,1-.88-.315.135.135,0,0,1-.043-.129c0-.019.386-1.884.446-2.583a.135.135,0,0,1,.02-.06A1.358,1.358,0,0,1,271.367,326.277Zm-.657,3.4a1.015,1.015,0,0,0,.188-.016,2.036,2.036,0,0,0,1.448-1.9c.035-.439-.069-.961-.467-1.112a1.446,1.446,0,0,0-.511-.1,1.1,1.1,0,0,0-.869.434c-.062.658-.357,2.132-.431,2.5A1.073,1.073,0,0,0,270.71,329.68Z" transform="translate(-269.783 -326.277)" fill="#202020"/>
                      <g id="Group_1177" data-name="Group 1177" transform="translate(0.358 1.044)">
                        <g id="Group_1176" data-name="Group 1176">
                          <path id="Path_1878" data-name="Path 1878" d="M271.258,331.542a.072.072,0,0,1-.065-.1,1.844,1.844,0,0,1,1.031-1.024,1,1,0,0,1,.561-.014.072.072,0,0,1-.045.137.877.877,0,0,0-.483.018,1.669,1.669,0,0,0-.933.946A.072.072,0,0,1,271.258,331.542Z" transform="translate(-271.186 -330.368)" fill="#202020"/>
                        </g>
                        <path id="Path_1879" data-name="Path 1879" d="M273.256,333.347a.072.072,0,0,1-.056-.118.7.7,0,0,0,.189-.581,1.042,1.042,0,0,0-.493-.591.072.072,0,0,1,.068-.127,1.169,1.169,0,0,1,.566.689.833.833,0,0,1-.219.7A.072.072,0,0,1,273.256,333.347Z" transform="translate(-272.432 -331.525)" fill="#202020"/>
                      </g>
                    </g>
                    <g id="Group_1181" data-name="Group 1181" transform="translate(0 9.243)">
                      <path id="Path_1880" data-name="Path 1880" d="M218.646,327.328a1.257,1.257,0,0,0-1.559-.411c-1.05.4-.575,2.949,1,3.274a1.246,1.246,0,0,0,1.007-.263S218.707,328.043,218.646,327.328Z" transform="translate(-216.391 -326.671)" fill="#f5f5f3"/>
                      <path id="Path_1880_-_Outline" data-name="Path 1880 - Outline" d="M217.252,326.277h0a1.358,1.358,0,0,1,1.114.585.135.135,0,0,1,.02.06c.06.7.442,2.564.446,2.583a.135.135,0,0,1-.043.129,1.323,1.323,0,0,1-.88.315,1.245,1.245,0,0,1-.244-.021A2.333,2.333,0,0,1,216,327.782a1.841,1.841,0,0,1,.11-.842.938.938,0,0,1,.53-.544A1.714,1.714,0,0,1,217.252,326.277Zm.869.7a1.087,1.087,0,0,0-.869-.434h0a1.447,1.447,0,0,0-.511.1c-.4.151-.5.673-.467,1.112a2.06,2.06,0,0,0,1.447,1.9h0a1.015,1.015,0,0,0,.187.016,1.073,1.073,0,0,0,.643-.2C218.478,329.114,218.184,327.639,218.121,326.981Z" transform="translate(-215.997 -326.277)" fill="#202020"/>
                      <g id="Group_1180" data-name="Group 1180" transform="translate(0.832 1.044)">
                        <g id="Group_1179" data-name="Group 1179">
                          <path id="Path_1881" data-name="Path 1881" d="M220.833,331.542a.072.072,0,0,1-.065-.041,1.669,1.669,0,0,0-.933-.946.877.877,0,0,0-.483-.018.072.072,0,0,1-.045-.137,1,1,0,0,1,.561.014,1.844,1.844,0,0,1,1.031,1.024.072.072,0,0,1-.065.1Z" transform="translate(-219.257 -330.368)" fill="#202020"/>
                        </g>
                        <path id="Path_1882" data-name="Path 1882" d="M221.644,333.347a.072.072,0,0,1-.056-.026.833.833,0,0,1-.219-.7,1.17,1.17,0,0,1,.566-.689.072.072,0,0,1,.068.127h0a1.042,1.042,0,0,0-.493.591.7.7,0,0,0,.189.581.072.072,0,0,1-.056.118Z" transform="translate(-220.82 -331.525)" fill="#202020"/>
                      </g>
                    </g>
                    <path id="Path_1883" data-name="Path 1883" d="M236.568,303.3c0,1.634-.168,5.054-1.228,7.083a5.3,5.3,0,0,1-4.8,2.992c-2.157.061-3.764-.728-5.051-3.2s-1.226-6.844-1.226-6.844,0-5.839,6.084-5.839C236.758,297.49,236.568,303.3,236.568,303.3Z" transform="translate(-222.154 -295.596)" fill="#f5f5f3"/>
                    <path id="Path_1883_-_Outline" data-name="Path 1883 - Outline" d="M229.92,296.913a6.322,6.322,0,0,1,4.743,1.724,5.388,5.388,0,0,1,.974,1.407,6.479,6.479,0,0,1,.477,1.37,6.258,6.258,0,0,1,.172,1.456,26.885,26.885,0,0,1-.218,3.411,11.561,11.561,0,0,1-1.027,3.738,5.443,5.443,0,0,1-4.923,3.071c-.078,0-.155,0-.231,0a5.074,5.074,0,0,1-2.792-.73,6.367,6.367,0,0,1-2.164-2.553,9.181,9.181,0,0,1-.748-2.148,18.616,18.616,0,0,1-.364-2.255,24.085,24.085,0,0,1-.131-2.511,6.028,6.028,0,0,1,.1-.937,7.169,7.169,0,0,1,.68-2.05,5.324,5.324,0,0,1,1.858-2.063A6.572,6.572,0,0,1,229.92,296.913Zm-.033,15.887c.073,0,.147,0,.222,0a5.15,5.15,0,0,0,4.67-2.913,11.28,11.28,0,0,0,1-3.641,26.574,26.574,0,0,0,.215-3.374s0,0,0,0a6.064,6.064,0,0,0-.167-1.393,6.182,6.182,0,0,0-.456-1.3,5.091,5.091,0,0,0-.919-1.326,6.043,6.043,0,0,0-4.529-1.632,6.284,6.284,0,0,0-3.438.889,5.033,5.033,0,0,0-1.755,1.951,6.921,6.921,0,0,0-.744,2.851v0a23.74,23.74,0,0,0,.13,2.481,12.5,12.5,0,0,0,1.08,4.293,6.086,6.086,0,0,0,2.06,2.44A4.79,4.79,0,0,0,229.887,312.8Z" transform="translate(-221.725 -295.166)" fill="#202020"/>
                    <g id="Group_1182" data-name="Group 1182" transform="translate(3.602 6.992)">
                      <path id="Path_1884" data-name="Path 1884" d="M246.662,330.65v1.111a.468.468,0,0,0,.033.174.459.459,0,0,0,.547.254l.36-.1" transform="translate(-242.435 -327.283)" fill="#f5f5f3"/>
                      <path id="Path_1884_-_Outline" data-name="Path 1884 - Outline" d="M246.8,332a.553.553,0,0,1-.52-.339.576.576,0,0,1-.041-.214v-1.111a.109.109,0,1,1,.218,0v1.111a.359.359,0,0,0,.025.133.351.351,0,0,0,.418.189l.36-.1a.109.109,0,0,1,.056.21l-.36.1A.606.606,0,0,1,246.8,332Z" transform="translate(-242.118 -326.965)" fill="#202020"/>
                      <ellipse id="Ellipse_172" data-name="Ellipse 172" cx="0.47" cy="0.47" rx="0.47" ry="0.47" transform="translate(1.322 1.947)" fill="#202020"/>
                      <ellipse id="Ellipse_173" data-name="Ellipse 173" cx="0.47" cy="0.47" rx="0.47" ry="0.47" transform="translate(6.726 1.947)" fill="#202020"/>
                      <path id="Line_33" data-name="Line 33" d="M-.183.651A.063.063,0,0,1-.236.623.063.063,0,0,1-.218.536L.951-.236a.063.063,0,0,1,.087.018.063.063,0,0,1-.018.087L-.149.641A.062.062,0,0,1-.183.651Z" transform="translate(1.658 3.115)" fill="#202020"/>
                      <path id="Line_34" data-name="Line 34" d="M.851.659A.063.063,0,0,1,.813.646L-.221-.133A.063.063,0,0,1-.233-.221.063.063,0,0,1-.145-.233L.889.546A.063.063,0,0,1,.851.659Z" transform="translate(6.639 3.111)" fill="#202020"/>
                      <path id="Path_1885" data-name="Path 1885" d="M240.258,340.945a3.484,3.484,0,0,0,2,.421,5.055,5.055,0,0,0,2.136-.421" transform="translate(-237.666 -334.95)" fill="#f5f5f3"/>
                      <path id="Path_1885_-_Outline" data-name="Path 1885 - Outline" d="M241.936,341.158a3.563,3.563,0,0,1-2.062-.444.109.109,0,0,1,.132-.173,1.66,1.66,0,0,0,.44.2,4.856,4.856,0,0,0,1.49.2,5.65,5.65,0,0,0,1.524-.2,3.429,3.429,0,0,0,.562-.2.109.109,0,0,1,.1.194A5.123,5.123,0,0,1,241.936,341.158Z" transform="translate(-237.349 -334.632)" fill="#202020"/>
                      <path id="Path_1886" data-name="Path 1886" d="M245.878,344.93a.063.063,0,0,1,0-.125,4.247,4.247,0,0,0,1.185-.263.063.063,0,0,1,.05.115,4.289,4.289,0,0,1-1.227.273Z" transform="translate(-241.805 -337.624)" fill="#202020"/>
                      <path id="Path_1887" data-name="Path 1887" d="M233.443,317.963l-3.337.862s.152-.936,1.517-1.276S233.443,317.963,233.443,317.963Z" transform="translate(-230.106 -317.461)" fill="#202020"/>
                      <path id="Path_1888" data-name="Path 1888" d="M251.484,317.963l3.337.862s-.152-.936-1.517-1.276S251.484,317.963,251.484,317.963Z" transform="translate(-246.026 -317.461)" fill="#202020"/>
                    </g>
                    <path id="Path_1889" data-name="Path 1889" d="M235.677,298.8a3.341,3.341,0,0,0-.164.341,4.8,4.8,0,0,0-2.045-2.854,9.139,9.139,0,0,0-4.514-1.207c-3.306.6-4.471,2.49-4.857,4.037a3.368,3.368,0,0,0-.154-.318s-1.037,3.3-.153,4.9a7.721,7.721,0,0,0,.617-3.192,3.87,3.87,0,0,1,4.067-1.376c2.552.418,3.871-.414,4.544-1.258a4.584,4.584,0,0,0,2.188,2.836,7.843,7.843,0,0,0,.624,2.99C236.715,302.1,235.677,298.8,235.677,298.8Z" transform="translate(-221.535 -293.803)" fill="#202020"/>
                  </g>
                </g>
              </g>
            </g>
          </g>
        </g>
      </g>
      <g id="Group_1201" data-name="Group 1201" transform="translate(763.71 3102.575)">
        <text id="Taskillo" transform="translate(208.666 52.5)" fill="#202555" font-size="15" font-family="SegoeUIBlack, Segoe UI"><tspan x="-28.733" y="0">Taskillo</tspan></text>
        <g id="Group_909" data-name="Group 909" transform="translate(158.5 38.778)">
          <path id="Path_1545" data-name="Path 1545" d="M1484.079,489.258a7.888,7.888,0,0,1-7.879-7.879,7.539,7.539,0,0,1,7.879-7.879,7.888,7.888,0,0,1,7.879,7.879A7.618,7.618,0,0,1,1484.079,489.258Zm0-14.968a6.784,6.784,0,0,0-7.089,7.089,7.1,7.1,0,0,0,7.089,7.089,6.852,6.852,0,0,0,7.089-7.089A7.1,7.1,0,0,0,1484.079,474.29Z" transform="translate(-1475.432 -472.732)" fill="#818098"/>
          <path id="Path_1545_-_Outline" data-name="Path 1545 - Outline" d="M1483.347,489.294a8.657,8.657,0,0,1-8.647-8.647,9.428,9.428,0,0,1,.632-3.469,7.95,7.95,0,0,1,4.546-4.546,9.429,9.429,0,0,1,3.469-.632,8.649,8.649,0,1,1,0,17.294Zm0-14.968a7.03,7.03,0,0,0-2.586.468,5.7,5.7,0,0,0-3.267,3.267,7.028,7.028,0,0,0-.468,2.587,6.328,6.328,0,0,0,6.321,6.321,6.843,6.843,0,0,0,2.557-.474,5.842,5.842,0,0,0,3.29-3.29,6.838,6.838,0,0,0,.475-2.557A6.328,6.328,0,0,0,1483.347,474.326Z" transform="translate(-1474.7 -472)" fill="#d0d0dd"/>
          <path id="Path_1546" data-name="Path 1546" d="M1526.27,509.236a26.966,26.966,0,0,0-3.757,6.512c-.84-1-1.63-2.046-2.471-3.048-.334-.385-.891.172-.557.557.993,1.175,1.9,2.42,2.917,3.585a.4.4,0,0,0,.658-.172c.648-2.6,2.41-4.871,3.9-7.038C1527.243,509.215,1526.554,508.82,1526.27,509.236Z" transform="translate(-1514.241 -504.178)" fill="#818098"/>
          <path id="Path_1546_-_Outline" data-name="Path 1546 - Outline" d="M1525.867,507.559h0a1.218,1.218,0,0,1,1.07.634,1.089,1.089,0,0,1-.075,1.138c-.2.288-.4.58-.6.862a18.873,18.873,0,0,0-3.188,5.928l0,.007a1.184,1.184,0,0,1-1.14.863,1.112,1.112,0,0,1-.843-.382c-.563-.648-1.1-1.326-1.62-1.982-.422-.533-.858-1.083-1.3-1.606a1.161,1.161,0,0,1-.18-1.251,1.179,1.179,0,0,1,1.06-.7,1.1,1.1,0,0,1,.841.394l.009.01c.427.509.844,1.033,1.248,1.539l.4.5a29.793,29.793,0,0,1,2.858-4.713c.166-.24.338-.487.5-.728A1.149,1.149,0,0,1,1525.867,507.559Z" transform="translate(-1513.51 -503.446)" fill="#5f57cb"/>
        </g>
      </g>
    </g>
    <path id="Path_1892" data-name="Path 1892" d="M819.31,483.358q-10.452-10.388-20.862-20.819a1.7,1.7,0,0,0-2.409,2.409q10.453,10.388,20.862,20.819A1.7,1.7,0,0,0,819.31,483.358Z" transform="translate(435.241 1780.271) rotate(31)" fill="#f674b4"/>
    <path id="Path_1893" data-name="Path 1893" d="M1156.17,422.055c-4.086,4.731-8.173,9.42-12.259,14.152-1.462,1.678,1.033,4.086,2.452,2.409,4.086-4.732,8.173-9.42,12.259-14.152C1160.085,422.829,1157.59,420.377,1156.17,422.055Z" transform="translate(-106.728 3254.825) rotate(-51)" fill="#7baeed"/>
    <path id="Path_1894" data-name="Path 1894" d="M1217.927,481.273c-10.151,4.6-20.26,9.248-30.411,13.851-2.022.946-.258,3.871,1.763,2.968,10.151-4.6,20.259-9.248,30.411-13.85C1221.755,483.3,1219.991,480.37,1217.927,481.273Z" transform="translate(327.504 1664.948) rotate(31)" fill="#f674b4"/>
    <path id="Path_1895" data-name="Path 1895" d="M284.1,774.9l14.84,36.949,24.217-30.282Z" transform="translate(1161.077 1768.565) rotate(31)" fill="#7baeed"/>
    <path id="Path_1897" data-name="Path 1897" d="M284.1,774.9l10.034,24.984,16.375-20.476Z" transform="matrix(0.788, -0.616, 0.616, 0.788, 447.491, 2325.377)" fill="#f674b4"/>
    <path id="Path_1896" data-name="Path 1896" d="M381.713,636.045c-.946,6.624-1.893,13.205-2.839,19.829-.3,2.151,2.968,3.1,3.312.9.946-6.624,1.893-13.205,2.839-19.83C385.326,634.8,382.014,633.851,381.713,636.045Z" transform="translate(1089.604 1880.092) rotate(31)" fill="#ffcb56"/>
  </g>
</svg>
